{
.appVersion = "3112";
.formatVersion = 3;
customParameters = (
{
name = vendorID;
value = PYRS;
},
{
name = panose;
value = (
2,
11,
5,
3,
3,
0,
0,
2,
0,
4
);
},
{
name = unicodeRanges;
value = (
0,
1,
2,
3,
5,
6,
9,
31,
33,
35,
37,
38,
47
);
},
{
name = codePageRanges;
value = (
"1252",
"1250",
"1251",
"1254",
"1257",
"bit 29"
);
},
{
name = fsType;
value = (
);
},
{
name = glyphOrder;
value = (
.notdef,
uni0000,
uni000D,
space,
B,
D,
E,
F,
H,
I,
L,
M,
N,
P,
R,
U,
V,
W,
X,
Y,
Z,
b,
d,
h,
i,
l,
m,
n,
p,
q,
u,
v,
w,
x,
z,
period,
comma,
A,
breve,
circumflex,
uni0326,
exclam,
quotedbl,
quotesingle,
numbersign,
percent,
asterisk,
plus,
slash,
colon,
semicolon,
less,
equal,
greater,
at,
bracketleft,
bracketright,
backslash,
asciicircum,
underscore,
braceleft,
bar,
braceright,
Euro,
quotedblbase,
quotesinglbase,
quotedblright,
quoteright,
quotedblleft,
quoteleft,
minus,
hyphen,
endash,
emdash,
grave,
acute,
guillemotright,
guilsinglright,
guillemotleft,
guilsinglleft,
uni00AD,
ellipsis,
uni0445,
uni0431,
uni0432,
uni0433,
uni0434,
uni0436,
uni043A,
uni0438,
uni0439,
uni043B,
uni043C,
uni043D,
uni043F,
uni0442,
uni0444,
uni0446,
uni0447,
uni0448,
uni0449,
uni044A,
uni044B,
uni044C,
uni044E,
uni044F,
uni0410,
uni0415,
uni041C,
uni041D,
uni0420,
uni0422,
uni0425,
T,
uni0412,
uni041F,
uni0413,
uni041B,
uni0414,
uni0411,
uni0416,
uni0417,
uni0418,
uni0419,
uni041A,
uni0423,
uni0424,
uni0426,
uni0427,
uni0428,
uni0429,
uni042A,
uni042B,
uni042C,
uni042D,
uni042E,
uni042F,
uni0440,
O,
a,
c,
e,
f,
g,
j,
o,
r,
t,
y2_alt,
uni0443,
uni0451,
uni0437,
uni044D,
C,
S,
uni0421,
G,
uni041E,
Q,
J,
K_alt,
K,
k_alt,
k,
i_alt,
j_alt,
s_alt,
s,
c_alt,
copyright,
ampersand,
dollar,
parenleft,
parenright,
cent,
section,
uni04C1,
uni04C2,
w_alt,
W_alt,
zero,
one,
two,
three,
four,
seven,
eight,
nine,
uni0430,
uni0435,
uni043E,
uni0441,
uni0218,
uni0219,
uni021A,
uni021B,
question,
uni2116,
uni0401,
asciitilde,
trademark,
registered,
degree,
bullet,
uni27F5,
uni27F6,
arrowup,
arrowdown,

glyphs = (
{
glyphname = .notdef;
layers = (
{
layerId = m01;
shapes = (
{
closed = 1;
nodes = (
(520,-295,l),
(520,960,l),
(20,960,l),
(20,-295,l)
);
},
{
closed = 1;
nodes = (
(510,950,l),
(510,-285,l),
(30,-285,l),
(30,950,l)
);
}
);
userData = {
assembly = "MPPEM[ ]	/* MeasurePixelPerEm */
PUSHB[ ]	/* 1 value pushed */
50 
LT[ ]	/* LessThan */
IF[ ]	/* If */
NPUSHB[ ]	/* 21 values pushed */
0 3 3 0 95 0 0 0 68 77 0 2 2 1 95 0 1 1 69 1 78 
ELSE[ ]	/* Else */
NPUSHB[ ]	/* 24 values pushed */
0 0 0 3 2 0 3 103 0 2 1 1 2 87 0 2 2 1 95 0 1 2 1 79 
EIF[ ]	/* EndIf */
PUSHB[ ]	/* 7 values pushed */
17 17 17 16 4 6 26 
CALL[ ]	/* CallFunction */";
};
width = 540;
}
);
note = ".notdef";
},
{
glyphname = B;
layers = (
{
layerId = m01;
shapes = (
{
closed = 1;
nodes = (
(325,0,ls),
(373,0,o),
(470,16,o),
(548,57,o),
(596,130,o),
(596,187,qs),
(596,226,o),
(570,291,o),
(523,337,o),
(458,366,o),
(419,369,q),
(480,385,o),
(557,470,o),
(557,539,qs),
(557,592,o),
(519,658,o),
(456,694,o),
(375,707,o),
(331,707,qs),
(92,707,l),
(92,0,l)
);
},
{
closed = 1;
nodes = (
(368,669,o),
(435,660,o),
(487,632,o),
(518,579,o),
(518,535,qs),
(518,490,o),
(477,430,o),
(413,395,o),
(335,380,o),
(298,380,qs),
(134,380,l),
(134,669,l),
(332,669,ls)
);
},
{
closed = 1;
nodes = (
(134,343,l),
(344,343,ls),
(382,343,o),
(457,329,o),
(517,295,o),
(554,236,o),
(554,190,qs),
(554,137,o),
(511,77,o),
(444,46,o),
(361,38,o),
(322,38,qs),
(134,38,l)
);
}
);
userData = {
assembly = "NPUSHB[ ]	/* 59 values pushed */
9 1 5 2 1 76 0 2 0 5 4 2 5 103 6 1 3 3 0 95 0 0 0 38 77 7 1 4 4 1 95 0 1 1 39 1 78 35 34 21 21 45 43 34 46 35 46 21 33 21 32 24 22 20 18 32 8 8 23 
CALL[ ]	/* CallFunction */";
};
width = 651;
}
);
note = B;
unicode = 66;
},
{
glyphname = D;
kernRight = D;
layers = (
{
layerId = m01;
shapes = (
{
closed = 1;
nodes = (
(336,0,ls),
(417,0,o),
(540,52,o),
(623,145,o),
(665,275,o),
(665,353,qs),
(665,432,o),
(623,563,o),
(541,656,o),
(418,707,o),
(336,707,qs),
(93,707,l),
(93,0,l)
);
},
{
closed = 1;
nodes = (
(407,669,o),
(515,622,o),
(586,537,o),
(621,421,o),
(621,353,qs),
(621,283,o),
(584,167,o),
(510,83,o),
(401,38,o),
(328,38,qs),
(135,38,l),
(135,669,l),
(335,669,ls)
);
}
);
userData = {
assembly = "NPUSHB[ ]	/* 34 values pushed */
4 1 3 3 0 95 0 0 0 38 77 0 2 2 1 95 0 1 1 39 1 78 13 13 13 25 13 24 34 40 32 5 8 25 
CALL[ ]	/* CallFunction */";
};
width = 720;
}
);
note = D;
unicode = 68;
},
{
glyphname = E;
layers = (
{
layerId = m01;
shapes = (
{
closed = 1;
nodes = (
(549,0,l),
(549,38,l),
(135,38,l),
(135,332,l),
(507,332,l),
(507,370,l),
(135,370,l),
(135,669,l),
(549,669,l),
(549,707,l),
(93,707,l),
(93,0,l)
);
}
);
userData = {
assembly = "NPUSHB[ ]	/* 38 values pushed */
0 2 0 3 4 2 3 103 0 1 1 0 95 0 0 0 38 77 0 4 4 5 95 0 5 5 39 5 78 17 17 17 17 17 16 6 8 28 
CALL[ ]	/* CallFunction */";
};
width = 603;
}
);
note = E;
unicode = 69;
},
{
glyphname = F;
layers = (
{
layerId = m01;
shapes = (
{
closed = 1;
nodes = (
(135,309,l),
(489,309,l),
(489,346,l),
(135,346,l),
(135,669,l),
(549,669,l),
(549,707,l),
(93,707,l),
(93,0,l),
(135,0,l)
);
}
);
userData = {
assembly = "NPUSHB[ ]	/* 38 values pushed */
0 2 0 3 4 2 3 103 0 1 1 0 95 0 0 0 38 77 5 1 4 4 39 4 78 0 0 0 9 0 9 17 17 17 17 6 8 26 
CALL[ ]	/* CallFunction */";
};
width = 592;
}
);
note = F;
unicode = 70;
},
{
glyphname = H;
layers = (
{
layerId = m01;
shapes = (
{
closed = 1;
nodes = (
(135,707,l),
(93,707,l),
(93,0,l),
(135,0,l),
(135,328,l),
(590,328,l),
(590,0,l),
(632,0,l),
(632,707,l),
(590,707,l),
(590,365,l),
(135,365,l)
);
}
);
userData = {
assembly = "NPUSHB[ ]	/* 36 values pushed */
6 1 5 0 2 1 5 2 103 4 1 0 0 38 77 3 1 1 1 39 1 78 0 0 0 11 0 11 17 17 17 17 17 7 8 27 
CALL[ ]	/* CallFunction */";
};
width = 725;
}
);
note = H;
unicode = 72;
},
{
glyphname = I;
layers = (
{
layerId = m01;
shapes = (
{
closed = 1;
nodes = (
(93,707,l),
(93,0,l),
(135,0,l),
(135,707,l)
);
}
);
userData = {
assembly = "NPUSHB[ ]	/* 16 values pushed */
0 1 1 38 77 0 0 0 39 0 78 17 16 2 8 24 
CALL[ ]	/* CallFunction */";
};
width = 228;
}
);
note = I;
unicode = 73;
},
{
glyphname = L;
layers = (
{
layerId = m01;
shapes = (
{
closed = 1;
nodes = (
(549,38,l),
(135,38,l),
(135,707,l),
(93,707,l),
(93,0,l),
(549,0,l)
);
}
);
userData = {
assembly = "NPUSHB[ ]	/* 28 values pushed */
0 0 0 38 77 0 1 1 2 95 3 1 2 2 39 2 78 0 0 0 5 0 5 17 17 4 8 24 
CALL[ ]	/* CallFunction */";
};
width = 568;
}
);
note = L;
unicode = 76;
},
{
glyphname = M;
layers = (
{
layerId = m01;
shapes = (
{
closed = 1;
nodes = (
(421,255,l),
(153,707,l),
(93,707,l),
(93,0,l),
(135,0,l),
(135,657,l),
(409,195,l),
(431,195,l),
(700,657,l),
(700,0,l),
(742,0,l),
(742,707,l),
(683,707,l)
);
}
);
userData = {
assembly = "NPUSHB[ ]	/* 43 values pushed */
11 6 3 3 1 3 1 76 0 1 3 0 3 1 0 128 5 4 2 3 3 38 77 2 1 0 0 39 0 78 0 0 0 12 0 12 17 18 18 17 6 8 26 
CALL[ ]	/* CallFunction */";
};
width = 835;
}
);
note = M;
unicode = 77;
},
{
glyphname = N;
layers = (
{
layerId = m01;
shapes = (
{
closed = 1;
nodes = (
(135,0,l),
(135,659,l),
(593,0,l),
(651,0,l),
(651,707,l),
(609,707,l),
(609,49,l),
(154,707,l),
(93,707,l),
(93,0,l)
);
}
);
userData = {
assembly = "NPUSHB[ ]	/* 27 values pushed */
7 2 2 2 0 1 76 1 1 0 0 38 77 3 1 2 2 39 2 78 18 17 18 16 4 8 26 
CALL[ ]	/* CallFunction */";
};
width = 744;
}
);
note = N;
unicode = 78;
},
{
glyphname = P;
layers = (
{
layerId = m01;
shapes = (
{
closed = 1;
nodes = (
(135,0,l),
(135,250,l),
(308,250,ls),
(363,250,o),
(459,278,o),
(529,335,o),
(569,421,o),
(569,480,qs),
(569,597,o),
(441,707,o),
(328,707,qs),
(93,707,l),
(93,0,l)
);
},
{
closed = 1;
nodes = (
(135,669,l),
(322,669,ls),
(369,669,o),
(444,649,o),
(497,604,o),
(525,534,o),
(525,484,qs),
(525,432,o),
(493,358,o),
(436,310,o),
(355,287,o),
(306,287,qs),
(135,287,l)
);
}
);
userData = {
assembly = "NPUSHB[ ]	/* 39 values pushed */
5 1 3 0 1 2 3 1 103 0 4 4 0 95 0 0 0 38 77 0 2 2 39 2 78 14 13 24 22 13 25 14 25 17 38 32 6 8 25 
CALL[ ]	/* CallFunction */";
};
width = 624;
}
);
note = P;
unicode = 80;
},
{
glyphname = R;
layers = (
{
layerId = m01;
shapes = (
{
closed = 1;
nodes = (
(531,0,l),
(579,0,l),
(421,293,l),
(507,312,o),
(595,415,o),
(595,495,qs),
(595,554,o),
(559,635,o),
(495,685,o),
(405,707,o),
(350,707,qs),
(93,707,l),
(93,0,l),
(135,0,l),
(135,286,l),
(377,286,l)
);
},
{
closed = 1;
nodes = (
(135,669,l),
(340,669,ls),
(385,669,o),
(462,654,o),
(519,615,o),
(551,549,o),
(551,498,qs),
(551,444,o),
(513,375,o),
(449,337,o),
(366,323,o),
(322,323,qs),
(135,323,l)
);
}
);
userData = {
assembly = "NPUSHB[ ]	/* 53 values pushed */
12 1 3 4 1 76 7 1 4 6 1 3 0 4 3 103 0 5 5 1 95 0 1 1 38 77 2 1 0 0 39 0 78 17 16 0 0 27 25 16 28 17 28 0 15 0 15 24 33 17 8 8 25 
CALL[ ]	/* CallFunction */";
};
width = 654;
}
);
note = R;
unicode = 82;
},
{
glyphname = U;
layers = (
{
layerId = m01;
shapes = (
{
closed = 1;
nodes = (
(588,303,ls),
(588,246,o),
(564,146,o),
(510,71,o),
(423,28,o),
(360,28,qs),
(298,28,o),
(211,71,o),
(156,145,o),
(131,245,o),
(131,303,qs),
(131,707,l),
(88,707,l),
(88,299,ls),
(88,231,o),
(119,119,o),
(185,37,o),
(287,-8,o),
(359,-8,qs),
(431,-8,o),
(534,37,o),
(599,119,o),
(630,231,o),
(630,299,qs),
(630,707,l),
(588,707,l)
);
}
);
userData = {
assembly = "NPUSHB[ ]	/* 30 values pushed */
4 3 2 1 1 38 77 0 2 2 0 97 0 0 0 47 0 78 0 0 0 25 0 25 37 21 37 5 8 25 
CALL[ ]	/* CallFunction */";
};
width = 718;
}
);
note = U;
unicode = 85;
},
{
glyphname = V;
layers = (
{
layerId = m01;
shapes = (
{
closed = 1;
nodes = (
(68,707,l),
(20,707,l),
(299,0,l),
(352,0,l),
(628,707,l),
(581,707,l),
(325,47,l)
);
}
);
userData = {
assembly = "NPUSHB[ ]	/* 24 values pushed */
6 1 1 0 1 76 2 1 0 0 38 77 0 1 1 39 1 78 17 17 16 3 8 25 
CALL[ ]	/* CallFunction */";
};
width = 648;
}
);
note = V;
unicode = 86;
},
{
glyphname = W;
kernLeft = W;
kernRight = W;
layers = (
{
layerId = m01;
shapes = (
{
closed = 1;
nodes = (
(467,663,l),
(657,0,l),
(718,0,l),
(917,707,l),
(871,707,l),
(688,44,l),
(498,707,l),
(437,707,l),
(250,44,l),
(66,707,l),
(20,707,l),
(219,0,l),
(284,0,l)
);
}
);
userData = {
assembly = "NPUSHB[ ]	/* 36 values pushed */
11 6 3 3 3 0 1 76 2 1 2 0 0 38 77 5 4 2 3 3 39 3 78 0 0 0 12 0 12 17 18 18 17 6 8 26 
CALL[ ]	/* CallFunction */";
};
width = 937;
}
);
note = W;
unicode = 87;
},
{
glyphname = X;
layers = (
{
layerId = m01;
shapes = (
{
closed = 1;
nodes = (
(84,707,l),
(28,707,l),
(249,356,l),
(20,0,l),
(74,0,l),
(278,323,l),
(483,0,l),
(538,0,l),
(309,358,l),
(529,707,l),
(473,707,l),
(279,390,l)
);
}
);
userData = {
assembly = "NPUSHB[ ]	/* 29 values pushed */
11 8 5 2 4 1 0 1 76 3 1 0 0 38 77 2 1 1 1 39 1 78 18 18 18 16 4 8 26 
CALL[ ]	/* CallFunction */";
};
width = 558;
}
);
note = X;
unicode = 88;
},
{
glyphname = Y;
kernLeft = Y;
kernRight = Y;
layers = (
{
layerId = m01;
shapes = (
{
closed = 1;
nodes = (
(72,707,l),
(20,707,l),
(272,267,l),
(272,0,l),
(314,0,l),
(314,267,l),
(563,707,l),
(514,707,l),
(293,310,l)
);
}
);
userData = {
assembly = "NPUSHB[ ]	/* 26 values pushed */
8 5 2 3 1 0 1 76 2 1 0 0 38 77 0 1 1 39 1 78 18 18 16 3 8 25 
CALL[ ]	/* CallFunction */";
};
width = 583;
}
);
note = Y;
unicode = 89;
},
{
glyphname = Z;
layers = (
{
layerId = m01;
shapes = (
{
closed = 1;
nodes = (
(50,40,l),
(50,0,l),
(538,0,l),
(538,38,l),
(100,38,l),
(543,668,l),
(543,707,l),
(65,707,l),
(65,669,l),
(487,669,l)
);
}
);
userData = {
assembly = "NPUSHB[ ]	/* 41 values pushed */
8 3 2 1 3 1 76 4 1 3 3 0 95 0 0 0 38 77 0 1 1 2 95 0 2 2 39 2 78 0 0 0 9 0 9 17 18 17 5 8 25 
CALL[ ]	/* CallFunction */";
};
width = 593;
}
);
note = Z;
unicode = 90;
},
{
glyphname = b;
layers = (
{
layerId = m01;
shapes = (
{
closed = 1;
nodes = (
(131,69,o),
(180,25,o),
(234,1,o),
(290,-7,o),
(315,-7,qs),
(373,-7,o),
(463,33,o),
(525,104,o),
(556,203,o),
(556,262,qs),
(556,316,o),
(529,414,o),
(474,489,o),
(387,534,o),
(327,534,qs),
(264,534,o),
(153,484,o),
(115,419,q),
(115,707,l),
(73,707,l),
(73,0,l),
(113,0,l),
(113,105,l)
);
},
{
closed = 1;
nodes = (
(189,66,o),
(138,129,o),
(113,214,o),
(113,262,qs),
(113,307,o),
(139,392,o),
(190,458,o),
(265,498,o),
(315,498,qs),
(369,498,o),
(445,460,o),
(492,395,o),
(514,310,o),
(514,262,qs),
(514,215,o),
(491,131,o),
(442,67,o),
(367,29,o),
(316,29,qs),
(265,29,o)
);
}
);
userData = {
assembly = "NPUSHB[ ]	/* 54 values pushed */
22 4 2 4 5 1 76 0 1 1 38 77 0 5 5 2 97 0 2 2 49 77 0 0 0 39 77 6 1 4 4 3 97 0 3 3 50 3 78 24 23 34 32 23 42 24 42 40 35 17 16 7 8 26 
CALL[ ]	/* CallFunction */";
};
width = 609;
}
);
note = b;
unicode = 98;
},
{
glyphname = d;
kernLeft = d;
layers = (
{
layerId = m01;
shapes = (
{
closed = 1;
nodes = (
(477,456,o),
(430,497,o),
(377,523,o),
(321,534,o),
(295,534,qs),
(238,534,o),
(148,495,o),
(86,424,o),
(53,323,o),
(53,262,qs),
(53,208,o),
(78,110,o),
(133,37,o),
(221,-7,o),
(284,-7,qs),
(311,-7,o),
(371,5,o),
(427,33,o),
(476,79,o),
(494,113,q),
(494,0,l),
(536,0,l),
(536,707,l),
(494,707,l),
(494,426,l)
);
},
{
closed = 1;
nodes = (
(420,461,o),
(471,398,o),
(496,314,o),
(496,266,qs),
(496,218,o),
(468,132,o),
(415,67,o),
(338,29,o),
(288,29,qs),
(230,29,o),
(155,71,o),
(112,138,o),
(95,222,o),
(95,265,qs),
(95,311,o),
(118,395,o),
(166,459,o),
(241,498,o),
(293,498,qs),
(344,498,o)
);
}
);
userData = {
assembly = "NPUSHB[ ]	/* 54 values pushed */
24 4 2 5 4 1 76 0 0 0 38 77 6 1 4 4 3 97 0 3 3 49 77 0 1 1 39 77 0 5 5 2 97 0 2 2 50 2 78 26 25 36 34 25 44 26 44 40 37 17 16 7 8 26 
CALL[ ]	/* CallFunction */";
};
width = 609;
}
);
note = d;
unicode = 100;
},
{
glyphname = h;
layers = (
{
layerId = m01;
shapes = (
{
closed = 1;
nodes = (
(115,268,ls),
(115,314,o),
(140,397,o),
(190,460,o),
(265,498,o),
(315,498,qs),
(367,498,o),
(431,458,o),
(466,394,o),
(478,310,o),
(478,267,qs),
(478,0,l),
(520,0,l),
(520,292,ls),
(520,342,o),
(499,430,o),
(451,496,o),
(373,534,o),
(316,534,qs),
(254,534,o),
(150,482,o),
(115,423,q),
(115,707,l),
(73,707,l),
(73,0,l),
(115,0,l)
);
}
);
userData = {
assembly = "NPUSHB[ ]	/* 42 values pushed */
3 1 2 3 1 76 0 0 0 38 77 0 3 3 1 97 0 1 1 49 77 5 4 2 2 2 39 2 78 0 0 0 25 0 25 37 21 35 17 6 8 26 
CALL[ ]	/* CallFunction */";
};
width = 590;
}
);
note = h;
unicode = 104;
},
{
glyphname = i;
layers = (
{
layerId = m01;
shapes = (
{
closed = 1;
nodes = (
(65,706,o),
(65,687,qs),
(65,669,o),
(88,648,o),
(105,648,qs),
(123,648,o),
(145,669,o),
(145,687,qs),
(145,704,o),
(123,726,o),
(105,726,qs),
(88,726,o)
);
},
{
closed = 1;
nodes = (
(125,0,l),
(125,527,l),
(83,527,l),
(83,0,l)
);
}
);
userData = {
assembly = "MPPEM[ ]	/* MeasurePixelPerEm */
PUSHB[ ]	/* 1 value pushed */
41 
LT[ ]	/* LessThan */
IF[ ]	/* If */
NPUSHB[ ]	/* 22 values pushed */
0 1 1 0 97 4 1 0 0 48 77 0 2 2 41 77 0 3 3 39 3 78 
ELSE[ ]	/* Else */
MPPEM[ ]	/* MeasurePixelPerEm */
PUSHB[ ]	/* 1 value pushed */
44 
LT[ ]	/* LessThan */
IF[ ]	/* If */
NPUSHB[ ]	/* 22 values pushed */
0 1 1 0 97 4 1 0 0 46 77 0 2 2 41 77 0 3 3 39 3 78 
ELSE[ ]	/* Else */
NPUSHB[ ]	/* 20 values pushed */
4 1 0 0 1 2 0 1 105 0 2 2 41 77 0 3 3 39 3 78 
EIF[ ]	/* EndIf */
EIF[ ]	/* EndIf */
NPUSHB[ ]	/* 15 values pushed */
1 0 15 14 13 12 7 5 0 11 1 11 5 8 22 
CALL[ ]	/* CallFunction */";
};
width = 210;
}
);
note = i;
unicode = 105;
},
{
glyphname = l;
layers = (
{
layerId = m01;
shapes = (
{
closed = 1;
nodes = (
(117,707,l),
(75,707,l),
(75,0,l),
(117,0,l)
);
}
);
userData = {
assembly = "NPUSHB[ ]	/* 22 values pushed */
0 0 0 38 77 2 1 1 1 39 1 78 0 0 0 3 0 3 17 3 8 23 
CALL[ ]	/* CallFunction */";
};
width = 192;
}
);
note = l;
unicode = 108;
},
{
glyphname = m;
layers = (
{
layerId = m01;
shapes = (
{
closed = 1;
nodes = (
(73,527,l),
(73,0,l),
(115,0,l),
(115,275,ls),
(115,319,o),
(132,400,o),
(170,461,o),
(231,498,o),
(274,498,qs),
(316,498,o),
(368,460,o),
(397,402,o),
(406,332,o),
(406,299,qs),
(406,0,l),
(448,0,l),
(448,286,ls),
(448,323,o),
(464,398,o),
(500,459,o),
(558,498,o),
(600,498,qs),
(642,498,o),
(693,469,o),
(719,420,o),
(727,356,o),
(727,322,qs),
(727,0,l),
(769,0,l),
(769,350,ls),
(769,390,o),
(750,458,o),
(709,507,o),
(645,534,o),
(601,534,qs),
(562,534,o),
(503,509,o),
(461,470,o),
(436,423,o),
(432,401,q),
(418,466,o),
(336,534,o),
(277,534,qs),
(258,534,o),
(214,527,o),
(169,504,o),
(127,462,o),
(112,428,q),
(112,527,l)
);
}
);
userData = {
assembly = "NPUSHB[ ]	/* 43 values pushed */
8 0 2 2 3 1 76 0 7 7 41 77 5 1 3 3 0 97 1 1 0 0 49 77 6 4 2 2 2 39 2 78 17 21 37 21 37 21 38 36 8 8 30 
CALL[ ]	/* CallFunction */";
};
width = 839;
}
);
note = m;
unicode = 109;
},
{
glyphname = n;
layers = (
{
layerId = m01;
shapes = (
{
closed = 1;
nodes = (
(115,268,ls),
(115,314,o),
(140,397,o),
(190,460,o),
(265,498,o),
(315,498,qs),
(367,498,o),
(431,458,o),
(466,394,o),
(478,310,o),
(478,267,qs),
(478,0,l),
(520,0,l),
(520,292,ls),
(520,342,o),
(499,430,o),
(451,496,o),
(373,534,o),
(316,534,qs),
(254,534,o),
(150,482,o),
(115,423,q),
(115,527,l),
(73,527,l),
(73,0,l),
(115,0,l)
);
}
);
userData = {
assembly = "NPUSHB[ ]	/* 42 values pushed */
3 1 2 3 1 76 0 0 0 41 77 0 3 3 1 97 0 1 1 49 77 5 4 2 2 2 39 2 78 0 0 0 25 0 25 37 21 35 17 6 8 26 
CALL[ ]	/* CallFunction */";
};
width = 590;
}
);
note = n;
unicode = 110;
},
{
glyphname = p;
layers = (
{
layerId = m01;
shapes = (
{
closed = 1;
nodes = (
(134,65,o),
(184,24,o),
(240,1,o),
(296,-7,o),
(320,-7,qs),
(378,-7,o),
(466,31,o),
(526,100,o),
(556,199,o),
(556,259,qs),
(556,315,o),
(528,415,o),
(471,490,o),
(383,534,o),
(323,534,qs),
(255,534,o),
(154,482,o),
(115,423,q),
(115,527,l),
(73,527,l),
(73,-206,l),
(115,-206,l),
(115,98,l)
);
},
{
closed = 1;
nodes = (
(192,65,o),
(140,127,o),
(113,212,o),
(113,262,qs),
(113,307,o),
(139,392,o),
(190,458,o),
(265,498,o),
(315,498,qs),
(369,498,o),
(445,460,o),
(492,395,o),
(514,310,o),
(514,262,qs),
(514,215,o),
(493,131,o),
(448,67,o),
(375,29,o),
(323,29,qs),
(271,29,o)
);
}
);
userData = {
assembly = "PUSHB[ ]	/* 7 values pushed */
22 4 2 4 5 1 76 
MPPEM[ ]	/* MeasurePixelPerEm */
PUSHB[ ]	/* 1 value pushed */
14 
LT[ ]	/* LessThan */
IF[ ]	/* If */
NPUSHB[ ]	/* 32 values pushed */
0 1 1 41 77 0 5 5 2 97 0 2 2 49 77 6 1 4 4 3 97 0 3 3 50 77 0 0 0 43 0 78 
ELSE[ ]	/* Else */
NPUSHB[ ]	/* 32 values pushed */
0 0 3 0 134 0 1 1 41 77 0 5 5 2 97 0 2 2 49 77 6 1 4 4 3 97 0 3 3 50 3 78 
EIF[ ]	/* EndIf */
NPUSHB[ ]	/* 15 values pushed */
24 23 34 32 23 42 24 42 40 35 17 16 7 8 26 
CALL[ ]	/* CallFunction */";
};
width = 609;
}
);
note = p;
unicode = 112;
},
{
glyphname = q;
kernLeft = d;
layers = (
{
layerId = m01;
shapes = (
{
closed = 1;
nodes = (
(461,476,o),
(365,534,o),
(293,534,qs),
(236,534,o),
(146,490,o),
(85,416,o),
(53,318,o),
(53,264,qs),
(53,219,o),
(74,123,o),
(127,44,o),
(218,-7,o),
(288,-7,qs),
(362,-7,o),
(464,53,o),
(494,107,q),
(494,-206,l),
(536,-206,l),
(536,527,l),
(494,527,l),
(493,429,l)
);
},
{
closed = 1;
nodes = (
(422,461,o),
(471,398,o),
(496,313,o),
(496,265,qs),
(496,220,o),
(471,135,o),
(421,69,o),
(346,29,o),
(296,29,qs),
(242,29,o),
(165,66,o),
(117,131,o),
(95,217,o),
(95,265,qs),
(95,310,o),
(119,394,o),
(168,459,o),
(243,498,o),
(295,498,qs),
(346,498,o)
);
}
);
userData = {
assembly = "PUSHB[ ]	/* 7 values pushed */
20 4 2 5 4 1 76 
MPPEM[ ]	/* MeasurePixelPerEm */
PUSHB[ ]	/* 1 value pushed */
14 
LT[ ]	/* LessThan */
IF[ ]	/* If */
NPUSHB[ ]	/* 32 values pushed */
0 0 0 41 77 6 1 4 4 3 97 0 3 3 49 77 0 5 5 2 97 0 2 2 50 77 0 1 1 43 1 78 
ELSE[ ]	/* Else */
NPUSHB[ ]	/* 32 values pushed */
0 1 2 1 134 0 0 0 41 77 6 1 4 4 3 97 0 3 3 49 77 0 5 5 2 97 0 2 2 50 2 78 
EIF[ ]	/* EndIf */
NPUSHB[ ]	/* 15 values pushed */
22 21 32 30 21 40 22 40 40 35 17 16 7 8 26 
CALL[ ]	/* CallFunction */";
};
width = 609;
}
);
note = q;
unicode = 113;
},
{
glyphname = u;
layers = (
{
layerId = m01;
shapes = (
{
closed = 1;
nodes = (
(171,59,o),
(131,111,o),
(113,184,o),
(113,226,qs),
(113,527,l),
(71,527,l),
(71,227,ls),
(71,115,o),
(171,-7,o),
(283,-7,qs),
(398,-7,o),
(498,116,o),
(498,227,qs),
(498,527,l),
(456,527,l),
(456,226,ls),
(456,182,o),
(438,109,o),
(398,57,o),
(331,29,o),
(283,29,qs),
(236,29,o)
);
}
);
userData = {
assembly = "NPUSHB[ ]	/* 33 values pushed */
3 1 1 1 41 77 4 1 0 0 2 97 0 2 2 50 2 78 1 0 16 15 12 10 7 6 0 21 1 21 5 8 22 
CALL[ ]	/* CallFunction */";
};
width = 569;
}
);
note = u;
unicode = 117;
},
{
glyphname = v;
layers = (
{
layerId = m01;
shapes = (
{
closed = 1;
nodes = (
(282,0,l),
(495,527,l),
(448,527,l),
(254,36,l),
(61,527,l),
(13,527,l),
(223,0,l)
);
}
);
userData = {
assembly = "NPUSHB[ ]	/* 24 values pushed */
2 1 2 0 1 76 1 1 0 0 41 77 0 2 2 39 2 78 17 18 16 3 8 25 
CALL[ ]	/* CallFunction */";
};
width = 508;
}
);
note = v;
unicode = 118;
},
{
glyphname = w;
kernLeft = w;
layers = (
{
layerId = m01;
shapes = (
{
closed = 1;
nodes = (
(367,527,l),
(212,36,l),
(64,527,l),
(19,527,l),
(178,0,l),
(244,0,l),
(402,492,l),
(559,0,l),
(622,0,l),
(783,527,l),
(737,527,l),
(591,36,l),
(436,527,l)
);
}
);
userData = {
assembly = "NPUSHB[ ]	/* 29 values pushed */
10 5 2 1 0 1 76 4 3 2 0 0 41 77 2 1 1 1 39 1 78 18 17 18 17 17 5 8 27 
CALL[ ]	/* CallFunction */";
};
width = 802;
}
);
note = w;
unicode = 119;
},
{
glyphname = x;
layers = (
{
layerId = m01;
shapes = (
{
closed = 1;
nodes = (
(465,0,l),
(273,271,l),
(452,527,l),
(400,527,l),
(244,296,l),
(86,527,l),
(34,527,l),
(213,268,l),
(20,0,l),
(72,0,l),
(242,239,l),
(412,0,l)
);
}
);
userData = {
assembly = "NPUSHB[ ]	/* 28 values pushed */
9 6 3 3 0 1 1 76 2 1 1 1 41 77 3 1 0 0 39 0 78 18 18 18 17 4 8 26 
CALL[ ]	/* CallFunction */";
};
width = 485;
}
);
note = x;
unicode = 120;
},
{
glyphname = z;
layers = (
{
layerId = m01;
shapes = (
{
closed = 1;
nodes = (
(58,527,l),
(58,492,l),
(422,492,l),
(53,43,l),
(53,0,l),
(469,0,l),
(469,36,l),
(97,36,l),
(469,485,l),
(469,527,l)
);
}
);
userData = {
assembly = "NPUSHB[ ]	/* 35 values pushed */
5 0 2 0 2 1 76 0 2 2 3 95 0 3 3 41 77 0 0 0 1 95 0 1 1 39 1 78 17 18 17 17 4 8 26 
CALL[ ]	/* CallFunction */";
};
width = 522;
}
);
note = z;
unicode = 122;
},
{
glyphname = period;
kernLeft = period;
kernRight = period;
layers = (
{
layerId = m01;
shapes = (
{
closed = 1;
nodes = (
(73,51,o),
(73,33,qs),
(73,16,o),
(94,-8,o),
(113,-8,qs),
(132,-8,o),
(153,16,o),
(153,33,qs),
(153,51,o),
(131,73,o),
(113,73,qs),
(95,73,o)
);
}
);
userData = {
assembly = "NPUSHB[ ]	/* 23 values pushed */
2 1 0 0 1 97 0 1 1 47 1 78 1 0 7 5 0 11 1 11 3 8 22 
CALL[ ]	/* CallFunction */";
};
width = 226;
}
);
note = period;
unicode = 46;
},
{
glyphname = comma;
kernLeft = period;
kernRight = period;
layers = (
{
layerId = m01;
shapes = (
{
closed = 1;
nodes = (
(72,50,o),
(72,33,qs),
(72,19,o),
(83,2,o),
(99,-6,o),
(117,-8,o),
(123,-6,q),
(119,-36,o),
(85,-78,o),
(68,-88,q),
(83,-108,l),
(117,-89,o),
(158,-23,o),
(158,18,qs),
(158,38,o),
(139,73,o),
(114,73,qs),
(95,73,o)
);
}
);
userData = {
assembly = "NPUSHB[ ]	/* 28 values pushed */
7 6 2 1 73 2 1 0 0 1 97 0 1 1 50 1 78 1 0 12 10 0 17 1 17 3 8 22 
CALL[ ]	/* CallFunction */";
};
width = 230;
}
);
note = comma;
unicode = 44;
},
{
glyphname = A;
kernLeft = A;
kernRight = A;
layers = (
{
layerId = m01;
shapes = (
{
closed = 1;
nodes = (
(64,0,l),
(127,163,l),
(509,163,l),
(573,0,l),
(622,0,l),
(341,707,l),
(294,707,l),
(16,0,l)
);
},
{
closed = 1;
nodes = (
(494,200,l),
(141,200,l),
(318,657,l)
);
}
);
userData = {
assembly = "NPUSHB[ ]	/* 34 values pushed */
10 1 4 0 1 76 0 4 0 2 1 4 2 103 0 0 0 38 77 3 1 1 1 39 1 78 17 17 17 17 16 5 8 27 
CALL[ ]	/* CallFunction */";
};
width = 638;
}
);
note = A;
unicode = 65;
},
{
glyphname = breve;
layers = (
{
layerId = m01;
shapes = (
{
closed = 1;
nodes = (
(124,706,o),
(150,667,o),
(189,645,o),
(239,636,o),
(266,636,qs),
(293,636,o),
(343,645,o),
(383,668,o),
(410,706,o),
(414,735,q),
(375,735,l),
(367,694,o),
(306,669,o),
(267,669,qs),
(227,669,o),
(167,694,o),
(159,735,q),
(120,735,l)
);
}
);
userData = {
assembly = "PUSHB[ ]	/* 2 values pushed */
6 100 
WCVTP[ ]	/* WriteCVTInPixels */
NPUSHB[ ]	/* 35 values pushed */
4 3 2 1 0 1 133 0 0 2 2 0 89 0 0 0 2 97 0 2 0 2 81 0 0 0 17 0 17 36 18 34 5 8 25 
CALL[ ]	/* CallFunction */
PUSHB[ ]	/* 2 values pushed */
6 0 
WCVTP[ ]	/* WriteCVTInPixels */";
};
width = 534;
}
);
note = breve;
unicode = 728;
},
{
glyphname = circumflex;
layers = (
{
layerId = m01;
shapes = (
{
closed = 1;
nodes = (
(269,763,l),
(237,763,l),
(126,636,l),
(170,636,l),
(252,734,l),
(337,636,l),
(380,636,l)
);
}
);
userData = {
assembly = "PUSHB[ ]	/* 2 values pushed */
6 100 
WCVTP[ ]	/* WriteCVTInPixels */
NPUSHB[ ]	/* 28 values pushed */
1 1 0 1 1 76 0 1 0 1 133 3 2 2 0 0 118 0 0 0 6 0 6 17 18 4 8 24 
CALL[ ]	/* CallFunction */
PUSHB[ ]	/* 2 values pushed */
6 0 
WCVTP[ ]	/* WriteCVTInPixels */";
};
width = 506;
}
);
note = circumflex;
unicode = 710;
},
{
glyphname = uni0326;
layers = (
{
layerId = m01;
shapes = (
{
closed = 1;
nodes = (
(-326,-142,o),
(-326,-159,qs),
(-326,-173,o),
(-315,-190,o),
(-299,-198,o),
(-281,-200,o),
(-275,-198,q),
(-279,-228,o),
(-313,-270,o),
(-330,-280,q),
(-315,-300,l),
(-281,-281,o),
(-240,-215,o),
(-240,-172,qs),
(-240,-151,o),
(-263,-119,o),
(-285,-119,qs),
(-303,-119,o)
);
}
);
userData = {
assembly = "PUSHB[ ]	/* 2 values pushed */
6 100 
WCVTP[ ]	/* WriteCVTInPixels */
NPUSHB[ ]	/* 34 values pushed */
7 6 2 1 73 2 1 0 1 1 0 89 2 1 0 0 1 97 0 1 0 1 81 1 0 12 10 0 17 1 17 3 8 22 
CALL[ ]	/* CallFunction */
PUSHB[ ]	/* 2 values pushed */
6 0 
WCVTP[ ]	/* WriteCVTInPixels */";
};
width = 0;
}
);
note = uni0326;
unicode = 806;
},
{
glyphname = exclam;
layers = (
{
layerId = m01;
shapes = (
{
closed = 1;
nodes = (
(82,51,o),
(82,32,qs),
(82,14,o),
(104,-8,o),
(123,-8,qs),
(140,-8,o),
(162,13,o),
(162,31,qs),
(162,51,o),
(139,72,o),
(123,72,qs),
(104,72,o)
);
},
{
closed = 1;
nodes = (
(143,707,l),
(102,707,l),
(104,177,l),
(141,177,l)
);
}
);
userData = {
assembly = "NPUSHB[ ]	/* 45 values pushed */
5 1 3 2 0 2 3 0 128 0 2 2 38 77 4 1 0 0 1 97 0 1 1 47 1 78 12 12 1 0 12 15 12 15 14 13 7 5 0 11 1 11 6 8 22 
CALL[ ]	/* CallFunction */";
};
width = 244;
}
);
note = exclam;
unicode = 33;
},
{
glyphname = quotedbl;
layers = (
{
layerId = m01;
shapes = (
{
closed = 1;
nodes = (
(63,707,l),
(69,503,l),
(104,503,l),
(109,707,l)
);
},
{
closed = 1;
nodes = (
(189,707,l),
(196,503,l),
(231,503,l),
(236,707,l)
);
}
);
userData = {
assembly = "NPUSHB[ ]	/* 20 values pushed */
2 1 0 0 1 95 3 1 1 1 38 0 78 17 17 17 16 4 8 26 
CALL[ ]	/* CallFunction */";
};
width = 299;
}
);
note = quotedbl;
unicode = 34;
},
{
glyphname = quotesingle;
layers = (
{
layerId = m01;
shapes = (
{
closed = 1;
nodes = (
(63,707,l),
(69,503,l),
(104,503,l),
(109,707,l)
);
}
);
userData = {
assembly = "NPUSHB[ ]	/* 16 values pushed */
0 0 0 1 95 0 1 1 38 0 78 17 16 2 8 24 
CALL[ ]	/* CallFunction */";
};
width = 172;
}
);
note = quotesingle;
unicode = 39;
},
{
glyphname = numbersign;
layers = (
{
layerId = m01;
shapes = (
{
closed = 1;
nodes = (
(169,194,l),
(149,0,l),
(190,0,l),
(210,194,l),
(405,194,l),
(385,0,l),
(425,0,l),
(446,194,l),
(554,194,l),
(554,229,l),
(449,229,l),
(476,479,l),
(585,479,l),
(585,514,l),
(480,514,l),
(501,707,l),
(460,707,l),
(440,514,l),
(245,514,l),
(265,707,l),
(223,707,l),
(203,514,l),
(96,514,l),
(96,479,l),
(200,479,l),
(173,229,l),
(65,229,l),
(65,194,l)
);
},
{
closed = 1;
nodes = (
(436,479,l),
(410,229,l),
(214,229,l),
(240,479,l)
);
}
);
userData = {
assembly = "MPPEM[ ]	/* MeasurePixelPerEm */
PUSHB[ ]	/* 1 value pushed */
39 
LT[ ]	/* LessThan */
IF[ ]	/* If */
NPUSHB[ ]	/* 39 values pushed */
14 8 2 0 13 11 2 9 10 0 9 103 5 1 3 3 38 77 15 7 2 1 1 2 95 6 4 2 2 2 41 77 12 1 10 10 39 10 78 
ELSE[ ]	/* Else */
NPUSHB[ ]	/* 37 values pushed */
6 4 2 2 15 7 2 1 0 2 1 104 14 8 2 0 13 11 2 9 10 0 9 103 5 1 3 3 38 77 12 1 10 10 39 10 78 
EIF[ ]	/* EndIf */
NPUSHB[ ]	/* 26 values pushed */
31 30 29 28 27 26 25 24 23 22 21 20 19 18 17 17 17 17 17 17 17 17 16 16 8 31 
CALL[ ]	/* CallFunction */";
};
width = 650;
}
);
note = numbersign;
unicode = 35;
},
{
glyphname = percent;
layers = (
{
layerId = m01;
shapes = (
{
closed = 1;
nodes = (
(636,707,l),
(588,707,l),
(152,0,l),
(201,0,l)
);
},
{
closed = 1;
nodes = (
(274,452,o),
(307,491,o),
(324,543,o),
(324,572,qs),
(324,600,o),
(308,652,o),
(276,691,o),
(228,715,o),
(196,715,qs),
(131,715,o),
(65,634,o),
(65,572,qs),
(65,510,o),
(131,429,o),
(194,429,qs),
(225,429,o)
);
},
{
closed = 1;
nodes = (
(256,660,o),
(277,629,o),
(285,591,o),
(285,572,qs),
(285,552,o),
(277,514,o),
(256,483,o),
(222,464,o),
(196,464,qs),
(170,464,o),
(135,482,o),
(113,512,o),
(103,551,o),
(103,572,qs),
(103,593,o),
(113,632,o),
(135,662,o),
(170,680,o),
(196,680,qs),
(222,680,o)
);
},
{
closed = 1;
nodes = (
(673,15,o),
(706,54,o),
(723,106,o),
(723,135,qs),
(723,163,o),
(707,215,o),
(675,254,o),
(627,278,o),
(595,278,qs),
(530,278,o),
(464,197,o),
(464,135,qs),
(464,73,o),
(530,-8,o),
(593,-8,qs),
(624,-8,o)
);
},
{
closed = 1;
nodes = (
(655,223,o),
(676,192,o),
(684,154,o),
(684,135,qs),
(684,115,o),
(676,77,o),
(655,46,o),
(621,27,o),
(595,27,qs),
(569,27,o),
(534,45,o),
(512,75,o),
(502,114,o),
(502,135,qs),
(502,156,o),
(512,195,o),
(534,225,o),
(569,243,o),
(595,243,qs),
(621,243,o)
);
}
);
userData = {
assembly = "NPUSHB[ ]	/* 94 values pushed */
0 5 11 1 2 7 5 2 105 0 7 14 1 8 9 7 8 105 0 0 0 38 77 12 1 4 4 3 97 0 3 3 46 77 10 1 1 1 39 77 0 9 9 6 97 13 1 6 6 47 6 78 57 56 41 40 21 20 5 4 0 0 67 65 56 75 57 75 47 45 40 55 41 55 31 29 20 39 21 39 11 9 4 19 5 19 0 3 0 3 17 15 8 23 
CALL[ ]	/* CallFunction */";
};
width = 789;
}
);
note = percent;
unicode = 37;
},
{
glyphname = asterisk;
layers = (
{
layerId = m01;
shapes = (
{
closed = 1;
nodes = (
(187,739,l),
(187,629,l),
(82,663,l),
(73,635,l),
(178,603,l),
(112,513,l),
(137,497,l),
(202,586,l),
(267,497,l),
(292,513,l),
(227,602,l),
(331,635,l),
(321,663,l),
(218,629,l),
(218,739,l)
);
}
);
userData = {
assembly = "NPUSHB[ ]	/* 24 values pushed */
12 11 10 9 8 7 6 5 4 3 2 1 0 13 0 73 0 0 0 118 29 1 8 23 
CALL[ ]	/* CallFunction */";
};
width = 404;
}
);
note = asterisk;
unicode = 42;
},
{
glyphname = plus;
layers = (
{
layerId = m01;
shapes = (
{
closed = 1;
nodes = (
(231,374,l),
(80,374,l),
(80,336,l),
(231,336,l),
(231,171,l),
(274,171,l),
(274,336,l),
(428,336,l),
(428,374,l),
(274,374,l),
(274,536,l),
(231,536,l)
);
}
);
userData = {
assembly = "NPUSHB[ ]	/* 36 values pushed */
4 1 0 3 1 1 2 0 1 103 0 2 2 5 95 6 1 5 5 41 2 78 0 0 0 11 0 11 17 17 17 17 17 7 8 27 
CALL[ ]	/* CallFunction */";
};
width = 508;
}
);
note = plus;
unicode = 43;
},
{
glyphname = slash;
layers = (
{
layerId = m01;
shapes = (
{
closed = 1;
nodes = (
(86,-178,l),
(401,807,l),
(354,807,l),
(39,-178,l)
);
}
);
userData = {
assembly = "NPUSHB[ ]	/* 14 values pushed */
0 0 1 0 133 0 1 1 118 17 16 2 8 24 
CALL[ ]	/* CallFunction */";
};
width = 440;
}
);
note = slash;
unicode = 47;
},
{
glyphname = colon;
kernLeft = colon;
layers = (
{
layerId = m01;
shapes = (
{
closed = 1;
nodes = (
(73,427,o),
(73,409,qs),
(73,391,o),
(93,368,o),
(113,368,qs),
(133,368,o),
(153,391,o),
(153,409,qs),
(153,427,o),
(132,450,o),
(113,450,qs),
(94,450,o)
);
},
{
closed = 1;
nodes = (
(73,50,o),
(73,32,qs),
(73,15,o),
(94,-8,o),
(113,-8,qs),
(132,-8,o),
(153,15,o),
(153,32,qs),
(153,50,o),
(132,73,o),
(113,73,qs),
(94,73,o)
);
}
);
userData = {
assembly = "NPUSHB[ ]	/* 40 values pushed */
4 1 0 0 1 2 0 1 105 5 1 2 2 3 97 0 3 3 47 3 78 13 12 1 0 19 17 12 23 13 23 7 5 0 11 1 11 6 8 22 
CALL[ ]	/* CallFunction */";
};
width = 226;
}
);
note = colon;
unicode = 58;
},
{
glyphname = semicolon;
kernLeft = colon;
layers = (
{
layerId = m01;
shapes = (
{
closed = 1;
nodes = (
(75,427,o),
(75,409,qs),
(75,391,o),
(97,368,o),
(115,368,qs),
(135,368,o),
(157,391,o),
(157,409,qs),
(157,427,o),
(134,450,o),
(115,450,qs),
(97,450,o)
);
},
{
closed = 1;
nodes = (
(73,50,o),
(73,33,qs),
(73,19,o),
(84,2,o),
(100,-6,o),
(118,-8,o),
(124,-6,q),
(120,-36,o),
(86,-78,o),
(69,-88,q),
(84,-108,l),
(118,-89,o),
(159,-23,o),
(159,18,qs),
(159,38,o),
(140,73,o),
(115,73,qs),
(96,73,o)
);
}
);
userData = {
assembly = "NPUSHB[ ]	/* 45 values pushed */
19 18 2 3 73 4 1 0 0 1 2 0 1 105 5 1 2 2 3 97 0 3 3 50 3 78 13 12 1 0 24 22 12 29 13 29 7 5 0 11 1 11 6 8 22 
CALL[ ]	/* CallFunction */";
};
width = 230;
}
);
note = semicolon;
unicode = 59;
},
{
glyphname = less;
layers = (
{
layerId = m01;
shapes = (
{
closed = 1;
nodes = (
(354,126,l),
(354,170,l),
(91,351,l),
(354,532,l),
(354,575,l),
(45,361,l),
(45,339,l)
);
}
);
userData = {
assembly = "PUSHB[ ]	/* 4 values pushed */
5 1 1 50 
CALL[ ]	/* CallFunction */";
};
width = 429;
}
);
note = less;
unicode = 60;
},
{
glyphname = equal;
layers = (
{
layerId = m01;
shapes = (
{
closed = 1;
nodes = (
(454,203,l),
(454,240,l),
(75,240,l),
(75,203,l)
);
},
{
closed = 1;
nodes = (
(454,458,l),
(454,495,l),
(75,495,l),
(75,458,l)
);
}
);
userData = {
assembly = "NPUSHB[ ]	/* 31 values pushed */
0 2 0 3 0 2 3 103 0 0 1 1 0 87 0 0 0 1 95 0 1 0 1 79 17 17 17 16 4 8 26 
CALL[ ]	/* CallFunction */";
};
width = 529;
}
);
note = equal;
unicode = 61;
},
{
glyphname = greater;
layers = (
{
layerId = m01;
shapes = (
{
closed = 1;
nodes = (
(75,575,l),
(75,532,l),
(338,350,l),
(75,170,l),
(75,126,l),
(384,339,l),
(384,361,l)
);
}
);
userData = {
assembly = "PUSHB[ ]	/* 4 values pushed */
5 1 1 50 
CALL[ ]	/* CallFunction */";
};
width = 429;
}
);
note = greater;
unicode = 62;
},
{
glyphname = at;
layers = (
{
layerId = m01;
shapes = (
{
closed = 1;
nodes = (
(663,70,o),
(695,46,o),
(735,36,o),
(757,36,qs),
(806,36,o),
(870,81,o),
(909,155,o),
(925,247,o),
(925,294,qs),
(925,384,o),
(872,538,o),
(772,651,o),
(625,715,o),
(532,715,qs),
(425,715,o),
(257,641,o),
(140,510,o),
(77,333,o),
(76,231,qs),
(78,136,o),
(139,-17,o),
(247,-126,o),
(399,-186,o),
(492,-188,qs),
(513,-189,o),
(568,-188,o),
(593,-184,q),
(592,-144,l),
(570,-148,o),
(527,-149,o),
(504,-149,qs),
(417,-148,o),
(275,-92,o),
(176,8,o),
(122,148,o),
(122,232,qs),
(122,323,o),
(176,485,o),
(280,607,o),
(432,679,o),
(531,679,qs),
(621,679,o),
(755,617,o),
(843,509,o),
(887,366,o),
(887,287,qs),
(887,257,o),
(875,181,o),
(847,114,o),
(797,69,o),
(760,69,qs),
(732,69,o),
(697,89,o),
(679,123,o),
(674,165,o),
(675,188,qs),
(678,254,o),
(689,386,o),
(697,453,q),
(659,453,l),
(652,380,l),
(641,407,o),
(607,443,o),
(568,463,o),
(527,471,o),
(509,471,qs),
(459,471,o),
(383,431,o),
(333,364,o),
(308,277,o),
(308,231,qs),
(308,192,o),
(328,123,o),
(368,71,o),
(430,41,o),
(472,41,qs),
(493,41,o),
(539,49,o),
(583,71,o),
(624,109,o),
(641,139,q),
(643,110,o)
);
},
{
closed = 1;
nodes = (
(364,342,o),
(404,400,o),
(464,437,o),
(506,437,qs),
(543,437,o),
(596,408,o),
(629,360,o),
(644,299,o),
(644,267,qs),
(644,233,o),
(620,165,o),
(577,110,o),
(516,76,o),
(479,76,qs),
(444,76,o),
(393,102,o),
(360,145,o),
(345,202,o),
(345,233,qs),
(345,269,o)
);
}
);
userData = {
assembly = "MPPEM[ ]	/* MeasurePixelPerEm */
PUSHB[ ]	/* 1 value pushed */
46 
LT[ ]	/* LessThan */
IF[ ]	/* If */
NPUSHB[ ]	/* 15 values pushed */
20 0 2 9 10 53 1 5 0 54 1 6 5 3 76 
ELSE[ ]	/* Else */
NPUSHB[ ]	/* 15 values pushed */
20 0 2 9 10 53 1 5 8 54 1 6 5 3 76 
EIF[ ]	/* EndIf */
MPPEM[ ]	/* MeasurePixelPerEm */
PUSHB[ ]	/* 1 value pushed */
14 
LT[ ]	/* LessThan */
IF[ ]	/* If */
NPUSHB[ ]	/* 52 values pushed */
0 2 1 10 1 2 10 128 0 1 0 10 9 1 10 105 0 9 3 0 9 89 0 3 8 1 0 5 3 0 105 0 4 4 7 97 0 7 7 46 77 0 5 5 6 97 0 6 6 43 6 78 
ELSE[ ]	/* Else */
MPPEM[ ]	/* MeasurePixelPerEm */
PUSHB[ ]	/* 1 value pushed */
46 
LT[ ]	/* LessThan */
IF[ ]	/* If */
NPUSHB[ ]	/* 49 values pushed */
0 2 1 10 1 2 10 128 0 1 0 10 9 1 10 105 0 9 3 0 9 89 0 3 8 1 0 5 3 0 105 0 5 0 6 5 6 101 0 4 4 7 97 0 7 7 46 4 78 
ELSE[ ]	/* Else */
NPUSHB[ ]	/* 50 values pushed */
0 2 1 10 1 2 10 128 0 1 0 10 9 1 10 105 0 9 0 0 8 9 0 105 0 3 0 8 5 3 8 105 0 5 0 6 5 6 101 0 4 4 7 97 0 7 7 46 4 78 
EIF[ ]	/* EndIf */
EIF[ ]	/* EndIf */
NPUSHB[ ]	/* 16 values pushed */
98 96 88 86 40 40 51 56 40 39 21 40 36 11 8 31 
CALL[ ]	/* CallFunction */";
};
width = 1000;
}
);
note = at;
unicode = 64;
},
{
glyphname = bracketleft;
layers = (
{
layerId = m01;
shapes = (
{
closed = 1;
nodes = (
(259,-164,l),
(135,-164,l),
(135,762,l),
(259,762,l),
(259,796,l),
(93,796,l),
(93,-197,l),
(259,-197,l)
);
}
);
userData = {
assembly = "MPPEM[ ]	/* MeasurePixelPerEm */
PUSHB[ ]	/* 1 value pushed */
14 
LT[ ]	/* LessThan */
IF[ ]	/* If */
NPUSHB[ ]	/* 20 values pushed */
0 0 0 1 2 0 1 103 0 2 2 3 95 4 1 3 3 43 3 78 
ELSE[ ]	/* Else */
NPUSHB[ ]	/* 25 values pushed */
0 0 0 1 2 0 1 103 0 2 3 3 2 87 0 2 2 3 95 4 1 3 2 3 79 
EIF[ ]	/* EndIf */
NPUSHB[ ]	/* 12 values pushed */
0 0 0 7 0 7 17 17 17 5 8 25 
CALL[ ]	/* CallFunction */";
};
width = 300;
}
);
note = bracketleft;
unicode = 91;
},
{
glyphname = bracketright;
layers = (
{
layerId = m01;
shapes = (
{
closed = 1;
nodes = (
(41,762,l),
(164,762,l),
(164,-164,l),
(41,-164,l),
(41,-197,l),
(206,-197,l),
(206,796,l),
(41,796,l)
);
}
);
userData = {
assembly = "MPPEM[ ]	/* MeasurePixelPerEm */
PUSHB[ ]	/* 1 value pushed */
14 
LT[ ]	/* LessThan */
IF[ ]	/* If */
NPUSHB[ ]	/* 20 values pushed */
4 1 3 0 2 1 3 2 103 0 1 1 0 95 0 0 0 43 0 78 
ELSE[ ]	/* Else */
NPUSHB[ ]	/* 25 values pushed */
4 1 3 0 2 1 3 2 103 0 1 0 0 1 87 0 1 1 0 95 0 0 1 0 79 
EIF[ ]	/* EndIf */
NPUSHB[ ]	/* 12 values pushed */
0 0 0 7 0 7 17 17 17 5 8 25 
CALL[ ]	/* CallFunction */";
};
width = 299;
}
);
note = bracketright;
unicode = 93;
},
{
glyphname = backslash;
layers = (
{
layerId = m01;
shapes = (
{
closed = 1;
nodes = (
(354,-178,l),
(401,-178,l),
(86,807,l),
(39,807,l)
);
}
);
userData = {
assembly = "NPUSHB[ ]	/* 20 values pushed */
2 1 1 0 1 133 0 0 0 118 0 0 0 3 0 3 17 3 8 23 
CALL[ ]	/* CallFunction */";
};
width = 440;
}
);
note = backslash;
unicode = 92;
},
{
glyphname = asciicircum;
layers = (
{
layerId = m01;
shapes = (
{
closed = 1;
nodes = (
(337,546,l),
(216,715,l),
(184,715,l),
(64,546,l),
(100,546,l),
(200,691,l),
(301,546,l)
);
}
);
userData = {
assembly = "PUSHB[ ]	/* 2 values pushed */
6 100 
WCVTP[ ]	/* WriteCVTInPixels */
NPUSHB[ ]	/* 16 values pushed */
0 1 0 1 133 2 1 0 0 118 17 17 17 3 8 25 
CALL[ ]	/* CallFunction */
PUSHB[ ]	/* 2 values pushed */
6 0 
WCVTP[ ]	/* WriteCVTInPixels */";
};
width = 400;
}
);
note = asciicircum;
unicode = 94;
},
{
glyphname = underscore;
layers = (
{
layerId = m01;
shapes = (
{
closed = 1;
nodes = (
(452,-188,l),
(452,-151,l),
(3,-151,l),
(3,-188,l)
);
}
);
userData = {
assembly = "PUSHB[ ]	/* 2 values pushed */
6 100 
WCVTP[ ]	/* WriteCVTInPixels */
NPUSHB[ ]	/* 21 values pushed */
0 0 1 1 0 87 0 0 0 1 95 0 1 0 1 79 17 16 2 8 24 
CALL[ ]	/* CallFunction */
PUSHB[ ]	/* 2 values pushed */
6 0 
WCVTP[ ]	/* WriteCVTInPixels */";
};
width = 455;
}
);
note = underscore;
unicode = 95;
},
{
glyphname = braceleft;
layers = (
{
layerId = m01;
shapes = (
{
closed = 1;
nodes = (
(182,170,o),
(176,216,o),
(160,258,o),
(128,291,o),
(103,300,q),
(128,312,o),
(159,346,o),
(176,387,o),
(182,432,o),
(182,455,qs),
(182,662,ls),
(182,684,o),
(182,721,o),
(192,747,o),
(220,761,o),
(247,761,qs),
(306,761,l),
(306,796,l),
(248,796,ls),
(197,796,o),
(147,759,o),
(147,706,qs),
(147,470,ls),
(147,441,o),
(140,387,o),
(117,345,o),
(76,316,o),
(43,312,q),
(43,287,l),
(77,282,o),
(118,253,o),
(140,210,o),
(147,156,o),
(147,127,qs),
(147,-106,ls),
(147,-159,o),
(198,-197,o),
(248,-197,qs),
(306,-197,l),
(306,-162,l),
(256,-162,ls),
(232,-162,o),
(203,-155,o),
(187,-135,o),
(182,-98,o),
(182,-68,qs),
(182,149,ls)
);
}
);
userData = {
assembly = "PUSHB[ ]	/* 8 values pushed */
41 18 17 3 0 3 1 76 
MPPEM[ ]	/* MeasurePixelPerEm */
PUSHB[ ]	/* 1 value pushed */
14 
LT[ ]	/* LessThan */
IF[ ]	/* If */
NPUSHB[ ]	/* 19 values pushed */
0 2 0 3 0 2 3 105 0 0 0 1 97 0 1 1 43 1 78 
ELSE[ ]	/* Else */
NPUSHB[ ]	/* 24 values pushed */
0 2 0 3 0 2 3 105 0 0 1 1 0 89 0 0 0 1 97 0 1 0 1 81 
EIF[ ]	/* EndIf */
NPUSHB[ ]	/* 9 values pushed */
31 29 28 26 33 36 4 8 24 
CALL[ ]	/* CallFunction */";
};
width = 371;
}
);
note = braceleft;
unicode = 123;
},
{
glyphname = bar;
layers = (
{
layerId = m01;
shapes = (
{
closed = 1;
nodes = (
(135,807,l),
(93,807,l),
(93,-178,l),
(135,-178,l)
);
}
);
userData = {
assembly = "NPUSHB[ ]	/* 20 values pushed */
0 0 1 0 133 2 1 1 1 118 0 0 0 3 0 3 17 3 8 23 
CALL[ ]	/* CallFunction */";
};
width = 228;
}
);
note = bar;
unicode = 124;
},
{
glyphname = braceright;
layers = (
{
layerId = m01;
shapes = (
{
closed = 1;
nodes = (
(189,429,o),
(195,383,o),
(211,341,o),
(242,308,o),
(268,299,q),
(243,287,o),
(212,253,o),
(195,212,o),
(189,167,o),
(189,144,qs),
(189,-63,ls),
(189,-86,o),
(189,-122,o),
(179,-148,o),
(151,-162,o),
(124,-162,qs),
(65,-162,l),
(65,-197,l),
(123,-197,ls),
(174,-197,o),
(224,-160,o),
(224,-107,qs),
(224,129,ls),
(224,158,o),
(231,212,o),
(254,254,o),
(295,283,o),
(328,287,q),
(328,312,l),
(294,316,o),
(253,346,o),
(231,389,o),
(224,443,o),
(224,472,qs),
(224,705,ls),
(224,758,o),
(173,796,o),
(123,796,qs),
(65,796,l),
(65,761,l),
(115,761,ls),
(139,761,o),
(168,754,o),
(184,734,o),
(189,697,o),
(189,667,qs),
(189,450,ls)
);
}
);
userData = {
assembly = "PUSHB[ ]	/* 8 values pushed */
41 18 17 3 3 0 1 76 
MPPEM[ ]	/* MeasurePixelPerEm */
PUSHB[ ]	/* 1 value pushed */
14 
LT[ ]	/* LessThan */
IF[ ]	/* If */
NPUSHB[ ]	/* 19 values pushed */
0 1 0 0 3 1 0 105 0 3 3 2 97 0 2 2 43 2 78 
ELSE[ ]	/* Else */
NPUSHB[ ]	/* 24 values pushed */
0 1 0 0 3 1 0 105 0 3 2 2 3 89 0 3 3 2 97 0 2 3 2 81 
EIF[ ]	/* EndIf */
NPUSHB[ ]	/* 9 values pushed */
31 29 28 26 33 36 4 8 24 
CALL[ ]	/* CallFunction */";
};
width = 371;
}
);
note = braceright;
unicode = 125;
},
{
glyphname = Euro;
layers = (
{
layerId = m01;
shapes = (
{
closed = 1;
nodes = (
(584,18,o),
(621,48,q),
(598,79,l),
(563,52,o),
(489,28,o),
(443,28,qs),
(347,28,o),
(221,141,o),
(201,240,q),
(498,240,l),
(505,278,l),
(196,278,l),
(193,294,o),
(191,335,o),
(191,377,o),
(194,417,o),
(196,433,q),
(533,433,l),
(539,470,l),
(203,470,l),
(214,515,o),
(256,592,o),
(314,648,o),
(390,679,o),
(435,679,qs),
(480,679,o),
(553,658,o),
(589,633,q),
(608,665,l),
(537,715,o),
(438,715,qs),
(325,715,o),
(187,582,o),
(160,470,q),
(63,470,l),
(56,433,l),
(154,433,l),
(149,393,o),
(147,320,o),
(152,278,q),
(62,278,l),
(55,240,l),
(156,240,l),
(179,123,o),
(321,-8,o),
(439,-8,qs),
(487,-8,o)
);
}
);
userData = {
assembly = "NPUSHB[ ]	/* 85 values pushed */
18 17 2 4 6 44 43 2 11 1 2 76 7 1 4 8 1 3 2 4 3 103 9 1 2 10 1 1 11 2 1 103 0 6 6 5 97 0 5 5 46 77 0 11 11 0 97 12 1 0 0 47 0 78 1 0 41 39 37 36 35 34 29 28 27 26 22 20 16 14 12 11 10 9 6 5 4 3 0 46 1 46 13 8 22 
CALL[ ]	/* CallFunction */";
};
width = 674;
}
);
note = Euro;
unicode = 8364;
},
{
glyphname = quotedblbase;
kernLeft = period;
kernRight = period;
layers = (
{
layerId = m01;
shapes = (
{
closed = 1;
nodes = (
(73,50,o),
(73,33,qs),
(73,19,o),
(84,2,o),
(100,-6,o),
(118,-8,o),
(124,-6,q),
(120,-36,o),
(86,-78,o),
(69,-88,q),
(84,-108,l),
(118,-89,o),
(159,-23,o),
(159,18,qs),
(159,38,o),
(140,73,o),
(115,73,qs),
(96,73,o)
);
},
{
closed = 1;
nodes = (
(223,50,o),
(223,33,qs),
(223,19,o),
(234,2,o),
(250,-6,o),
(268,-8,o),
(274,-6,q),
(270,-36,o),
(236,-78,o),
(219,-88,q),
(234,-108,l),
(268,-89,o),
(309,-23,o),
(309,18,qs),
(309,38,o),
(290,73,o),
(265,73,qs),
(246,73,o)
);
}
);
userData = {
assembly = "NPUSHB[ ]	/* 41 values pushed */
25 24 7 6 4 1 73 5 2 4 3 0 0 1 97 3 1 1 1 50 1 78 19 18 1 0 30 28 18 35 19 35 12 10 0 17 1 17 6 8 22 
CALL[ ]	/* CallFunction */";
};
width = 383;
}
);
note = quotedblbase;
unicode = 8222;
},
{
glyphname = quotesinglbase;
layers = (
{
layerId = m01;
shapes = (
{
closed = 1;
nodes = (
(73,50,o),
(73,33,qs),
(73,19,o),
(84,2,o),
(100,-6,o),
(118,-8,o),
(124,-6,q),
(120,-36,o),
(86,-78,o),
(69,-88,q),
(84,-108,l),
(118,-89,o),
(159,-23,o),
(159,18,qs),
(159,38,o),
(140,73,o),
(115,73,qs),
(96,73,o)
);
}
);
userData = {
assembly = "NPUSHB[ ]	/* 28 values pushed */
7 6 2 1 73 2 1 0 0 1 97 0 1 1 50 1 78 1 0 12 10 0 17 1 17 3 8 22 
CALL[ ]	/* CallFunction */";
};
width = 231;
}
);
note = quotesinglbase;
unicode = 8218;
},
{
glyphname = quotedblright;
layers = (
{
layerId = m01;
shapes = (
{
closed = 1;
nodes = (
(73,709,o),
(73,692,qs),
(73,678,o),
(84,661,o),
(100,653,o),
(118,651,o),
(124,653,q),
(120,623,o),
(86,581,o),
(69,571,q),
(84,551,l),
(118,570,o),
(159,636,o),
(159,677,qs),
(159,697,o),
(140,732,o),
(115,732,qs),
(96,732,o)
);
},
{
closed = 1;
nodes = (
(223,709,o),
(223,692,qs),
(223,678,o),
(234,661,o),
(250,653,o),
(268,651,o),
(274,653,q),
(270,623,o),
(236,581,o),
(219,571,q),
(234,551,l),
(268,570,o),
(309,636,o),
(309,677,qs),
(309,697,o),
(290,732,o),
(265,732,qs),
(246,732,o)
);
}
);
userData = {
assembly = "PUSHB[ ]	/* 7 values pushed */
25 24 7 6 4 1 73 
MPPEM[ ]	/* MeasurePixelPerEm */
PUSHB[ ]	/* 1 value pushed */
41 
LT[ ]	/* LessThan */
IF[ ]	/* If */
NPUSHB[ ]	/* 15 values pushed */
3 1 1 1 0 97 5 2 4 3 0 0 48 1 78 
ELSE[ ]	/* Else */
NPUSHB[ ]	/* 23 values pushed */
5 2 4 3 0 1 1 0 89 5 2 4 3 0 0 1 97 3 1 1 0 1 81 
EIF[ ]	/* EndIf */
NPUSHB[ ]	/* 19 values pushed */
19 18 1 0 30 28 18 35 19 35 12 10 0 17 1 17 6 8 22 
CALL[ ]	/* CallFunction */";
};
width = 383;
}
);
note = quotedblright;
unicode = 8221;
},
{
glyphname = quoteright;
layers = (
{
layerId = m01;
shapes = (
{
closed = 1;
nodes = (
(73,709,o),
(73,692,qs),
(73,678,o),
(84,661,o),
(100,653,o),
(118,651,o),
(124,653,q),
(120,623,o),
(86,581,o),
(69,571,q),
(84,551,l),
(118,570,o),
(159,636,o),
(159,677,qs),
(159,703,o),
(135,732,o),
(115,732,qs),
(96,732,o)
);
}
);
userData = {
assembly = "PUSHB[ ]	/* 5 values pushed */
7 6 2 1 73 
MPPEM[ ]	/* MeasurePixelPerEm */
PUSHB[ ]	/* 1 value pushed */
41 
LT[ ]	/* LessThan */
IF[ ]	/* If */
NPUSHB[ ]	/* 12 values pushed */
0 1 1 0 97 2 1 0 0 48 1 78 
ELSE[ ]	/* Else */
NPUSHB[ ]	/* 18 values pushed */
2 1 0 1 1 0 89 2 1 0 0 1 97 0 1 0 1 81 
EIF[ ]	/* EndIf */
NPUSHB[ ]	/* 11 values pushed */
1 0 12 10 0 17 1 17 3 8 22 
CALL[ ]	/* CallFunction */";
};
width = 232;
}
);
note = quoteright;
unicode = 8217;
},
{
glyphname = quotedblleft;
layers = (
{
layerId = m01;
shapes = (
{
closed = 1;
nodes = (
(309,574,o),
(309,591,qs),
(309,605,o),
(298,622,o),
(282,630,o),
(264,631,o),
(258,630,q),
(262,660,o),
(296,702,o),
(313,712,q),
(298,732,l),
(264,713,o),
(223,647,o),
(223,606,qs),
(223,586,o),
(242,551,o),
(267,551,qs),
(286,551,o)
);
},
{
closed = 1;
nodes = (
(159,574,o),
(159,591,qs),
(159,605,o),
(148,622,o),
(132,630,o),
(114,631,o),
(108,630,q),
(112,660,o),
(146,702,o),
(163,712,q),
(148,732,l),
(114,713,o),
(73,647,o),
(73,606,qs),
(73,586,o),
(92,551,o),
(117,551,qs),
(136,551,o)
);
}
);
userData = {
assembly = "NPUSHB[ ]	/* 47 values pushed */
25 24 7 6 4 1 74 3 1 1 0 0 1 89 3 1 1 1 0 97 5 2 4 3 0 1 0 81 19 18 1 0 30 28 18 35 19 35 12 10 0 17 1 17 6 8 22 
CALL[ ]	/* CallFunction */";
};
width = 387;
}
);
note = quotedblleft;
unicode = 8220;
},
{
glyphname = quoteleft;
layers = (
{
layerId = m01;
shapes = (
{
closed = 1;
nodes = (
(159,574,o),
(159,591,qs),
(159,605,o),
(148,622,o),
(132,630,o),
(114,631,o),
(108,630,q),
(112,660,o),
(146,702,o),
(163,712,q),
(148,732,l),
(114,713,o),
(73,647,o),
(73,606,qs),
(73,586,o),
(92,551,o),
(117,551,qs),
(136,551,o)
);
}
);
userData = {
assembly = "NPUSHB[ ]	/* 33 values pushed */
7 6 2 1 74 0 1 0 0 1 89 0 1 1 0 97 2 1 0 1 0 81 1 0 12 10 0 17 1 17 3 8 22 
CALL[ ]	/* CallFunction */";
};
width = 233;
}
);
note = quoteleft;
unicode = 8216;
},
{
glyphname = minus;
layers = (
{
layerId = m01;
shapes = (
{
closed = 1;
nodes = (
(80,336,l),
(428,336,l),
(428,374,l),
(80,374,l)
);
}
);
userData = {
assembly = "NPUSHB[ ]	/* 28 values pushed */
2 1 1 0 0 1 87 2 1 1 1 0 95 0 0 1 0 79 0 0 0 3 0 3 17 3 6 23 
CALL[ ]	/* CallFunction */";
};
width = 508;
}
);
note = minus;
unicode = 8722;
},
{
glyphname = hyphen;
layers = (
{
layerId = m01;
shapes = (
{
closed = 1;
nodes = (
(360,260,l),
(360,297,l),
(80,297,l),
(80,260,l)
);
}
);
userData = {
assembly = "NPUSHB[ ]	/* 21 values pushed */
0 0 1 1 0 87 0 0 0 1 95 0 1 0 1 79 17 16 2 8 24 
CALL[ ]	/* CallFunction */";
};
width = 440;
}
);
note = hyphen;
unicode = 45;
},
{
glyphname = endash;
layers = (
{
layerId = m01;
shapes = (
{
closed = 1;
nodes = (
(80,297,l),
(80,260,l),
(488,260,l),
(488,297,l)
);
}
);
userData = {
assembly = "NPUSHB[ ]	/* 21 values pushed */
0 1 0 0 1 87 0 1 1 0 95 0 0 1 0 79 17 16 2 8 24 
CALL[ ]	/* CallFunction */";
};
width = 568;
}
);
note = endash;
unicode = 8211;
},
{
glyphname = emdash;
layers = (
{
layerId = m01;
shapes = (
{
closed = 1;
nodes = (
(80,297,l),
(80,260,l),
(681,260,l),
(681,297,l)
);
}
);
userData = {
assembly = "NPUSHB[ ]	/* 21 values pushed */
0 1 0 0 1 87 0 1 1 0 95 0 0 1 0 79 17 16 2 8 24 
CALL[ ]	/* CallFunction */";
};
width = 761;
}
);
note = emdash;
unicode = 8212;
},
{
glyphname = grave;
layers = (
{
layerId = m01;
shapes = (
{
closed = 1;
nodes = (
(143,636,l),
(181,636,l),
(105,763,l),
(55,763,l)
);
}
);
userData = {
assembly = "PUSHB[ ]	/* 2 values pushed */
6 100 
WCVTP[ ]	/* WriteCVTInPixels */
NPUSHB[ ]	/* 20 values pushed */
2 1 1 0 1 133 0 0 0 118 0 0 0 3 0 3 17 3 8 23 
CALL[ ]	/* CallFunction */
PUSHB[ ]	/* 2 values pushed */
6 0 
WCVTP[ ]	/* WriteCVTInPixels */";
};
width = 285;
}
);
note = grave;
unicode = 96;
},
{
glyphname = acute;
layers = (
{
layerId = m01;
shapes = (
{
closed = 1;
nodes = (
(111,636,l),
(149,636,l),
(237,763,l),
(187,763,l)
);
}
);
userData = {
assembly = "PUSHB[ ]	/* 2 values pushed */
6 100 
WCVTP[ ]	/* WriteCVTInPixels */
NPUSHB[ ]	/* 20 values pushed */
2 1 1 0 1 133 0 0 0 118 0 0 0 3 0 3 17 3 8 23 
CALL[ ]	/* CallFunction */
PUSHB[ ]	/* 2 values pushed */
6 0 
WCVTP[ ]	/* WriteCVTInPixels */";
};
width = 285;
}
);
note = acute;
unicode = 180;
},
{
glyphname = guillemotright;
layers = (
{
layerId = m01;
shapes = (
{
closed = 1;
nodes = (
(63,97,l),
(103,97,l),
(211,259,l),
(103,419,l),
(62,419,l),
(170,258,l)
);
},
{
closed = 1;
nodes = (
(250,97,l),
(290,97,l),
(398,259,l),
(290,419,l),
(249,419,l),
(358,258,l)
);
}
);
userData = {
assembly = "NPUSHB[ ]	/* 35 values pushed */
11 8 5 2 4 1 0 1 76 2 1 0 1 1 0 87 2 1 0 0 1 95 3 1 1 0 1 79 18 18 18 16 4 8 26 
CALL[ ]	/* CallFunction */";
};
width = 443;
}
);
note = guillemotright;
unicode = 187;
},
{
glyphname = guilsinglright;
layers = (
{
layerId = m01;
shapes = (
{
closed = 1;
nodes = (
(63,97,l),
(103,97,l),
(211,259,l),
(103,419,l),
(63,419,l),
(169,258,l)
);
}
);
userData = {
assembly = "NPUSHB[ ]	/* 28 values pushed */
5 2 2 1 0 1 76 0 0 1 1 0 87 0 0 0 1 95 0 1 0 1 79 18 16 2 8 24 
CALL[ ]	/* CallFunction */";
};
width = 256;
}
);
note = guilsinglright;
unicode = 8250;
},
{
glyphname = guillemotleft;
layers = (
{
layerId = m01;
shapes = (
{
closed = 1;
nodes = (
(381,419,l),
(340,419,l),
(232,257,l),
(340,97,l),
(380,97,l),
(273,258,l)
);
},
{
closed = 1;
nodes = (
(194,419,l),
(153,419,l),
(45,257,l),
(153,97,l),
(193,97,l),
(85,258,l)
);
}
);
userData = {
assembly = "NPUSHB[ ]	/* 35 values pushed */
11 8 5 2 4 0 1 1 76 3 1 1 0 0 1 87 3 1 1 1 0 95 2 1 0 1 0 79 18 18 18 16 4 8 26 
CALL[ ]	/* CallFunction */";
};
width = 443;
}
);
note = guillemotleft;
unicode = 171;
},
{
glyphname = guilsinglleft;
layers = (
{
layerId = m01;
shapes = (
{
closed = 1;
nodes = (
(193,419,l),
(153,419,l),
(45,257,l),
(153,97,l),
(193,97,l),
(86,258,l)
);
}
);
userData = {
assembly = "NPUSHB[ ]	/* 28 values pushed */
5 2 2 0 1 1 76 0 1 0 0 1 87 0 1 1 0 95 0 0 1 0 79 18 16 2 8 24 
CALL[ ]	/* CallFunction */";
};
width = 256;
}
);
note = guilsinglleft;
unicode = 8249;
},
{
glyphname = uni00AD;
layers = (
{
layerId = m01;
shapes = (
{
closed = 1;
nodes = (
(360,260,l),
(360,297,l),
(80,297,l),
(80,260,l)
);
}
);
userData = {
assembly = "NPUSHB[ ]	/* 21 values pushed */
0 0 1 1 0 87 0 0 0 1 95 0 1 0 1 79 17 16 2 8 24 
CALL[ ]	/* CallFunction */";
};
width = 440;
}
);
note = uni00AD;
unicode = 173;
},
{
glyphname = ellipsis;
layers = (
{
layerId = m01;
shapes = (
{
closed = 1;
nodes = (
(74,50,o),
(74,32,qs),
(74,15,o),
(95,-8,o),
(114,-8,qs),
(133,-8,o),
(154,15,o),
(154,32,qs),
(154,50,o),
(133,73,o),
(114,73,qs),
(95,73,o)
);
},
{
closed = 1;
nodes = (
(294,50,o),
(294,32,qs),
(294,15,o),
(315,-8,o),
(334,-8,qs),
(353,-8,o),
(374,15,o),
(374,32,qs),
(374,50,o),
(353,73,o),
(334,73,qs),
(315,73,o)
);
},
{
closed = 1;
nodes = (
(514,50,o),
(514,32,qs),
(514,15,o),
(535,-8,o),
(554,-8,qs),
(573,-8,o),
(594,15,o),
(594,32,qs),
(594,50,o),
(573,73,o),
(554,73,qs),
(535,73,o)
);
}
);
userData = {
assembly = "NPUSHB[ ]	/* 45 values pushed */
8 4 7 2 6 5 0 0 1 97 5 3 2 1 1 47 1 78 25 24 13 12 1 0 31 29 24 35 25 35 19 17 12 23 13 23 7 5 0 11 1 11 9 8 22 
CALL[ ]	/* CallFunction */";
};
width = 668;
}
);
note = ellipsis;
unicode = 8230;
},
{
glyphname = uni0445;
layers = (
{
layerId = m01;
shapes = (
{
closed = 1;
nodes = (
(465,0,l),
(273,271,l),
(452,527,l),
(400,527,l),
(244,296,l),
(86,527,l),
(34,527,l),
(213,268,l),
(20,0,l),
(72,0,l),
(242,239,l),
(412,0,l)
);
}
);
userData = {
assembly = "NPUSHB[ ]	/* 28 values pushed */
9 6 3 3 0 1 1 76 2 1 1 1 22 77 3 1 0 0 21 0 78 18 18 18 17 4 7 26 
CALL[ ]	/* CallFunction */";
};
width = 485;
}
);
note = uni0445;
unicode = 1093;
},
{
glyphname = uni0431;
layers = (
{
layerId = m01;
shapes = (
{
closed = 1;
nodes = (
(90,421,o),
(98,484,o),
(113,546,o),
(128,573,qs),
(142,598,o),
(181,632,o),
(228,653,o),
(282,665,o),
(311,668,qs),
(340,672,o),
(397,677,o),
(429,680,qs),
(448,682,o),
(489,686,o),
(508,691,q),
(508,730,l),
(491,727,o),
(456,721,o),
(441,719,qs),
(396,714,o),
(302,705,o),
(251,695,qs),
(185,682,o),
(105,618,o),
(63,527,o),
(50,415,o),
(50,354,qs),
(50,292,o),
(64,164,o),
(114,59,o),
(208,-7,o),
(288,-7,qs),
(344,-7,o),
(433,31,o),
(494,99,o),
(527,191,o),
(527,245,qs),
(527,296,o),
(498,383,o),
(442,447,o),
(360,484,o),
(307,484,qs),
(281,484,o),
(220,473,o),
(160,442,o),
(106,387,o),
(88,343,q),
(89,364,o)
);
},
{
closed = 1;
nodes = (
(172,63,o),
(125,120,o),
(101,197,o),
(101,241,qs),
(101,282,o),
(130,356,o),
(183,413,o),
(254,446,o),
(296,446,qs),
(341,446,o),
(412,415,o),
(460,361,o),
(485,287,o),
(485,243,qs),
(485,199,o),
(459,122,o),
(410,63,o),
(337,29,o),
(290,29,qs),
(243,29,o)
);
}
);
userData = {
assembly = "NPUSHB[ ]	/* 44 values pushed */
0 1 2 3 1 76 32 31 2 0 74 0 0 0 3 2 0 3 105 4 1 2 2 1 97 0 1 1 30 1 78 49 48 59 57 48 67 49 67 40 36 5 7 24 
CALL[ ]	/* CallFunction */";
};
width = 576;
}
);
note = uni0431;
unicode = 1073;
},
{
glyphname = uni0432;
kernLeft = uni0432;
layers = (
{
layerId = m01;
shapes = (
{
closed = 1;
nodes = (
(311,0,ls),
(346,0,o),
(412,16,o),
(463,50,o),
(493,106,o),
(493,147,qs),
(493,200,o),
(431,268,o),
(369,279,q),
(397,288,o),
(434,319,o),
(454,355,o),
(461,392,o),
(460,407,qs),
(458,446,o),
(422,493,o),
(368,518,o),
(304,527,o),
(275,527,qs),
(73,527,l),
(73,0,l)
);
},
{
closed = 1;
nodes = (
(290,493,o),
(345,487,o),
(390,466,o),
(418,427,o),
(418,393,qs),
(418,363,o),
(387,322,o),
(340,298,o),
(284,287,o),
(258,287,qs),
(115,287,l),
(115,493,l),
(264,493,ls)
);
},
{
closed = 1;
nodes = (
(273,253,ls),
(302,253,o),
(365,247,o),
(417,224,o),
(451,179,o),
(451,140,qs),
(451,106,o),
(421,65,o),
(375,42,o),
(319,34,o),
(293,34,qs),
(115,34,l),
(115,253,l)
);
}
);
userData = {
assembly = "NPUSHB[ ]	/* 54 values pushed */
11 1 5 2 1 76 0 2 0 5 4 2 5 103 6 1 3 3 0 95 0 0 0 22 77 0 4 4 1 95 0 1 1 21 1 78 21 21 46 44 36 34 21 33 21 32 24 22 20 18 32 7 7 23 
CALL[ ]	/* CallFunction */";
};
width = 548;
}
);
note = uni0432;
unicode = 1074;
},
{
glyphname = uni0433;
kernLeft = uni0432;
kernRight = uni0433;
layers = (
{
layerId = m01;
shapes = (
{
closed = 1;
nodes = (
(115,492,l),
(423,492,l),
(423,527,l),
(73,527,l),
(73,0,l),
(115,0,l)
);
}
);
userData = {
assembly = "NPUSHB[ ]	/* 28 values pushed */
0 1 1 0 95 0 0 0 22 77 3 1 2 2 21 2 78 0 0 0 5 0 5 17 17 4 7 24 
CALL[ ]	/* CallFunction */";
};
width = 452;
}
);
note = uni0433;
unicode = 1075;
},
{
glyphname = uni0434;
kernRight = uni0434;
layers = (
{
layerId = m01;
shapes = (
{
closed = 1;
nodes = (
(143,481,o),
(142,389,o),
(141,343,qs),
(141,328,o),
(140,285,o),
(137,237,o),
(130,185,o),
(124,160,qs),
(111,110,o),
(64,42,o),
(25,34,q),
(25,-176,l),
(67,-176,l),
(67,0,l),
(535,0,l),
(535,-176,l),
(577,-176,l),
(577,34,l),
(502,34,l),
(502,527,l),
(143,527,l)
);
},
{
closed = 1;
nodes = (
(106,34,l),
(131,61,o),
(161,130,o),
(176,206,o),
(180,286,o),
(181,325,qs),
(182,367,o),
(183,451,o),
(184,493,q),
(460,493,l),
(460,34,l)
);
}
);
userData = {
assembly = "NPUSHB[ ]	/* 51 values pushed */
9 1 0 1 75 3 1 1 2 1 134 0 5 5 4 95 7 1 4 4 22 77 6 1 0 0 2 95 0 2 2 21 2 78 0 0 31 30 22 21 0 20 0 20 17 17 17 17 8 7 26 
CALL[ ]	/* CallFunction */";
};
width = 602;
}
);
note = uni0434;
unicode = 1076;
},
{
glyphname = uni0436;
layers = (
{
layerId = m01;
shapes = (
{
closed = 1;
nodes = (
(391,247,l),
(521,247,l),
(673,0,l),
(721,0,l),
(551,277,l),
(705,527,l),
(657,527,l),
(508,282,l),
(391,282,l),
(391,527,l),
(349,527,l),
(349,282,l),
(232,282,l),
(84,527,l),
(36,527,l),
(189,277,l),
(20,0,l),
(68,0,l),
(220,247,l),
(349,247,l),
(349,0,l),
(391,0,l)
);
}
);
userData = {
assembly = "NPUSHB[ ]	/* 51 values pushed */
16 5 2 0 3 1 76 5 1 3 8 1 0 1 3 0 103 6 4 2 2 2 22 77 10 9 7 3 1 1 21 1 78 0 0 0 21 0 21 17 18 17 17 17 17 18 17 17 11 7 31 
CALL[ ]	/* CallFunction */";
};
width = 741;
}
);
note = uni0436;
unicode = 1078;
},
{
glyphname = uni043A;
kernLeft = uni0432;
layers = (
{
layerId = m01;
shapes = (
{
closed = 1;
nodes = (
(115,246,l),
(260,246,l),
(438,0,l),
(486,0,l),
(292,273,l),
(468,527,l),
(421,527,l),
(252,281,l),
(115,281,l),
(115,527,l),
(73,527,l),
(73,0,l),
(115,0,l)
);
}
);
userData = {
assembly = "NPUSHB[ ]	/* 42 values pushed */
7 1 4 1 1 76 0 1 0 4 3 1 4 103 2 1 0 0 22 77 6 5 2 3 3 21 3 78 0 0 0 12 0 12 17 18 17 17 17 7 7 27 
CALL[ ]	/* CallFunction */";
};
width = 499;
}
);
note = uni043A;
unicode = 1082;
},
{
glyphname = uni0438;
kernLeft = uni0432;
layers = (
{
layerId = m01;
shapes = (
{
closed = 1;
nodes = (
(466,0,l),
(508,0,l),
(508,527,l),
(442,527,l),
(115,36,l),
(115,527,l),
(73,527,l),
(73,0,l),
(140,0,l),
(466,492,l)
);
}
);
userData = {
assembly = "NPUSHB[ ]	/* 27 values pushed */
9 4 2 0 1 1 76 2 1 1 1 22 77 3 1 0 0 21 0 78 17 18 17 16 4 7 26 
CALL[ ]	/* CallFunction */";
};
width = 581;
}
);
note = uni0438;
unicode = 1080;
},
{
glyphname = uni0439;
layers = (
{
layerId = m01;
shapes = (
{
closed = 1;
nodes = (
(235,669,o),
(201,685,o),
(176,715,o),
(170,738,q),
(132,738,l),
(137,709,o),
(167,668,o),
(209,643,o),
(262,632,o),
(290,632,qs),
(318,632,o),
(372,643,o),
(416,668,o),
(448,709,o),
(454,738,q),
(415,738,l),
(409,715,o),
(383,685,o),
(349,669,o),
(310,663,o),
(292,663,qs),
(274,663,o)
);
},
{
closed = 1;
nodes = (
(466,0,l),
(508,0,l),
(508,527,l),
(442,527,l),
(115,36,l),
(115,527,l),
(73,527,l),
(73,0,l),
(140,0,l),
(466,492,l)
);
}
);
userData = {
assembly = "NPUSHB[ ]	/* 58 values pushed */
31 26 2 4 5 1 76 3 1 1 0 1 133 8 1 0 0 2 5 0 2 105 6 1 5 5 22 77 7 1 4 4 21 4 78 1 0 30 29 28 27 25 24 23 22 17 16 12 10 6 5 0 21 1 21 9 7 22 
CALL[ ]	/* CallFunction */";
};
width = 581;
}
);
note = uni0439;
unicode = 1081;
},
{
glyphname = uni043B;
layers = (
{
layerId = m01;
shapes = (
{
closed = 1;
nodes = (
(143,492,o),
(141,415,o),
(139,337,o),
(136,259,o),
(134,225,qs),
(132,189,o),
(121,123,o),
(96,72,o),
(56,40,o),
(25,37,q),
(25,-4,l),
(72,-1,o),
(130,43,o),
(162,111,o),
(174,193,o),
(176,234,qs),
(178,297,o),
(183,423,o),
(185,493,q),
(453,493,l),
(453,0,l),
(495,0,l),
(495,527,l),
(144,527,l)
);
}
);
userData = {
assembly = "NPUSHB[ ]	/* 36 values pushed */
13 1 0 1 1 76 0 1 1 3 95 4 1 3 3 22 77 2 1 0 0 21 0 78 0 0 0 23 0 23 23 17 17 5 7 25 
CALL[ ]	/* CallFunction */";
};
width = 568;
}
);
note = uni043B;
unicode = 1083;
},
{
glyphname = uni043C;
kernLeft = uni0432;
layers = (
{
layerId = m01;
shapes = (
{
closed = 1;
nodes = (
(115,0,l),
(115,492,l),
(339,139,l),
(353,139,l),
(577,492,l),
(577,0,l),
(619,0,l),
(619,527,l),
(552,527,l),
(347,201,l),
(142,527,l),
(73,527,l),
(73,0,l)
);
}
);
userData = {
assembly = "NPUSHB[ ]	/* 37 values pushed */
10 7 2 3 3 0 1 76 0 3 0 2 0 3 2 128 1 1 0 0 22 77 4 1 2 2 21 2 78 18 18 17 18 16 5 7 27 
CALL[ ]	/* CallFunction */";
};
width = 692;
}
);
note = uni043C;
unicode = 1084;
},
{
glyphname = uni043D;
kernLeft = uni0432;
layers = (
{
layerId = m01;
shapes = (
{
closed = 1;
nodes = (
(115,241,l),
(457,241,l),
(457,0,l),
(499,0,l),
(499,527,l),
(457,527,l),
(457,276,l),
(115,276,l),
(115,527,l),
(73,527,l),
(73,0,l),
(115,0,l)
);
}
);
userData = {
assembly = "NPUSHB[ ]	/* 36 values pushed */
0 1 0 4 3 1 4 103 2 1 0 0 22 77 6 5 2 3 3 21 3 78 0 0 0 11 0 11 17 17 17 17 17 7 7 27 
CALL[ ]	/* CallFunction */";
};
width = 572;
}
);
note = uni043D;
unicode = 1085;
},
{
glyphname = uni043F;
kernLeft = uni0432;
layers = (
{
layerId = m01;
shapes = (
{
closed = 1;
nodes = (
(115,492,l),
(461,492,l),
(461,0,l),
(503,0,l),
(503,527,l),
(73,527,l),
(73,0,l),
(115,0,l)
);
}
);
userData = {
assembly = "NPUSHB[ ]	/* 30 values pushed */
0 2 2 0 95 0 0 0 22 77 4 3 2 1 1 21 1 78 0 0 0 7 0 7 17 17 17 5 7 25 
CALL[ ]	/* CallFunction */";
};
width = 576;
}
);
note = uni043F;
unicode = 1087;
},
{
glyphname = uni0442;
layers = (
{
layerId = m01;
shapes = (
{
closed = 1;
nodes = (
(4,492,l),
(204,492,l),
(204,0,l),
(246,0,l),
(246,492,l),
(445,492,l),
(445,527,l),
(4,527,l)
);
}
);
userData = {
assembly = "NPUSHB[ ]	/* 30 values pushed */
2 1 0 0 3 95 4 1 3 3 22 77 0 1 1 21 1 78 0 0 0 7 0 7 17 17 17 5 7 25 
CALL[ ]	/* CallFunction */";
};
width = 449;
}
);
note = uni0442;
unicode = 1090;
},
{
glyphname = uni0444;
kernLeft = uni0444;
layers = (
{
layerId = m01;
shapes = (
{
closed = 1;
nodes = (
(282,533,o),
(170,499,o),
(91,432,o),
(49,329,o),
(49,259,qs),
(49,186,o),
(98,86,o),
(180,23,o),
(290,-6,o),
(351,-8,q),
(351,-206,l),
(393,-206,l),
(393,-8,l),
(462,-6,o),
(573,27,o),
(652,92,o),
(695,191,o),
(695,259,qs),
(695,328,o),
(653,431,o),
(575,499,o),
(463,533,o),
(393,534,q),
(393,704,l),
(351,704,l),
(351,534,l)
);
},
{
closed = 1;
nodes = (
(517,498,o),
(653,382,o),
(653,262,qs),
(653,201,o),
(615,113,o),
(547,56,o),
(451,29,o),
(393,29,q),
(393,498,l)
);
},
{
closed = 1;
nodes = (
(294,30,o),
(198,58,o),
(129,114,o),
(91,201,o),
(91,262,qs),
(91,382,o),
(227,498,o),
(351,498,q),
(351,29,l)
);
}
);
userData = {
assembly = "MPPEM[ ]	/* MeasurePixelPerEm */
PUSHB[ ]	/* 1 value pushed */
20 
LT[ ]	/* LessThan */
IF[ ]	/* If */
NPUSHB[ ]	/* 35 values pushed */
0 0 0 20 77 8 1 7 7 1 97 5 1 1 1 29 77 9 1 6 6 2 97 4 1 2 2 30 77 0 3 3 24 3 78 
ELSE[ ]	/* Else */
NPUSHB[ ]	/* 35 values pushed */
0 3 2 3 134 0 0 0 20 77 8 1 7 7 1 97 5 1 1 1 29 77 9 1 6 6 2 97 4 1 2 2 30 2 78 
EIF[ ]	/* EndIf */
NPUSHB[ ]	/* 14 values pushed */
43 42 17 22 17 24 17 17 24 17 16 10 7 31 
CALL[ ]	/* CallFunction */";
};
width = 744;
}
);
note = uni0444;
unicode = 1092;
},
{
glyphname = uni0446;
kernLeft = uni0432;
kernRight = uni0434;
layers = (
{
layerId = m01;
shapes = (
{
closed = 1;
nodes = (
(115,527,l),
(73,527,l),
(73,0,l),
(526,0,l),
(526,-176,l),
(565,-176,l),
(565,36,l),
(490,36,l),
(490,527,l),
(448,527,l),
(448,36,l),
(115,36,l)
);
}
);
userData = {
assembly = "NPUSHB[ ]	/* 38 values pushed */
0 2 3 2 134 4 1 0 0 22 77 6 5 2 1 1 3 95 0 3 3 21 3 78 0 0 0 11 0 11 17 17 17 17 17 7 7 27 
CALL[ ]	/* CallFunction */";
};
width = 593;
}
);
note = uni0446;
unicode = 1094;
},
{
glyphname = uni0447;
kernLeft = uni0432;
layers = (
{
layerId = m01;
shapes = (
{
closed = 1;
nodes = (
(50,299,o),
(148,202,o),
(258,202,qs),
(271,202,o),
(307,203,o),
(349,205,o),
(394,208,o),
(415,210,q),
(415,0,l),
(457,0,l),
(457,527,l),
(415,527,l),
(415,249,l),
(368,244,o),
(298,241,o),
(263,241,qs),
(212,241,o),
(146,262,o),
(107,306,o),
(92,374,o),
(92,421,qs),
(92,527,l),
(50,527,l),
(50,411,ls)
);
}
);
userData = {
assembly = "NPUSHB[ ]	/* 38 values pushed */
10 1 1 0 15 1 4 1 2 76 0 1 0 4 3 1 4 105 2 1 0 0 22 77 0 3 3 21 3 78 82 17 18 53 16 5 7 27 
CALL[ ]	/* CallFunction */";
};
width = 530;
}
);
note = uni0447;
unicode = 1095;
},
{
glyphname = uni0448;
kernLeft = uni0432;
layers = (
{
layerId = m01;
shapes = (
{
closed = 1;
nodes = (
(738,0,l),
(738,527,l),
(696,527,l),
(696,36,l),
(425,36,l),
(425,527,l),
(383,527,l),
(383,36,l),
(115,36,l),
(115,527,l),
(73,527,l),
(73,0,l)
);
}
);
userData = {
assembly = "NPUSHB[ ]	/* 28 values pushed */
4 2 2 0 0 22 77 3 1 1 1 5 95 0 5 5 21 5 78 17 17 17 17 17 16 6 7 28 
CALL[ ]	/* CallFunction */";
};
width = 811;
}
);
note = uni0448;
unicode = 1096;
},
{
glyphname = uni0449;
kernLeft = uni0432;
kernRight = uni0434;
layers = (
{
layerId = m01;
shapes = (
{
closed = 1;
nodes = (
(774,0,l),
(774,-176,l),
(813,-176,l),
(813,36,l),
(738,36,l),
(738,527,l),
(696,527,l),
(696,36,l),
(425,36,l),
(425,527,l),
(383,527,l),
(383,36,l),
(115,36,l),
(115,527,l),
(73,527,l),
(73,0,l)
);
}
);
userData = {
assembly = "NPUSHB[ ]	/* 36 values pushed */
0 6 7 6 134 4 2 2 0 0 22 77 5 3 2 1 1 7 95 0 7 7 21 7 78 17 17 17 17 17 17 17 16 8 7 30 
CALL[ ]	/* CallFunction */";
};
width = 841;
}
);
note = uni0449;
unicode = 1097;
},
{
glyphname = uni044A;
layers = (
{
layerId = m01;
shapes = (
{
closed = 1;
nodes = (
(355,0,ls),
(397,0,o),
(471,17,o),
(527,55,o),
(559,117,o),
(558,163,qs),
(557,209,o),
(519,267,o),
(457,298,o),
(380,309,o),
(340,309,qs),
(203,309,l),
(203,527,l),
(20,527,l),
(20,493,l),
(161,493,l),
(161,0,l)
);
},
{
closed = 1;
nodes = (
(203,274,l),
(334,274,ls),
(364,274,o),
(429,267,o),
(482,244,o),
(516,199,o),
(516,161,qs),
(516,117,o),
(482,66,o),
(427,40,o),
(358,34,o),
(324,34,qs),
(203,34,l)
);
}
);
userData = {
assembly = "NPUSHB[ ]	/* 45 values pushed */
0 2 0 5 4 2 5 103 0 0 0 1 95 0 1 1 22 77 6 1 4 4 3 95 0 3 3 21 3 78 18 17 28 26 17 29 18 29 40 33 17 16 7 7 26 
CALL[ ]	/* CallFunction */";
};
width = 604;
}
);
note = uni044A;
unicode = 1098;
},
{
glyphname = uni044B;
kernLeft = uni0432;
layers = (
{
layerId = m01;
shapes = (
{
closed = 1;
nodes = (
(596,527,l),
(554,527,l),
(554,0,l),
(596,0,l)
);
},
{
closed = 1;
nodes = (
(246,0,ls),
(288,0,o),
(361,17,o),
(416,56,o),
(447,118,o),
(447,164,qs),
(447,212,o),
(408,269,o),
(346,299,o),
(268,309,o),
(228,309,qs),
(115,309,l),
(115,527,l),
(73,527,l),
(73,0,l)
);
},
{
closed = 1;
nodes = (
(115,274,l),
(227,274,ls),
(257,274,o),
(321,267,o),
(372,244,o),
(405,199,o),
(405,161,qs),
(405,117,o),
(370,66,o),
(313,40,o),
(243,34,o),
(209,34,qs),
(115,34,l)
);
}
);
userData = {
assembly = "NPUSHB[ ]	/* 52 values pushed */
0 3 0 6 5 3 6 103 2 1 0 0 22 77 8 1 5 5 1 95 4 7 2 1 1 21 1 78 20 19 0 0 30 28 19 31 20 31 18 16 8 6 5 4 0 3 0 3 17 9 7 23 
CALL[ ]	/* CallFunction */";
};
width = 669;
}
);
note = uni044B;
unicode = 1099;
},
{
glyphname = uni044C;
kernLeft = uni0432;
layers = (
{
layerId = m01;
shapes = (
{
closed = 1;
nodes = (
(269,0,ls),
(311,0,o),
(384,17,o),
(439,56,o),
(471,118,o),
(470,164,qs),
(469,212,o),
(430,269,o),
(369,299,o),
(291,309,o),
(251,309,qs),
(115,309,l),
(115,527,l),
(73,527,l),
(73,0,l)
);
},
{
closed = 1;
nodes = (
(115,274,l),
(249,274,ls),
(279,274,o),
(342,267,o),
(395,244,o),
(428,199,o),
(428,161,qs),
(428,117,o),
(393,66,o),
(338,40,o),
(268,34,o),
(234,34,qs),
(115,34,l)
);
}
);
userData = {
assembly = "NPUSHB[ ]	/* 39 values pushed */
0 1 0 4 3 1 4 103 0 0 0 22 77 5 1 3 3 2 95 0 2 2 21 2 78 16 15 26 24 15 27 16 27 40 33 16 6 7 25 
CALL[ ]	/* CallFunction */";
};
width = 520;
}
);
note = uni044C;
unicode = 1100;
},
{
glyphname = uni044E;
kernLeft = uni0432;
layers = (
{
layerId = m01;
shapes = (
{
closed = 1;
nodes = (
(367,497,o),
(306,431,o),
(272,338,o),
(268,281,q),
(115,281,l),
(115,527,l),
(73,527,l),
(73,0,l),
(115,0,l),
(115,246,l),
(268,246,l),
(272,188,o),
(306,95,o),
(366,29,o),
(453,-7,o),
(510,-7,qs),
(571,-7,o),
(664,33,o),
(726,105,o),
(758,204,o),
(758,263,qs),
(758,321,o),
(727,420,o),
(666,493,o),
(573,534,o),
(511,534,qs),
(454,534,o)
);
},
{
closed = 1;
nodes = (
(382,66,o),
(333,129,o),
(310,215,o),
(310,263,qs),
(310,311,o),
(332,396,o),
(380,460,o),
(457,498,o),
(511,498,qs),
(565,498,o),
(642,461,o),
(692,397,o),
(716,312,o),
(716,263,qs),
(716,215,o),
(692,129,o),
(642,66,o),
(565,29,o),
(511,29,qs),
(458,29,o)
);
}
);
userData = {
assembly = "NPUSHB[ ]	/* 68 values pushed */
0 5 0 2 6 5 2 103 0 4 4 22 77 0 7 7 0 97 8 1 0 0 29 77 0 3 3 21 77 9 1 6 6 1 97 0 1 1 30 1 78 28 27 1 0 38 36 27 46 28 46 22 21 20 19 18 17 16 15 11 9 0 26 1 26 10 7 22 
CALL[ ]	/* CallFunction */";
};
width = 807;
}
);
note = uni044E;
unicode = 1102;
},
{
glyphname = uni044F;
kernLeft = uni0432;
layers = (
{
layerId = m01;
shapes = (
{
closed = 1;
nodes = (
(241,527,ls),
(200,527,o),
(127,514,o),
(72,480,o),
(40,419,o),
(40,371,qs),
(40,301,o),
(126,228,o),
(192,218,q),
(44,0,l),
(94,0,l),
(237,213,l),
(406,213,l),
(406,0,l),
(448,0,l),
(448,527,l)
);
},
{
closed = 1;
nodes = (
(268,248,ls),
(238,248,o),
(172,255,o),
(118,281,o),
(82,332,o),
(82,376,qs),
(82,416,o),
(112,463,o),
(160,486,o),
(222,492,o),
(254,492,qs),
(406,492,l),
(406,248,l)
);
}
);
userData = {
assembly = "NPUSHB[ ]	/* 40 values pushed */
6 1 1 5 1 76 0 5 0 1 0 5 1 103 0 4 4 3 95 0 3 3 22 77 2 1 0 0 21 0 78 40 33 40 17 17 16 6 7 28 
CALL[ ]	/* CallFunction */";
};
width = 521;
}
);
note = uni044F;
unicode = 1103;
},
{
glyphname = uni0410;
kernLeft = A;
kernRight = A;
layers = (
{
layerId = m01;
shapes = (
{
closed = 1;
nodes = (
(64,0,l),
(127,163,l),
(509,163,l),
(573,0,l),
(622,0,l),
(341,707,l),
(294,707,l),
(16,0,l)
);
},
{
closed = 1;
nodes = (
(494,200,l),
(141,200,l),
(318,657,l)
);
}
);
userData = {
assembly = "NPUSHB[ ]	/* 34 values pushed */
10 1 4 0 1 76 0 4 0 2 1 4 2 103 0 0 0 20 77 3 1 1 1 21 1 78 17 17 17 17 16 5 7 27 
CALL[ ]	/* CallFunction */";
};
width = 638;
}
);
note = uni0410;
unicode = 1040;
},
{
glyphname = uni0415;
layers = (
{
layerId = m01;
shapes = (
{
closed = 1;
nodes = (
(549,0,l),
(549,38,l),
(135,38,l),
(135,332,l),
(507,332,l),
(507,370,l),
(135,370,l),
(135,669,l),
(549,669,l),
(549,707,l),
(93,707,l),
(93,0,l)
);
}
);
userData = {
assembly = "NPUSHB[ ]	/* 38 values pushed */
0 2 0 3 4 2 3 103 0 1 1 0 95 0 0 0 20 77 0 4 4 5 95 0 5 5 21 5 78 17 17 17 17 17 16 6 7 28 
CALL[ ]	/* CallFunction */";
};
width = 603;
}
);
note = uni0415;
unicode = 1045;
},
{
glyphname = uni041C;
layers = (
{
layerId = m01;
shapes = (
{
closed = 1;
nodes = (
(421,255,l),
(153,707,l),
(93,707,l),
(93,0,l),
(135,0,l),
(135,657,l),
(409,195,l),
(431,195,l),
(700,657,l),
(700,0,l),
(742,0,l),
(742,707,l),
(683,707,l)
);
}
);
userData = {
assembly = "NPUSHB[ ]	/* 43 values pushed */
11 6 3 3 1 3 1 76 0 1 3 0 3 1 0 128 5 4 2 3 3 20 77 2 1 0 0 21 0 78 0 0 0 12 0 12 17 18 18 17 6 7 26 
CALL[ ]	/* CallFunction */";
};
width = 835;
}
);
note = uni041C;
unicode = 1052;
},
{
glyphname = uni041D;
layers = (
{
layerId = m01;
shapes = (
{
closed = 1;
nodes = (
(93,707,l),
(93,0,l),
(135,0,l),
(135,328,l),
(590,328,l),
(590,0,l),
(632,0,l),
(632,707,l),
(590,707,l),
(590,365,l),
(135,365,l),
(135,707,l)
);
}
);
userData = {
assembly = "NPUSHB[ ]	/* 30 values pushed */
0 0 0 3 2 0 3 103 5 1 1 1 20 77 4 1 2 2 21 2 78 17 17 17 17 17 16 6 7 28 
CALL[ ]	/* CallFunction */";
};
width = 725;
}
);
note = uni041D;
unicode = 1053;
},
{
glyphname = uni0420;
layers = (
{
layerId = m01;
shapes = (
{
closed = 1;
nodes = (
(135,0,l),
(135,250,l),
(308,250,ls),
(363,250,o),
(459,278,o),
(529,335,o),
(569,421,o),
(569,480,qs),
(569,597,o),
(441,707,o),
(328,707,qs),
(93,707,l),
(93,0,l)
);
},
{
closed = 1;
nodes = (
(135,669,l),
(322,669,ls),
(369,669,o),
(444,649,o),
(497,604,o),
(525,534,o),
(525,484,qs),
(525,432,o),
(493,358,o),
(436,310,o),
(355,287,o),
(306,287,qs),
(135,287,l)
);
}
);
userData = {
assembly = "NPUSHB[ ]	/* 39 values pushed */
5 1 3 0 1 2 3 1 103 0 4 4 0 95 0 0 0 20 77 0 2 2 21 2 78 14 13 24 22 13 25 14 25 17 38 32 6 7 25 
CALL[ ]	/* CallFunction */";
};
width = 619;
}
);
note = uni0420;
unicode = 1056;
},
{
glyphname = uni0422;
kernLeft = uni0422;
kernRight = uni0422;
layers = (
{
layerId = m01;
shapes = (
{
closed = 1;
nodes = (
(20,707,l),
(20,669,l),
(262,669,l),
(262,0,l),
(304,0,l),
(304,669,l),
(546,669,l),
(546,707,l)
);
}
);
userData = {
assembly = "NPUSHB[ ]	/* 24 values pushed */
2 1 0 0 3 95 0 3 3 20 77 0 1 1 21 1 78 17 17 17 16 4 7 26 
CALL[ ]	/* CallFunction */";
};
width = 566;
}
);
note = uni0422;
unicode = 1058;
},
{
glyphname = uni0425;
layers = (
{
layerId = m01;
shapes = (
{
closed = 1;
nodes = (
(84,707,l),
(28,707,l),
(249,356,l),
(20,0,l),
(74,0,l),
(278,323,l),
(483,0,l),
(538,0,l),
(309,358,l),
(529,707,l),
(473,707,l),
(279,390,l)
);
}
);
userData = {
assembly = "NPUSHB[ ]	/* 29 values pushed */
11 8 5 2 4 1 0 1 76 3 1 0 0 20 77 2 1 1 1 21 1 78 18 18 18 16 4 7 26 
CALL[ ]	/* CallFunction */";
};
width = 558;
}
);
note = uni0425;
unicode = 1061;
},
{
glyphname = T;
kernLeft = uni0422;
kernRight = uni0422;
layers = (
{
layerId = m01;
shapes = (
{
closed = 1;
nodes = (
(20,707,l),
(20,669,l),
(262,669,l),
(262,0,l),
(304,0,l),
(304,669,l),
(546,669,l),
(546,707,l)
);
}
);
userData = {
assembly = "NPUSHB[ ]	/* 24 values pushed */
2 1 0 0 3 95 0 3 3 38 77 0 1 1 39 1 78 17 17 17 16 4 8 26 
CALL[ ]	/* CallFunction */";
};
width = 566;
}
);
note = T;
unicode = 84;
},
{
glyphname = uni0412;
layers = (
{
layerId = m01;
shapes = (
{
closed = 1;
nodes = (
(325,0,ls),
(373,0,o),
(470,16,o),
(548,57,o),
(596,130,o),
(596,187,qs),
(596,226,o),
(570,291,o),
(523,337,o),
(458,366,o),
(419,369,q),
(480,385,o),
(557,470,o),
(557,539,qs),
(557,592,o),
(519,658,o),
(456,694,o),
(375,707,o),
(331,707,qs),
(92,707,l),
(92,0,l)
);
},
{
closed = 1;
nodes = (
(368,669,o),
(435,660,o),
(487,632,o),
(518,579,o),
(518,535,qs),
(518,490,o),
(477,430,o),
(413,395,o),
(335,380,o),
(298,380,qs),
(134,380,l),
(134,669,l),
(332,669,ls)
);
},
{
closed = 1;
nodes = (
(134,343,l),
(344,343,ls),
(382,343,o),
(457,329,o),
(517,295,o),
(554,236,o),
(554,190,qs),
(554,137,o),
(511,77,o),
(444,46,o),
(361,38,o),
(322,38,qs),
(134,38,l)
);
}
);
userData = {
assembly = "NPUSHB[ ]	/* 59 values pushed */
9 1 5 2 1 76 0 2 0 5 4 2 5 103 6 1 3 3 0 95 0 0 0 20 77 7 1 4 4 1 95 0 1 1 21 1 78 35 34 21 21 45 43 34 46 35 46 21 33 21 32 24 22 20 18 32 8 7 23 
CALL[ ]	/* CallFunction */";
};
width = 651;
}
);
note = uni0412;
unicode = 1042;
},
{
glyphname = uni041F;
layers = (
{
layerId = m01;
shapes = (
{
closed = 1;
nodes = (
(93,707,l),
(93,0,l),
(135,0,l),
(135,669,l),
(593,669,l),
(593,0,l),
(635,0,l),
(635,707,l)
);
}
);
userData = {
assembly = "NPUSHB[ ]	/* 24 values pushed */
0 1 1 3 95 0 3 3 20 77 2 1 0 0 21 0 78 17 17 17 16 4 7 26 
CALL[ ]	/* CallFunction */";
};
width = 728;
}
);
note = uni041F;
unicode = 1055;
},
{
glyphname = uni0413;
kernRight = uni0413;
layers = (
{
layerId = m01;
shapes = (
{
closed = 1;
nodes = (
(135,669,l),
(528,669,l),
(528,707,l),
(93,707,l),
(93,0,l),
(135,0,l)
);
}
);
userData = {
assembly = "NPUSHB[ ]	/* 28 values pushed */
0 1 1 0 95 0 0 0 20 77 3 1 2 2 21 2 78 0 0 0 5 0 5 17 17 4 7 24 
CALL[ ]	/* CallFunction */";
};
width = 561;
}
);
note = uni0413;
unicode = 1043;
},
{
glyphname = uni041B;
layers = (
{
layerId = m01;
shapes = (
{
closed = 1;
nodes = (
(595,707,l),
(142,707,l),
(141,665,o),
(140,585,o),
(140,543,qs),
(140,492,o),
(138,393,o),
(136,342,qs),
(135,315,o),
(132,245,o),
(125,176,o),
(112,115,o),
(101,95,qs),
(72,44,o),
(14,38,q),
(14,-6,l),
(73,-2,o),
(141,58,o),
(158,116,qs),
(165,140,o),
(173,202,o),
(178,266,o),
(180,324,o),
(180,344,qs),
(181,382,o),
(183,462,o),
(183,501,qs),
(183,540,o),
(184,630,o),
(186,669,q),
(553,669,l),
(553,0,l),
(595,0,l)
);
}
);
userData = {
assembly = "PUSHB[ ]	/* 6 values pushed */
17 1 1 0 1 76 
MPPEM[ ]	/* MeasurePixelPerEm */
PUSHB[ ]	/* 1 value pushed */
10 
LT[ ]	/* LessThan */
IF[ ]	/* If */
NPUSHB[ ]	/* 18 values pushed */
0 0 0 2 95 0 2 2 20 77 4 3 2 1 1 21 1 78 
ELSE[ ]	/* Else */
MPPEM[ ]	/* MeasurePixelPerEm */
PUSHB[ ]	/* 1 value pushed */
12 
LT[ ]	/* LessThan */
IF[ ]	/* If */
NPUSHB[ ]	/* 18 values pushed */
0 0 0 2 95 0 2 2 20 77 4 3 2 1 1 30 1 78 
ELSE[ ]	/* Else */
MPPEM[ ]	/* MeasurePixelPerEm */
PUSHB[ ]	/* 1 value pushed */
14 
LT[ ]	/* LessThan */
IF[ ]	/* If */
NPUSHB[ ]	/* 18 values pushed */
0 0 0 2 95 0 2 2 20 77 4 3 2 1 1 21 1 78 
ELSE[ ]	/* Else */
NPUSHB[ ]	/* 18 values pushed */
0 0 0 2 95 0 2 2 20 77 4 3 2 1 1 30 1 78 
EIF[ ]	/* EndIf */
EIF[ ]	/* EndIf */
EIF[ ]	/* EndIf */
NPUSHB[ ]	/* 12 values pushed */
0 0 0 32 0 32 30 29 17 5 7 25 
CALL[ ]	/* CallFunction */";
};
width = 688;
}
);
note = uni041B;
unicode = 1051;
},
{
glyphname = uni0414;
kernRight = uni0414;
layers = (
{
layerId = m01;
shapes = (
{
closed = 1;
nodes = (
(72,0,l),
(648,0,l),
(648,-207,l),
(690,-207,l),
(690,38,l),
(599,38,l),
(599,707,l),
(168,707,l),
(166,641,o),
(164,499,o),
(162,419,qs),
(161,384,o),
(159,309,o),
(153,235,o),
(141,167,o),
(131,141,qs),
(124,123,o),
(105,90,o),
(81,62,o),
(49,42,o),
(29,38,q),
(29,-207,l),
(72,-207,l)
);
},
{
closed = 1;
nodes = (
(144,62,o),
(179,135,o),
(195,214,o),
(199,289,o),
(200,314,qs),
(211,669,l),
(559,669,l),
(558,38,l),
(113,38,l)
);
}
);
userData = {
assembly = "PUSHB[ ]	/* 5 values pushed */
1 1 1 1 75 
MPPEM[ ]	/* MeasurePixelPerEm */
PUSHB[ ]	/* 1 value pushed */
20 
LT[ ]	/* LessThan */
IF[ ]	/* If */
NPUSHB[ ]	/* 30 values pushed */
0 5 5 0 95 0 0 0 20 77 8 6 2 1 1 3 95 0 3 3 21 77 7 4 2 2 2 24 2 78 
ELSE[ ]	/* Else */
NPUSHB[ ]	/* 30 values pushed */
7 4 2 2 3 2 134 0 5 5 0 95 0 0 0 20 77 8 6 2 1 1 3 95 0 3 3 21 3 78 
EIF[ ]	/* EndIf */
NPUSHB[ ]	/* 21 values pushed */
23 23 0 0 23 31 23 31 25 24 0 22 0 22 17 17 17 30 9 7 26 
CALL[ ]	/* CallFunction */";
};
width = 718;
}
);
note = uni0414;
unicode = 1044;
},
{
glyphname = uni0411;
layers = (
{
layerId = m01;
shapes = (
{
closed = 1;
nodes = (
(328,0,ls),
(381,0,o),
(476,20,o),
(547,68,o),
(588,148,o),
(588,207,qs),
(588,268,o),
(543,342,o),
(471,382,o),
(380,396,o),
(334,396,qs),
(135,396,l),
(135,669,l),
(555,669,l),
(555,707,l),
(93,707,l),
(93,0,l)
);
},
{
closed = 1;
nodes = (
(318,358,ls),
(360,358,o),
(441,350,o),
(505,319,o),
(544,258,o),
(544,204,qs),
(544,153,o),
(506,88,o),
(443,51,o),
(360,38,o),
(316,38,qs),
(135,38,l),
(135,358,l)
);
}
);
userData = {
assembly = "NPUSHB[ ]	/* 38 values pushed */
0 2 0 5 4 2 5 103 0 1 1 0 95 0 0 0 20 77 0 4 4 3 95 0 3 3 21 3 78 40 33 40 33 17 16 6 7 28 
CALL[ ]	/* CallFunction */";
};
width = 649;
}
);
note = uni0411;
unicode = 1041;
},
{
glyphname = uni0416;
layers = (
{
layerId = m01;
shapes = (
{
closed = 1;
nodes = (
(445,328,l),
(604,328,l),
(780,0,l),
(829,0,l),
(636,357,l),
(827,707,l),
(782,707,l),
(597,365,l),
(445,365,l),
(445,707,l),
(403,707,l),
(403,365,l),
(255,365,l),
(68,707,l),
(21,707,l),
(213,357,l),
(20,0,l),
(70,0,l),
(246,328,l),
(403,328,l),
(403,0,l),
(445,0,l)
);
}
);
userData = {
assembly = "NPUSHB[ ]	/* 51 values pushed */
16 5 2 0 3 1 76 5 1 3 8 1 0 1 3 0 103 6 4 2 2 2 20 77 10 9 7 3 1 1 21 1 78 0 0 0 21 0 21 17 18 17 17 17 17 18 17 17 11 7 31 
CALL[ ]	/* CallFunction */";
};
width = 849;
}
);
note = uni0416;
unicode = 1046;
},
{
glyphname = uni0417;
kernLeft = uni0417;
kernRight = uni0417;
layers = (
{
layerId = m01;
shapes = (
{
closed = 1;
nodes = (
(57,100,o),
(110,41,o),
(184,6,o),
(270,-8,o),
(311,-8,qs),
(358,-8,o),
(450,12,o),
(522,58,o),
(567,133,o),
(567,188,qs),
(567,223,o),
(546,285,o),
(502,333,o),
(436,364,o),
(391,369,q),
(429,379,o),
(483,414,o),
(518,459,o),
(534,512,o),
(534,539,qs),
(534,588,o),
(496,656,o),
(435,697,o),
(356,715,o),
(314,715,qs),
(278,715,o),
(195,701,o),
(124,667,o),
(73,609,o),
(69,565,q),
(113,565,l),
(120,598,o),
(161,642,o),
(217,668,o),
(281,679,o),
(310,679,qs),
(346,679,o),
(412,664,o),
(463,629,o),
(494,573,o),
(494,532,qs),
(494,491,o),
(452,433,o),
(389,396,o),
(313,379,o),
(279,379,qs),
(215,379,l),
(215,342,l),
(309,342,ls),
(348,342,o),
(426,331,o),
(487,298,o),
(525,237,o),
(525,188,qs),
(525,140,o),
(485,78,o),
(422,42,o),
(344,28,o),
(305,28,qs),
(275,28,o),
(207,38,o),
(147,65,o),
(102,111,o),
(95,146,q),
(50,146,l)
);
}
);
userData = {
assembly = "NPUSHB[ ]	/* 69 values pushed */
49 1 1 2 1 76 0 4 3 2 3 4 2 128 8 1 7 1 0 1 7 0 128 0 2 0 1 7 2 1 103 0 3 3 5 97 0 5 5 27 77 0 0 0 6 97 0 6 6 28 6 78 0 0 0 64 0 64 60 58 36 20 40 33 40 36 9 7 28 
CALL[ ]	/* CallFunction */";
};
width = 622;
}
);
note = uni0417;
unicode = 1047;
},
{
glyphname = uni0418;
layers = (
{
layerId = m01;
shapes = (
{
closed = 1;
nodes = (
(598,665,l),
(598,0,l),
(641,0,l),
(641,707,l),
(577,707,l),
(135,37,l),
(135,707,l),
(93,707,l),
(93,0,l),
(156,0,l)
);
}
);
userData = {
assembly = "NPUSHB[ ]	/* 33 values pushed */
8 3 2 2 0 1 76 1 1 0 0 20 77 4 3 2 2 2 21 2 78 0 0 0 9 0 9 17 18 17 5 7 25 
CALL[ ]	/* CallFunction */";
};
width = 734;
}
);
note = uni0418;
unicode = 1048;
},
{
glyphname = uni0419;
layers = (
{
layerId = m01;
shapes = (
{
closed = 1;
nodes = (
(303,858,o),
(267,877,o),
(242,908,o),
(236,931,q),
(198,931,l),
(202,900,o),
(234,857,o),
(280,830,o),
(338,818,o),
(368,818,qs),
(398,818,o),
(455,831,o),
(502,858,o),
(533,901,o),
(538,931,q),
(500,931,l),
(494,908,o),
(469,877,o),
(434,858,o),
(392,850,o),
(369,850,qs),
(346,850,o)
);
},
{
closed = 1;
nodes = (
(598,665,l),
(598,0,l),
(641,0,l),
(641,707,l),
(577,707,l),
(135,37,l),
(135,707,l),
(93,707,l),
(93,0,l),
(156,0,l)
);
}
);
userData = {
assembly = "NPUSHB[ ]	/* 63 values pushed */
30 25 2 6 4 1 76 3 1 1 0 1 133 8 1 0 0 2 4 0 2 105 5 1 4 4 20 77 9 7 2 6 6 21 6 78 22 22 1 0 22 31 22 31 29 28 27 26 24 23 17 16 12 10 6 5 0 21 1 21 10 7 22 
CALL[ ]	/* CallFunction */";
};
width = 734;
}
);
note = uni0419;
unicode = 1049;
},
{
glyphname = uni041A;
layers = (
{
layerId = m01;
shapes = (
{
closed = 1;
nodes = (
(135,323,l),
(293,323,l),
(528,0,l),
(579,0,l),
(324,355,l),
(576,707,l),
(528,707,l),
(280,360,l),
(135,360,l),
(135,707,l),
(93,707,l),
(93,0,l),
(135,0,l)
);
}
);
userData = {
assembly = "NPUSHB[ ]	/* 42 values pushed */
7 1 4 1 1 76 0 1 0 4 3 1 4 103 2 1 0 0 20 77 6 5 2 3 3 21 3 78 0 0 0 12 0 12 17 18 17 17 17 7 7 27 
CALL[ ]	/* CallFunction */";
};
width = 599;
}
);
note = uni041A;
unicode = 1050;
},
{
glyphname = uni0423;
layers = (
{
layerId = m01;
shapes = (
{
closed = 1;
nodes = (
(159,0,o),
(234,28,o),
(289,72,o),
(326,127,o),
(338,155,qs),
(573,707,l),
(526,707,l),
(318,214,l),
(77,707,l),
(26,707,l),
(295,165,l),
(284,143,o),
(255,99,o),
(211,64,o),
(151,42,o),
(109,42,q),
(109,-1,l)
);
}
);
userData = {
assembly = "NPUSHB[ ]	/* 31 values pushed */
8 5 2 0 1 1 76 2 1 1 1 20 77 0 0 0 3 97 0 3 3 21 3 78 21 18 21 16 4 7 26 
CALL[ ]	/* CallFunction */";
};
width = 578;
}
);
note = uni0423;
unicode = 1059;
},
{
glyphname = uni0424;
kernLeft = uni0417;
kernRight = uni0417;
layers = (
{
layerId = m01;
shapes = (
{
closed = 1;
nodes = (
(393,631,l),
(310,631,ls),
(253,631,o),
(158,594,o),
(91,526,o),
(54,431,o),
(54,374,qs),
(54,317,o),
(85,218,o),
(145,145,o),
(235,104,o),
(295,104,qs),
(393,104,l),
(393,-16,l),
(435,-16,l),
(435,104,l),
(532,104,ls),
(590,104,o),
(680,146,o),
(742,220,o),
(774,318,o),
(774,374,qs),
(774,431,o),
(737,526,o),
(671,594,o),
(577,631,o),
(520,631,qs),
(435,631,l),
(435,741,l),
(393,741,l)
);
},
{
closed = 1;
nodes = (
(260,136,o),
(177,172,o),
(123,236,o),
(96,324,o),
(96,376,qs),
(96,425,o),
(127,507,o),
(184,565,o),
(266,598,o),
(316,598,qs),
(393,598,l),
(393,136,l),
(316,136,ls)
);
},
{
closed = 1;
nodes = (
(512,598,ls),
(561,598,o),
(643,565,o),
(700,507,o),
(732,425,o),
(732,376,qs),
(732,324,o),
(706,236,o),
(652,172,o),
(569,136,o),
(513,136,qs),
(435,136,l),
(435,598,l)
);
}
);
userData = {
assembly = "MPPEM[ ]	/* MeasurePixelPerEm */
PUSHB[ ]	/* 1 value pushed */
31 
LT[ ]	/* LessThan */
IF[ ]	/* If */
NPUSHB[ ]	/* 33 values pushed */
10 1 5 0 5 133 4 1 0 9 1 6 7 0 6 103 8 11 2 7 3 1 1 2 7 1 103 0 2 2 21 2 78 
ELSE[ ]	/* Else */
NPUSHB[ ]	/* 42 values pushed */
10 1 5 0 5 133 0 2 1 2 134 4 1 0 9 1 6 7 0 6 103 8 11 2 7 1 1 7 87 8 11 2 7 7 1 95 3 1 1 7 1 79 
EIF[ ]	/* EndIf */
NPUSHB[ ]	/* 26 values pushed */
30 30 0 0 55 53 45 43 30 42 30 41 33 31 0 29 0 29 40 33 17 40 33 12 7 27 
CALL[ ]	/* CallFunction */";
};
width = 828;
}
);
note = uni0424;
unicode = 1060;
},
{
glyphname = uni0426;
kernRight = uni0414;
layers = (
{
layerId = m01;
shapes = (
{
closed = 1;
nodes = (
(659,-207,l),
(702,-207,l),
(702,38,l),
(611,38,l),
(611,707,l),
(568,707,l),
(568,38,l),
(135,38,l),
(135,707,l),
(93,707,l),
(93,0,l),
(659,0,l)
);
}
);
userData = {
assembly = "MPPEM[ ]	/* MeasurePixelPerEm */
PUSHB[ ]	/* 1 value pushed */
20 
LT[ ]	/* LessThan */
IF[ ]	/* If */
NPUSHB[ ]	/* 24 values pushed */
2 1 0 0 20 77 3 1 1 1 5 95 6 1 5 5 21 77 0 4 4 24 4 78 
ELSE[ ]	/* Else */
NPUSHB[ ]	/* 24 values pushed */
0 4 5 4 134 2 1 0 0 20 77 3 1 1 1 5 95 6 1 5 5 21 5 78 
EIF[ ]	/* EndIf */
NPUSHB[ ]	/* 14 values pushed */
0 0 0 11 0 11 17 17 17 17 17 7 7 27 
CALL[ ]	/* CallFunction */";
};
width = 727;
}
);
note = uni0426;
unicode = 1062;
},
{
glyphname = uni0427;
layers = (
{
layerId = m01;
shapes = (
{
closed = 1;
nodes = (
(191,322,o),
(137,370,o),
(112,450,o),
(112,509,qs),
(112,707,l),
(70,707,l),
(70,497,ls),
(70,426,o),
(107,335,o),
(177,284,o),
(278,265,o),
(341,265,qs),
(379,265,o),
(460,270,o),
(506,276,q),
(506,0,l),
(549,0,l),
(549,707,l),
(506,707,l),
(506,313,l),
(456,306,o),
(377,301,o),
(332,301,qs),
(274,301,o)
);
}
);
userData = {
assembly = "NPUSHB[ ]	/* 48 values pushed */
3 1 0 1 8 1 3 0 2 76 5 1 0 0 3 2 0 3 105 4 1 1 1 20 77 0 2 2 21 2 78 2 0 18 17 12 9 7 6 5 4 0 23 2 23 6 7 22 
CALL[ ]	/* CallFunction */";
};
width = 642;
}
);
note = uni0427;
unicode = 1063;
},
{
glyphname = uni0428;
layers = (
{
layerId = m01;
shapes = (
{
closed = 1;
nodes = (
(886,0,l),
(886,707,l),
(843,707,l),
(843,38,l),
(510,38,l),
(510,707,l),
(468,707,l),
(468,38,l),
(135,38,l),
(135,707,l),
(93,707,l),
(93,0,l)
);
}
);
userData = {
assembly = "NPUSHB[ ]	/* 28 values pushed */
4 2 2 0 0 20 77 3 1 1 1 5 95 0 5 5 21 5 78 17 17 17 17 17 16 6 7 28 
CALL[ ]	/* CallFunction */";
};
width = 979;
}
);
note = uni0428;
unicode = 1064;
},
{
glyphname = uni0429;
kernRight = uni0414;
layers = (
{
layerId = m01;
shapes = (
{
closed = 1;
nodes = (
(934,0,l),
(934,-207,l),
(977,-207,l),
(977,38,l),
(886,38,l),
(886,707,l),
(843,707,l),
(843,38,l),
(510,38,l),
(510,707,l),
(468,707,l),
(468,38,l),
(135,38,l),
(135,707,l),
(93,707,l),
(93,0,l)
);
}
);
userData = {
assembly = "MPPEM[ ]	/* MeasurePixelPerEm */
PUSHB[ ]	/* 1 value pushed */
20 
LT[ ]	/* LessThan */
IF[ ]	/* If */
NPUSHB[ ]	/* 25 values pushed */
4 2 2 0 0 20 77 5 3 2 1 1 7 95 0 7 7 21 77 0 6 6 24 6 78 
ELSE[ ]	/* Else */
NPUSHB[ ]	/* 25 values pushed */
0 6 7 6 134 4 2 2 0 0 20 77 5 3 2 1 1 7 95 0 7 7 21 7 78 
EIF[ ]	/* EndIf */
NPUSHB[ ]	/* 11 values pushed */
17 17 17 17 17 17 17 16 8 7 30 
CALL[ ]	/* CallFunction */";
};
width = 1002;
}
);
note = uni0429;
unicode = 1065;
},
{
glyphname = uni042A;
layers = (
{
layerId = m01;
shapes = (
{
closed = 1;
nodes = (
(409,0,ls),
(461,0,o),
(556,21,o),
(629,70,o),
(672,150,o),
(672,208,qs),
(672,270,o),
(622,345,o),
(543,384,o),
(446,396,o),
(398,396,qs),
(234,396,l),
(234,707,l),
(20,707,l),
(20,669,l),
(192,669,l),
(192,0,l)
);
},
{
closed = 1;
nodes = (
(396,359,ls),
(437,359,o),
(521,350,o),
(588,319,o),
(630,257,o),
(630,203,qs),
(630,149,o),
(586,84,o),
(516,49,o),
(429,38,o),
(387,38,qs),
(234,38,l),
(234,359,l)
);
}
);
userData = {
assembly = "NPUSHB[ ]	/* 38 values pushed */
0 2 0 5 4 2 5 103 0 0 0 1 95 0 1 1 20 77 0 4 4 3 95 0 3 3 21 3 78 40 33 40 33 17 16 6 7 28 
CALL[ ]	/* CallFunction */";
};
width = 728;
}
);
note = uni042A;
unicode = 1066;
},
{
glyphname = uni042B;
layers = (
{
layerId = m01;
shapes = (
{
closed = 1;
nodes = (
(287,0,ls),
(340,0,o),
(436,21,o),
(508,69,o),
(550,149,o),
(550,209,qs),
(550,273,o),
(499,347,o),
(418,385,o),
(316,396,o),
(264,396,qs),
(135,396,l),
(135,707,l),
(93,707,l),
(93,0,l)
);
},
{
closed = 1;
nodes = (
(281,359,ls),
(322,359,o),
(403,350,o),
(468,319,o),
(508,257,o),
(508,203,qs),
(508,149,o),
(466,84,o),
(400,49,o),
(316,38,o),
(274,38,qs),
(135,38,l),
(135,359,l)
);
},
{
closed = 1;
nodes = (
(727,707,l),
(685,707,l),
(685,0,l),
(727,0,l)
);
}
);
userData = {
assembly = "NPUSHB[ ]	/* 42 values pushed */
0 1 0 4 3 1 4 103 5 1 0 0 20 77 0 3 3 2 95 7 6 2 2 2 21 2 78 28 28 28 31 28 31 18 40 33 40 33 16 8 7 28 
CALL[ ]	/* CallFunction */";
};
width = 820;
}
);
note = uni042B;
unicode = 1067;
},
{
glyphname = uni042C;
layers = (
{
layerId = m01;
shapes = (
{
closed = 1;
nodes = (
(309,0,ls),
(362,0,o),
(457,20,o),
(529,68,o),
(571,147,o),
(571,207,qs),
(571,270,o),
(519,345,o),
(437,384,o),
(336,396,o),
(286,396,qs),
(134,396,l),
(134,707,l),
(92,707,l),
(92,0,l)
);
},
{
closed = 1;
nodes = (
(297,359,ls),
(339,359,o),
(422,350,o),
(488,319,o),
(530,257,o),
(530,203,qs),
(530,149,o),
(488,84,o),
(421,49,o),
(337,38,o),
(295,38,qs),
(134,38,l),
(134,359,l)
);
}
);
userData = {
assembly = "NPUSHB[ ]	/* 32 values pushed */
0 1 0 4 3 1 4 103 0 0 0 20 77 0 3 3 2 95 0 2 2 21 2 78 40 33 40 33 16 5 7 27 
CALL[ ]	/* CallFunction */";
};
width = 627;
}
);
note = uni042C;
unicode = 1068;
},
{
glyphname = uni042D;
kernLeft = uni0417;
kernRight = uni0417;
layers = (
{
layerId = m01;
shapes = (
{
closed = 1;
nodes = (
(494,629,o),
(561,545,o),
(598,434,o),
(601,373,q),
(224,373,l),
(224,335,l),
(601,335,l),
(599,268,o),
(563,155,o),
(495,74,o),
(392,28,o),
(323,28,qs),
(290,28,o),
(223,42,o),
(162,72,o),
(113,117,o),
(99,149,q),
(48,149,l),
(65,107,o),
(123,47,o),
(196,10,o),
(279,-8,o),
(322,-8,qs),
(404,-8,o),
(524,46,o),
(604,141,o),
(643,271,o),
(643,348,qs),
(643,419,o),
(606,552,o),
(529,654,o),
(411,715,o),
(330,715,qs),
(292,715,o),
(210,700,o),
(135,664,o),
(73,603,o),
(55,558,q),
(101,558,l),
(116,591,o),
(168,637,o),
(230,666,o),
(299,679,o),
(332,679,qs),
(396,679,o)
);
}
);
userData = {
assembly = "NPUSHB[ ]	/* 69 values pushed */
0 1 0 7 0 1 7 128 0 4 6 5 6 4 5 128 0 7 0 6 4 7 6 103 8 1 0 0 2 97 0 2 2 27 77 0 5 5 3 97 0 3 3 28 3 78 1 0 40 39 38 37 33 31 27 26 22 20 12 10 6 5 0 44 1 44 9 7 22 
CALL[ ]	/* CallFunction */";
};
width = 697;
}
);
note = uni042D;
unicode = 1069;
},
{
glyphname = uni042E;
kernRight = uni0417;
layers = (
{
layerId = m01;
shapes = (
{
closed = 1;
nodes = (
(135,335,l),
(284,335,l),
(287,261,o),
(329,135,o),
(409,43,o),
(525,-8,o),
(602,-8,qs),
(684,-8,o),
(807,46,o),
(890,143,o),
(932,275,o),
(932,353,qs),
(932,431,o),
(890,564,o),
(807,660,o),
(684,715,o),
(602,715,qs),
(526,715,o),
(410,664,o),
(330,572,o),
(287,447,o),
(284,373,q),
(135,373,l),
(135,707,l),
(93,707,l),
(93,0,l),
(135,0,l)
);
},
{
closed = 1;
nodes = (
(783,627,o),
(855,538,o),
(890,420,o),
(890,353,qs),
(890,285,o),
(855,167,o),
(783,79,o),
(675,28,o),
(602,28,qs),
(531,28,o),
(426,81,o),
(358,171,o),
(325,288,o),
(325,353,qs),
(325,419,o),
(358,537,o),
(425,626,o),
(530,679,o),
(602,679,qs),
(675,679,o)
);
}
);
userData = {
assembly = "NPUSHB[ ]	/* 63 values pushed */
0 1 0 4 7 1 4 103 0 0 0 20 77 9 1 6 6 2 97 0 2 2 27 77 8 1 5 5 21 77 0 7 7 3 97 0 3 3 28 3 78 28 27 0 0 38 36 27 46 28 46 0 26 0 26 20 40 36 17 17 10 7 27 
CALL[ ]	/* CallFunction */";
};
width = 986;
}
);
note = uni042E;
unicode = 1070;
},
{
glyphname = uni042F;
layers = (
{
layerId = m01;
shapes = (
{
closed = 1;
nodes = (
(522,284,l),
(522,0,l),
(564,0,l),
(564,707,l),
(317,707,ls),
(262,707,o),
(169,684,o),
(100,633,o),
(61,551,o),
(61,493,qs),
(61,409,o),
(153,307,o),
(240,290,q),
(81,0,l),
(130,0,l),
(282,284,l)
);
},
{
closed = 1;
nodes = (
(274,321,o),
(197,339,o),
(138,380,o),
(103,447,o),
(103,496,qs),
(103,547,o),
(137,614,o),
(196,653,o),
(276,669,o),
(322,669,qs),
(522,669,l),
(522,321,l),
(317,321,ls)
);
}
);
userData = {
assembly = "NPUSHB[ ]	/* 46 values pushed */
2 1 3 5 1 76 6 1 5 0 3 0 5 3 103 0 4 4 1 95 0 1 1 20 77 2 1 0 0 21 0 78 16 16 16 28 16 27 34 17 17 40 16 7 7 27 
CALL[ ]	/* CallFunction */";
};
width = 657;
}
);
note = uni042F;
unicode = 1071;
},
{
glyphname = uni0440;
kernLeft = uni0432;
layers = (
{
layerId = m01;
shapes = (
{
closed = 1;
nodes = (
(134,65,o),
(184,24,o),
(240,1,o),
(296,-7,o),
(320,-7,qs),
(378,-7,o),
(466,31,o),
(526,100,o),
(556,199,o),
(556,259,qs),
(556,315,o),
(528,415,o),
(471,490,o),
(383,534,o),
(323,534,qs),
(255,534,o),
(154,482,o),
(115,423,q),
(115,527,l),
(73,527,l),
(73,-206,l),
(115,-206,l),
(115,98,l)
);
},
{
closed = 1;
nodes = (
(192,65,o),
(140,127,o),
(113,212,o),
(113,262,qs),
(113,307,o),
(139,392,o),
(190,458,o),
(265,498,o),
(315,498,qs),
(369,498,o),
(445,460,o),
(492,395,o),
(514,310,o),
(514,262,qs),
(514,215,o),
(493,131,o),
(448,67,o),
(375,29,o),
(323,29,qs),
(271,29,o)
);
}
);
userData = {
assembly = "PUSHB[ ]	/* 7 values pushed */
22 4 2 4 5 1 76 
MPPEM[ ]	/* MeasurePixelPerEm */
PUSHB[ ]	/* 1 value pushed */
20 
LT[ ]	/* LessThan */
IF[ ]	/* If */
NPUSHB[ ]	/* 32 values pushed */
0 1 1 22 77 0 5 5 2 97 0 2 2 29 77 6 1 4 4 3 97 0 3 3 30 77 0 0 0 24 0 78 
ELSE[ ]	/* Else */
NPUSHB[ ]	/* 32 values pushed */
0 0 3 0 134 0 1 1 22 77 0 5 5 2 97 0 2 2 29 77 6 1 4 4 3 97 0 3 3 30 3 78 
EIF[ ]	/* EndIf */
NPUSHB[ ]	/* 15 values pushed */
24 23 34 32 23 42 24 42 40 35 17 16 7 7 26 
CALL[ ]	/* CallFunction */";
};
width = 609;
}
);
note = uni0440;
unicode = 1088;
},
{
glyphname = O;
kernLeft = O;
kernRight = D;
layers = (
{
layerId = m01;
shapes = (
{
closed = 1;
nodes = (
(589,47,o),
(671,143,o),
(713,275,o),
(713,353,qs),
(713,431,o),
(671,563,o),
(589,660,o),
(465,715,o),
(384,715,qs),
(302,715,o),
(179,660,o),
(96,564,o),
(54,431,o),
(54,353,qs),
(54,275,o),
(96,143,o),
(179,46,o),
(302,-8,o),
(384,-8,qs),
(465,-8,o)
);
},
{
closed = 1;
nodes = (
(563,627,o),
(634,538,o),
(668,420,o),
(668,353,qs),
(668,285,o),
(633,167,o),
(563,79,o),
(456,28,o),
(384,28,qs),
(313,28,o),
(206,79,o),
(134,168,o),
(98,286,o),
(98,353,qs),
(98,420,o),
(133,538,o),
(204,627,o),
(312,679,o),
(384,679,qs),
(456,679,o)
);
}
);
userData = {
assembly = "NPUSHB[ ]	/* 42 values pushed */
5 1 2 2 1 97 0 1 1 46 77 0 3 3 0 97 4 1 0 0 47 0 78 21 20 1 0 31 29 20 39 21 39 11 9 0 19 1 19 6 8 22 
CALL[ ]	/* CallFunction */";
};
width = 767;
}
);
note = O;
unicode = 79;
},
{
glyphname = a;
kernLeft = a;
layers = (
{
layerId = m01;
shapes = (
{
closed = 1;
nodes = (
(482,0,l),
(482,287,ls),
(482,347,o),
(455,447,o),
(421,481,qs),
(397,505,o),
(324,534,o),
(276,534,qs),
(257,534,o),
(203,528,o),
(148,507,o),
(99,467,o),
(86,432,q),
(133,432,l),
(144,452,o),
(178,478,o),
(217,493,o),
(259,498,o),
(278,498,qs),
(323,497,o),
(385,464,o),
(423,408,o),
(440,333,o),
(440,291,q),
(248,291,ls),
(210,291,o),
(139,277,o),
(85,243,o),
(53,185,o),
(53,142,qs),
(53,98,o),
(90,41,o),
(145,6,o),
(208,-7,o),
(239,-7,qs),
(376,-5,o),
(440,81,q),
(440,0,l)
);
},
{
closed = 1;
nodes = (
(440,187,ls),
(440,146,o),
(404,87,o),
(345,46,o),
(273,29,o),
(236,29,qs),
(209,29,o),
(158,43,o),
(119,71,o),
(95,116,o),
(95,147,qs),
(95,185,o),
(129,229,o),
(181,251,o),
(244,256,o),
(273,256,qs),
(440,256,l)
);
}
);
userData = {
assembly = "PUSHB[ ]	/* 6 values pushed */
0 1 7 6 1 76 
MPPEM[ ]	/* MeasurePixelPerEm */
PUSHB[ ]	/* 1 value pushed */
12 
LT[ ]	/* LessThan */
IF[ ]	/* If */
NPUSHB[ ]	/* 39 values pushed */
0 3 2 1 2 3 1 128 0 1 8 1 6 7 1 6 103 0 2 2 4 97 0 4 4 49 77 0 7 7 0 97 5 1 0 0 47 0 78 
ELSE[ ]	/* Else */
MPPEM[ ]	/* MeasurePixelPerEm */
PUSHB[ ]	/* 1 value pushed */
39 
LT[ ]	/* LessThan */
IF[ ]	/* If */
NPUSHB[ ]	/* 39 values pushed */
0 3 2 1 2 3 1 128 0 1 8 1 6 7 1 6 103 0 2 2 4 97 0 4 4 49 77 0 7 7 0 97 5 1 0 0 50 0 78 
ELSE[ ]	/* Else */
NPUSHB[ ]	/* 43 values pushed */
0 3 2 1 2 3 1 128 0 1 8 1 6 7 1 6 103 0 2 2 4 97 0 4 4 49 77 0 5 5 39 77 0 7 7 0 97 0 0 0 50 0 78 
EIF[ ]	/* EndIf */
EIF[ ]	/* EndIf */
NPUSHB[ ]	/* 17 values pushed */
39 38 49 47 38 54 39 54 22 36 20 36 40 33 9 8 28 
CALL[ ]	/* CallFunction */";
};
width = 552;
}
);
note = a;
unicode = 97;
},
{
glyphname = c;
kernLeft = d;
layers = (
{
layerId = m01;
shapes = (
{
closed = 1;
nodes = (
(480,54,o),
(506,118,q),
(460,118,l),
(440,71,o),
(356,29,o),
(303,29,qs),
(249,29,o),
(171,66,o),
(120,130,o),
(95,214,o),
(95,262,qs),
(95,311,o),
(120,397,o),
(171,461,o),
(248,498,o),
(300,498,qs),
(350,498,o),
(434,455,o),
(451,408,q),
(497,408,l),
(474,471,o),
(371,534,o),
(304,534,qs),
(242,534,o),
(148,493,o),
(85,420,o),
(53,320,o),
(53,262,qs),
(53,204,o),
(84,105,o),
(146,33,o),
(238,-7,o),
(300,-7,qs),
(367,-7,o)
);
}
);
userData = {
assembly = "NPUSHB[ ]	/* 56 values pushed */
0 2 3 5 3 2 5 128 0 5 4 3 5 4 126 0 3 3 1 97 0 1 1 49 77 0 4 4 0 97 6 1 0 0 50 0 78 1 0 31 30 28 26 18 16 14 13 11 9 0 33 1 33 7 8 22 
CALL[ ]	/* CallFunction */";
};
width = 551;
}
);
note = c;
unicode = 99;
},
{
glyphname = e;
kernLeft = d;
layers = (
{
layerId = m01;
shapes = (
{
closed = 1;
nodes = (
(524,308,o),
(499,410,o),
(443,488,o),
(358,534,o),
(298,534,qs),
(238,534,o),
(146,491,o),
(84,418,o),
(53,319,o),
(53,263,qs),
(53,204,o),
(83,105,o),
(144,33,o),
(236,-7,o),
(299,-7,qs),
(330,-7,o),
(393,6,o),
(450,33,o),
(496,76,o),
(509,106,q),
(462,106,l),
(451,85,o),
(415,55,o),
(372,37,o),
(326,29,o),
(304,29,qs),
(250,29,o),
(173,62,o),
(123,121,o),
(97,203,o),
(95,252,q),
(524,252,l)
);
},
{
closed = 1;
nodes = (
(98,328,o),
(126,404,o),
(177,463,o),
(248,498,o),
(294,498,qs),
(340,498,o),
(409,464,o),
(456,406,o),
(480,329,o),
(482,287,q),
(96,287,l)
);
}
);
userData = {
assembly = "NPUSHB[ ]	/* 60 values pushed */
0 1 4 0 4 1 0 128 8 1 6 7 1 4 1 6 4 103 0 5 5 3 97 0 3 3 49 77 0 0 0 2 97 0 2 2 50 2 78 32 32 0 0 32 42 32 42 38 36 0 31 0 31 40 36 20 36 9 8 26 
CALL[ ]	/* CallFunction */";
};
width = 578;
}
);
note = e;
unicode = 101;
},
{
glyphname = f;
layers = (
{
layerId = m01;
shapes = (
{
closed = 1;
nodes = (
(173,0,l),
(173,492,l),
(331,492,l),
(331,527,l),
(173,527,l),
(173,589,ls),
(173,626,o),
(180,681,o),
(204,719,o),
(252,738,o),
(294,738,qs),
(331,738,l),
(331,773,l),
(289,773,ls),
(239,773,o),
(178,750,o),
(143,704,o),
(131,637,o),
(131,594,qs),
(131,527,l),
(38,527,l),
(38,492,l),
(131,492,l),
(131,0,l)
);
}
);
userData = {
assembly = "NPUSHB[ ]	/* 36 values pushed */
0 2 0 3 1 2 3 105 5 1 0 0 1 95 4 1 1 1 41 77 0 6 6 39 6 78 17 17 21 33 37 17 16 7 8 29 
CALL[ ]	/* CallFunction */";
};
width = 359;
}
);
note = f;
unicode = 102;
},
{
glyphname = g;
kernLeft = d;
layers = (
{
layerId = m01;
shapes = (
{
closed = 1;
nodes = (
(479,452,o),
(432,496,o),
(379,523,o),
(322,534,o),
(295,534,qs),
(237,534,o),
(147,495,o),
(85,424,o),
(53,325,o),
(53,265,qs),
(53,209,o),
(78,110,o),
(134,36,o),
(223,-7,o),
(288,-7,qs),
(318,-7,o),
(377,5,o),
(432,32,o),
(478,76,o),
(494,109,q),
(494,7,ls),
(494,-42,o),
(478,-126,o),
(436,-187,o),
(364,-221,o),
(307,-221,qs),
(283,-221,o),
(232,-212,o),
(186,-191,o),
(149,-158,o),
(139,-133,q),
(92,-133,l),
(104,-166,o),
(145,-213,o),
(200,-243,o),
(267,-257,o),
(303,-257,qs),
(367,-257,o),
(455,-222,o),
(511,-155,o),
(536,-57,o),
(536,6,qs),
(536,527,l),
(497,527,l),
(497,420,l)
);
},
{
closed = 1;
nodes = (
(421,461,o),
(471,397,o),
(496,313,o),
(496,265,qs),
(496,218,o),
(470,133,o),
(419,68,o),
(344,29,o),
(294,29,qs),
(240,29,o),
(164,66,o),
(116,131,o),
(95,217,o),
(95,265,qs),
(95,311,o),
(118,395,o),
(166,459,o),
(241,498,o),
(293,498,qs),
(344,498,o)
);
}
);
userData = {
assembly = "PUSHB[ ]	/* 7 values pushed */
44 24 2 7 6 1 76 
MPPEM[ ]	/* MeasurePixelPerEm */
PUSHB[ ]	/* 1 value pushed */
14 
LT[ ]	/* LessThan */
IF[ ]	/* If */
NPUSHB[ ]	/* 45 values pushed */
0 2 4 3 4 2 3 128 0 0 0 41 77 8 1 6 6 5 97 0 5 5 49 77 0 7 7 4 97 0 4 4 50 77 0 3 3 1 97 0 1 1 51 1 78 
ELSE[ ]	/* Else */
NPUSHB[ ]	/* 42 values pushed */
0 2 4 3 4 2 3 128 0 3 0 1 3 1 101 0 0 0 41 77 8 1 6 6 5 97 0 5 5 49 77 0 7 7 4 97 0 4 4 50 4 78 
EIF[ ]	/* EndIf */
NPUSHB[ ]	/* 17 values pushed */
46 45 56 54 45 64 46 64 40 41 36 20 37 16 9 8 28 
CALL[ ]	/* CallFunction */";
};
width = 609;
}
);
note = g;
unicode = 103;
},
{
glyphname = j;
layers = (
{
layerId = m01;
shapes = (
{
closed = 1;
nodes = (
(99,706,o),
(99,687,qs),
(99,669,o),
(121,648,o),
(138,648,qs),
(157,648,o),
(179,669,o),
(179,687,qs),
(179,704,o),
(158,726,o),
(139,726,qs),
(122,726,o)
);
},
{
closed = 1;
nodes = (
(116,527,l),
(116,-8,ls),
(116,-41,o),
(110,-97,o),
(86,-138,o),
(40,-161,o),
(0,-161,qs),
(-18,-161,l),
(-18,-196,l),
(1,-196,ls),
(52,-196,o),
(114,-170,o),
(147,-122,o),
(158,-54,o),
(158,-12,qs),
(158,527,l)
);
}
);
userData = {
assembly = "MPPEM[ ]	/* MeasurePixelPerEm */
PUSHB[ ]	/* 1 value pushed */
14 
LT[ ]	/* LessThan */
IF[ ]	/* If */
NPUSHB[ ]	/* 27 values pushed */
0 1 1 0 97 5 1 0 0 48 77 0 4 4 41 77 0 3 3 2 97 0 2 2 43 2 78 
ELSE[ ]	/* Else */
MPPEM[ ]	/* MeasurePixelPerEm */
PUSHB[ ]	/* 1 value pushed */
41 
LT[ ]	/* LessThan */
IF[ ]	/* If */
NPUSHB[ ]	/* 24 values pushed */
0 3 0 2 3 2 101 0 1 1 0 97 5 1 0 0 48 77 0 4 4 41 4 78 
ELSE[ ]	/* Else */
MPPEM[ ]	/* MeasurePixelPerEm */
PUSHB[ ]	/* 1 value pushed */
44 
LT[ ]	/* LessThan */
IF[ ]	/* If */
NPUSHB[ ]	/* 24 values pushed */
0 3 0 2 3 2 101 0 1 1 0 97 5 1 0 0 46 77 0 4 4 41 4 78 
ELSE[ ]	/* Else */
NPUSHB[ ]	/* 22 values pushed */
5 1 0 0 1 4 0 1 105 0 3 0 2 3 2 101 0 4 4 41 4 78 
EIF[ ]	/* EndIf */
EIF[ ]	/* EndIf */
EIF[ ]	/* EndIf */
NPUSHB[ ]	/* 17 values pushed */
1 0 27 26 21 19 18 16 7 5 0 11 1 11 6 8 22 
CALL[ ]	/* CallFunction */";
};
width = 240;
}
);
note = j;
unicode = 106;
},
{
glyphname = o;
kernLeft = d;
layers = (
{
layerId = m01;
shapes = (
{
closed = 1;
nodes = (
(170,65,o),
(119,128,o),
(95,214,o),
(95,263,qs),
(95,312,o),
(119,397,o),
(170,461,o),
(248,498,o),
(302,498,qs),
(356,498,o),
(434,461,o),
(485,397,o),
(510,312,o),
(510,263,qs),
(510,214,o),
(485,128,o),
(434,65,o),
(356,29,o),
(302,29,qs),
(248,29,o)
);
},
{
closed = 1;
nodes = (
(147,494,o),
(84,422,o),
(53,322,o),
(53,263,qs),
(53,204,o),
(84,105,o),
(147,33,o),
(240,-7,o),
(302,-7,qs),
(363,-7,o),
(457,33,o),
(520,105,o),
(552,204,o),
(552,263,qs),
(552,322,o),
(520,422,o),
(457,494,o),
(363,534,o),
(302,534,qs),
(240,534,o)
);
}
);
userData = {
assembly = "NPUSHB[ ]	/* 42 values pushed */
0 1 1 2 97 5 1 2 2 49 77 4 1 0 0 3 97 0 3 3 50 3 78 21 20 1 0 31 29 20 39 21 39 11 9 0 19 1 19 6 8 22 
CALL[ ]	/* CallFunction */";
};
width = 605;
}
);
note = o;
unicode = 111;
},
{
glyphname = r;
kernLeft = r;
kernRight = r;
layers = (
{
layerId = m01;
shapes = (
{
closed = 1;
nodes = (
(115,253,ls),
(115,305,o),
(140,394,o),
(191,458,o),
(271,494,o),
(327,494,qs),
(334,494,l),
(334,530,l),
(324,530,ls),
(296,530,o),
(235,521,o),
(178,494,o),
(129,447,o),
(113,409,q),
(113,527,l),
(73,527,l),
(73,0,l),
(115,0,l)
);
}
);
userData = {
assembly = "NPUSHB[ ]	/* 36 values pushed */
3 1 3 2 1 76 0 2 2 0 97 1 1 0 0 41 77 4 1 3 3 39 3 78 0 0 0 17 0 17 33 37 17 5 8 25 
CALL[ ]	/* CallFunction */";
};
width = 357;
}
);
note = r;
unicode = 114;
},
{
glyphname = t;
kernLeft = t;
layers = (
{
layerId = m01;
shapes = (
{
closed = 1;
nodes = (
(124,685,l),
(124,527,l),
(31,527,l),
(31,492,l),
(124,492,l),
(124,167,ls),
(124,79,o),
(202,0,o),
(284,0,qs),
(319,0,l),
(319,36,l),
(292,36,ls),
(222,36,o),
(166,103,o),
(166,171,qs),
(166,492,l),
(322,492,l),
(322,527,l),
(166,527,l),
(166,685,l)
);
}
);
userData = {
assembly = "MPPEM[ ]	/* MeasurePixelPerEm */
PUSHB[ ]	/* 1 value pushed */
22 
LT[ ]	/* LessThan */
IF[ ]	/* If */
NPUSHB[ ]	/* 28 values pushed */
0 6 6 38 77 4 1 1 1 0 95 5 1 0 0 41 77 0 2 2 3 97 0 3 3 39 3 78 
ELSE[ ]	/* Else */
NPUSHB[ ]	/* 28 values pushed */
0 6 0 6 133 4 1 1 1 0 95 5 1 0 0 41 77 0 2 2 3 97 0 3 3 39 3 78 
EIF[ ]	/* EndIf */
NPUSHB[ ]	/* 10 values pushed */
17 17 19 33 35 17 16 7 8 29 
CALL[ ]	/* CallFunction */";
};
width = 359;
}
);
note = t;
unicode = 116;
},
{
glyphname = y2_alt;
layers = (
{
layerId = m01;
shapes = (
{
closed = 1;
nodes = (
(78,527,l),
(27,527,l),
(268,-48,l),
(253,-86,o),
(221,-144,o),
(179,-184,o),
(124,-204,o),
(86,-204,q),
(86,-245,l),
(133,-245,o),
(198,-225,o),
(229,-196,qs),
(247,-180,o),
(280,-125,o),
(308,-64,o),
(332,-3,o),
(340,20,qs),
(521,527,l),
(472,527,l),
(292,6,l)
);
}
);
userData = {
assembly = "PUSHB[ ]	/* 7 values pushed */
19 16 2 2 0 1 76 
MPPEM[ ]	/* MeasurePixelPerEm */
PUSHB[ ]	/* 1 value pushed */
20 
LT[ ]	/* LessThan */
IF[ ]	/* If */
NPUSHB[ ]	/* 17 values pushed */
3 1 0 0 22 77 0 2 2 1 97 0 1 1 31 1 78 
ELSE[ ]	/* Else */
NPUSHB[ ]	/* 14 values pushed */
0 2 0 1 2 1 101 3 1 0 0 22 0 78 
EIF[ ]	/* EndIf */
PUSHB[ ]	/* 7 values pushed */
21 17 24 16 4 7 26 
CALL[ ]	/* CallFunction */";
};
width = 539;
}
);
note = y2_alt;
},
{
glyphname = uni0443;
layers = (
{
layerId = m01;
shapes = (
{
closed = 1;
nodes = (
(78,527,l),
(27,527,l),
(268,-48,l),
(253,-86,o),
(221,-144,o),
(179,-184,o),
(124,-204,o),
(86,-204,q),
(86,-245,l),
(133,-245,o),
(198,-225,o),
(229,-196,qs),
(247,-180,o),
(280,-125,o),
(308,-64,o),
(332,-3,o),
(340,20,qs),
(521,527,l),
(472,527,l),
(292,6,l)
);
}
);
userData = {
assembly = "PUSHB[ ]	/* 7 values pushed */
19 16 2 2 0 1 76 
MPPEM[ ]	/* MeasurePixelPerEm */
PUSHB[ ]	/* 1 value pushed */
20 
LT[ ]	/* LessThan */
IF[ ]	/* If */
NPUSHB[ ]	/* 17 values pushed */
3 1 0 0 22 77 0 2 2 1 97 0 1 1 31 1 78 
ELSE[ ]	/* Else */
NPUSHB[ ]	/* 14 values pushed */
0 2 0 1 2 1 101 3 1 0 0 22 0 78 
EIF[ ]	/* EndIf */
PUSHB[ ]	/* 7 values pushed */
21 17 24 16 4 7 26 
CALL[ ]	/* CallFunction */";
};
width = 539;
}
);
note = uni0443;
unicode = 1091;
},
{
glyphname = uni0451;
kernLeft = uni0444;
layers = (
{
layerId = m01;
shapes = (
{
closed = 1;
nodes = (
(376,691,o),
(376,675,qs),
(376,659,o),
(398,636,o),
(416,636,qs),
(435,636,o),
(456,658,o),
(456,675,qs),
(456,692,o),
(435,714,o),
(416,714,qs),
(398,714,o)
);
},
{
closed = 1;
nodes = (
(524,308,o),
(499,410,o),
(443,488,o),
(358,534,o),
(298,534,qs),
(241,534,o),
(150,493,o),
(87,421,o),
(53,321,o),
(53,263,qs),
(53,204,o),
(83,105,o),
(144,33,o),
(236,-7,o),
(299,-7,qs),
(330,-7,o),
(393,6,o),
(450,33,o),
(496,76,o),
(509,106,q),
(462,106,l),
(451,85,o),
(415,55,o),
(372,37,o),
(326,29,o),
(304,29,qs),
(250,29,o),
(173,62,o),
(123,121,o),
(97,203,o),
(95,252,q),
(524,252,l)
);
},
{
closed = 1;
nodes = (
(98,328,o),
(126,404,o),
(177,463,o),
(248,498,o),
(294,498,qs),
(340,498,o),
(409,464,o),
(456,406,o),
(480,329,o),
(482,287,q),
(96,287,l)
);
},
{
closed = 1;
nodes = (
(135,691,o),
(135,675,qs),
(135,659,o),
(157,636,o),
(175,636,qs),
(194,636,o),
(215,658,o),
(215,675,qs),
(215,692,o),
(194,714,o),
(175,714,qs),
(157,714,o)
);
}
);
userData = {
assembly = "NPUSHB[ ]	/* 94 values pushed */
0 3 6 2 6 3 2 128 13 1 8 12 1 6 3 8 6 103 10 1 1 1 0 97 14 9 11 3 0 0 27 77 0 7 7 5 97 0 5 5 29 77 0 2 2 4 97 0 4 4 30 4 78 56 55 44 44 12 12 1 0 62 60 55 66 56 66 44 54 44 54 50 48 12 43 12 43 39 37 29 27 23 22 18 16 7 5 0 11 1 11 15 7 22 
CALL[ ]	/* CallFunction */";
};
width = 578;
}
);
note = uni0451;
unicode = 1105;
},
{
glyphname = uni0437;
kernLeft = uni0444;
layers = (
{
layerId = m01;
shapes = (
{
closed = 1;
nodes = (
(445,362,o),
(443,403,qs),
(441,440,o),
(407,491,o),
(354,521,o),
(289,534,o),
(258,534,qs),
(229,534,o),
(166,524,o),
(111,499,o),
(71,457,o),
(65,424,q),
(108,424,l),
(115,448,o),
(149,477,o),
(192,493,o),
(238,498,o),
(259,498,qs),
(283,498,o),
(334,488,o),
(375,464,o),
(402,424,o),
(402,395,qs),
(402,361,o),
(368,317,o),
(317,292,o),
(257,283,o),
(230,283,qs),
(178,283,l),
(178,248,l),
(265,248,ls),
(293,248,o),
(350,241,o),
(396,219,o),
(425,177,o),
(425,142,qs),
(425,107,o),
(393,63,o),
(343,38,o),
(283,29,o),
(255,29,qs),
(235,29,o),
(185,35,o),
(138,52,o),
(100,83,o),
(91,107,q),
(45,107,l),
(55,72,o),
(101,27,o),
(160,2,o),
(226,-7,o),
(258,-7,qs),
(295,-7,o),
(369,7,o),
(429,41,o),
(467,98,o),
(467,142,qs),
(467,165,o),
(453,209,o),
(423,245,o),
(377,270,o),
(346,274,q),
(402,293,o)
);
}
);
userData = {
assembly = "NPUSHB[ ]	/* 56 values pushed */
0 6 5 4 5 6 4 128 0 1 3 2 3 1 2 128 0 4 0 3 1 4 3 103 0 5 5 7 97 0 7 7 29 77 0 2 2 0 97 0 0 0 30 0 78 36 20 40 33 40 36 20 41 8 7 30 
CALL[ ]	/* CallFunction */";
};
width = 516;
}
);
note = uni0437;
unicode = 1079;
},
{
glyphname = uni044D;
kernLeft = uni0444;
layers = (
{
layerId = m01;
shapes = (
{
closed = 1;
nodes = (
(179,244,l),
(455,244,l),
(454,197,o),
(429,119,o),
(381,61,o),
(309,29,o),
(261,29,qs),
(237,29,o),
(186,38,o),
(139,59,o),
(101,93,o),
(91,118,q),
(45,118,l),
(57,86,o),
(100,39,o),
(156,8,o),
(222,-7,o),
(256,-7,qs),
(318,-7,o),
(409,33,o),
(469,105,o),
(498,204,o),
(498,263,qs),
(498,319,o),
(469,418,o),
(409,491,o),
(319,534,o),
(259,534,qs),
(225,534,o),
(161,519,o),
(105,488,o),
(63,441,o),
(51,409,q),
(94,409,l),
(104,434,o),
(141,468,o),
(188,489,o),
(239,498,o),
(263,498,qs),
(310,498,o),
(380,463,o),
(428,403,o),
(453,324,o),
(456,279,q),
(179,279,l)
);
}
);
userData = {
assembly = "NPUSHB[ ]	/* 62 values pushed */
0 1 0 7 0 1 7 128 0 4 6 5 6 4 5 128 8 1 7 0 6 4 7 6 103 0 0 0 2 97 0 2 2 29 77 0 5 5 3 97 0 3 3 30 3 78 0 0 0 44 0 44 20 36 20 40 36 20 36 9 7 29 
CALL[ ]	/* CallFunction */";
};
width = 547;
}
);
note = uni044D;
unicode = 1101;
},
{
glyphname = C;
kernLeft = O;
kernRight = D;
layers = (
{
layerId = m01;
shapes = (
{
closed = 1;
nodes = (
(565,620,o),
(594,558,q),
(638,558,l),
(623,600,o),
(571,660,o),
(503,697,o),
(422,715,o),
(379,715,qs),
(297,715,o),
(175,659,o),
(94,562,o),
(54,429,o),
(54,353,qs),
(54,275,o),
(92,143,o),
(172,47,o),
(293,-8,o),
(376,-8,qs),
(419,-8,o),
(503,10,o),
(576,49,o),
(634,108,o),
(651,149,q),
(602,149,l),
(588,117,o),
(539,71,o),
(478,42,o),
(411,28,o),
(378,28,qs),
(305,28,o),
(199,80,o),
(130,170,o),
(96,289,o),
(96,355,qs),
(96,421,o),
(131,538,o),
(201,627,o),
(309,679,o),
(383,679,qs),
(452,679,o)
);
}
);
userData = {
assembly = "NPUSHB[ ]	/* 56 values pushed */
0 5 0 2 0 5 2 128 0 2 1 0 2 1 126 6 1 0 0 4 97 0 4 4 46 77 0 1 1 3 97 0 3 3 47 3 78 1 0 37 36 32 30 22 20 16 15 11 9 0 39 1 39 7 8 22 
CALL[ ]	/* CallFunction */";
};
width = 699;
}
);
note = C;
unicode = 67;
},
{
glyphname = S;
kernLeft = O;
kernRight = D;
layers = (
{
layerId = m01;
shapes = (
{
closed = 1;
nodes = (
(412,667,o),
(463,639,o),
(502,594,o),
(511,562,q),
(556,562,l),
(547,604,o),
(503,662,o),
(441,699,o),
(364,715,o),
(324,715,qs),
(278,715,o),
(191,695,o),
(124,651,o),
(83,580,o),
(83,528,qs),
(83,480,o),
(119,418,o),
(178,377,o),
(251,353,o),
(288,344,qs),
(313,338,o),
(371,322,o),
(401,313,qs),
(429,305,o),
(478,284,o),
(514,253,o),
(534,208,o),
(534,176,qs),
(534,137,o),
(499,81,o),
(442,45,o),
(369,28,o),
(332,28,qs),
(299,28,o),
(234,41,o),
(175,70,o),
(126,116,o),
(110,149,q),
(63,149,l),
(78,105,o),
(133,46,o),
(206,8,o),
(291,-8,o),
(335,-8,qs),
(381,-8,o),
(468,13,o),
(537,59,o),
(579,133,o),
(579,187,qs),
(579,219,o),
(556,270,o),
(517,309,o),
(463,338,o),
(433,347,qs),
(395,359,o),
(313,381,o),
(271,392,qs),
(242,400,o),
(190,421,o),
(151,454,o),
(129,501,o),
(129,535,qs),
(129,577,o),
(166,632,o),
(222,665,o),
(290,679,o),
(323,679,qs),
(352,679,o)
);
}
);
userData = {
assembly = "NPUSHB[ ]	/* 56 values pushed */
0 5 0 2 0 5 2 128 0 2 3 0 2 3 126 6 1 0 0 4 97 0 4 4 46 77 0 3 3 1 97 0 1 1 47 1 78 1 0 63 62 58 56 35 33 29 28 24 22 0 67 1 67 7 8 22 
CALL[ ]	/* CallFunction */";
};
width = 643;
}
);
note = S;
unicode = 83;
},
{
glyphname = uni0421;
kernLeft = uni0417;
kernRight = uni0417;
layers = (
{
layerId = m01;
shapes = (
{
closed = 1;
nodes = (
(565,620,o),
(594,558,q),
(638,558,l),
(623,600,o),
(570,660,o),
(502,697,o),
(421,715,o),
(379,715,qs),
(298,715,o),
(177,660,o),
(95,563,o),
(54,431,o),
(54,353,qs),
(54,275,o),
(93,143,o),
(173,47,o),
(295,-8,o),
(378,-8,qs),
(421,-8,o),
(504,10,o),
(577,49,o),
(634,108,o),
(651,149,q),
(602,149,l),
(588,117,o),
(539,71,o),
(479,42,o),
(412,28,o),
(379,28,qs),
(306,28,o),
(200,80,o),
(130,170,o),
(96,289,o),
(96,355,qs),
(96,421,o),
(131,538,o),
(201,627,o),
(309,679,o),
(383,679,qs),
(452,679,o)
);
}
);
userData = {
assembly = "NPUSHB[ ]	/* 56 values pushed */
0 5 0 2 0 5 2 128 0 2 1 0 2 1 126 6 1 0 0 4 97 0 4 4 27 77 0 1 1 3 97 0 3 3 28 3 78 1 0 37 36 32 30 22 20 16 15 11 9 0 39 1 39 7 7 22 
CALL[ ]	/* CallFunction */";
};
width = 699;
}
);
note = uni0421;
unicode = 1057;
},
{
glyphname = G;
kernLeft = O;
kernRight = D;
layers = (
{
layerId = m01;
shapes = (
{
closed = 1;
nodes = (
(473,664,o),
(531,634,o),
(579,589,o),
(593,558,q),
(643,558,l),
(625,601,o),
(570,660,o),
(500,698,o),
(418,715,o),
(373,715,qs),
(292,715,o),
(171,656,o),
(92,556,o),
(53,420,o),
(54,344,qs),
(55,269,o),
(95,141,o),
(175,46,o),
(295,-8,o),
(375,-8,qs),
(442,-8,o),
(552,36,o),
(628,116,o),
(670,227,o),
(670,294,qs),
(670,333,l),
(384,333,l),
(384,296,l),
(632,296,l),
(631,236,o),
(596,137,o),
(531,66,o),
(437,28,o),
(376,28,qs),
(304,28,o),
(199,79,o),
(131,167,o),
(99,284,o),
(99,349,qs),
(99,415,o),
(130,534,o),
(197,625,o),
(302,679,o),
(375,679,qs),
(407,679,o)
);
}
);
userData = {
assembly = "NPUSHB[ ]	/* 59 values pushed */
0 6 0 3 0 6 3 128 0 3 0 2 1 3 2 103 7 1 0 0 5 97 0 5 5 46 77 0 1 1 4 97 0 4 4 47 4 78 1 0 40 39 35 33 25 23 18 17 16 15 11 9 0 44 1 44 8 8 22 
CALL[ ]	/* CallFunction */";
};
width = 724;
}
);
note = G;
unicode = 71;
},
{
glyphname = uni041E;
kernLeft = uni0417;
kernRight = uni0417;
layers = (
{
layerId = m01;
shapes = (
{
closed = 1;
nodes = (
(589,47,o),
(671,143,o),
(713,275,o),
(713,353,qs),
(713,431,o),
(671,563,o),
(589,660,o),
(465,715,o),
(384,715,qs),
(302,715,o),
(179,660,o),
(96,564,o),
(54,431,o),
(54,353,qs),
(54,275,o),
(96,143,o),
(179,46,o),
(302,-8,o),
(384,-8,qs),
(465,-8,o)
);
},
{
closed = 1;
nodes = (
(563,627,o),
(634,538,o),
(668,420,o),
(668,353,qs),
(668,285,o),
(633,167,o),
(563,79,o),
(456,28,o),
(384,28,qs),
(313,28,o),
(206,79,o),
(134,168,o),
(98,286,o),
(98,353,qs),
(98,420,o),
(133,538,o),
(204,627,o),
(312,679,o),
(384,679,qs),
(456,679,o)
);
}
);
userData = {
assembly = "NPUSHB[ ]	/* 42 values pushed */
5 1 2 2 1 97 0 1 1 27 77 0 3 3 0 97 4 1 0 0 28 0 78 21 20 1 0 31 29 20 39 21 39 11 9 0 19 1 19 6 7 22 
CALL[ ]	/* CallFunction */";
};
width = 767;
}
);
note = uni041E;
unicode = 1054;
},
{
glyphname = Q;
kernLeft = O;
kernRight = D;
layers = (
{
layerId = m01;
shapes = (
{
closed = 1;
nodes = (
(545,27,q),
(657,-129,l),
(694,-104,l),
(583,50,l),
(648,102,o),
(713,258,o),
(713,353,qs),
(713,431,o),
(671,563,o),
(589,660,o),
(465,715,o),
(384,715,qs),
(302,715,o),
(179,660,o),
(96,564,o),
(54,431,o),
(54,353,qs),
(54,275,o),
(96,143,o),
(179,46,o),
(302,-8,o),
(384,-8,qs),
(469,-8,o)
);
},
{
closed = 1;
nodes = (
(563,627,o),
(634,538,o),
(668,420,o),
(668,353,qs),
(668,285,o),
(634,167,o),
(564,79,o),
(457,28,o),
(384,28,qs),
(312,28,o),
(205,79,o),
(134,168,o),
(98,286,o),
(98,353,qs),
(98,420,o),
(133,538,o),
(204,627,o),
(312,679,o),
(384,679,qs),
(456,679,o)
);
}
);
userData = {
assembly = "NPUSHB[ ]	/* 57 values pushed */
18 1 3 2 21 1 0 3 2 76 20 19 2 0 73 5 1 2 2 1 97 0 1 1 46 77 0 3 3 0 97 4 1 0 0 47 0 78 24 23 1 0 34 32 23 42 24 42 11 9 0 22 1 22 6 8 22 
CALL[ ]	/* CallFunction */";
};
width = 767;
}
);
note = Q;
unicode = 81;
},
{
glyphname = J;
layers = (
{
layerId = m01;
shapes = (
{
closed = 1;
nodes = (
(61,71,o),
(168,-8,o),
(254,-8,qs),
(319,-8,o),
(400,34,o),
(445,103,o),
(460,190,o),
(460,235,qs),
(460,707,l),
(417,707,l),
(417,243,ls),
(417,200,o),
(405,122,o),
(370,63,o),
(307,28,o),
(257,28,qs),
(187,28,o),
(106,92,o),
(95,161,q),
(48,161,l)
);
}
);
userData = {
assembly = "NPUSHB[ ]	/* 37 values pushed */
4 1 3 1 0 1 3 0 128 0 1 1 38 77 0 0 0 2 97 0 2 2 47 2 78 0 0 0 19 0 19 37 21 34 5 8 25 
CALL[ ]	/* CallFunction */";
};
width = 548;
}
);
note = J;
unicode = 74;
},
{
glyphname = K_alt;
kernRight = K_alt;
layers = (
{
layerId = m01;
shapes = (
{
closed = 1;
nodes = (
(135,231,l),
(259,364,l),
(529,0,l),
(579,0,l),
(289,392,l),
(583,707,l),
(533,707,l),
(135,284,l),
(135,707,l),
(93,707,l),
(93,0,l),
(135,0,l)
);
}
);
userData = {
assembly = "NPUSHB[ ]	/* 35 values pushed */
10 9 6 3 4 2 0 1 76 1 1 0 0 20 77 4 3 2 2 2 21 2 78 0 0 0 11 0 11 18 18 17 5 7 25 
CALL[ ]	/* CallFunction */";
};
width = 599;
}
);
note = K_alt;
},
{
glyphname = K;
kernRight = K_alt;
layers = (
{
layerId = m01;
shapes = (
{
closed = 1;
nodes = (
(135,323,l),
(293,323,l),
(528,0,l),
(579,0,l),
(324,355,l),
(576,707,l),
(528,707,l),
(280,360,l),
(135,360,l),
(135,707,l),
(93,707,l),
(93,0,l),
(135,0,l)
);
}
);
userData = {
assembly = "NPUSHB[ ]	/* 42 values pushed */
7 1 4 1 1 76 0 1 0 4 3 1 4 103 2 1 0 0 38 77 6 5 2 3 3 39 3 78 0 0 0 12 0 12 17 18 17 17 17 7 8 27 
CALL[ ]	/* CallFunction */";
};
width = 599;
}
);
note = K;
unicode = 75;
},
{
glyphname = k_alt;
layers = (
{
layerId = m01;
shapes = (
{
closed = 1;
nodes = (
(115,165,l),
(228,283,l),
(440,0,l),
(487,0,l),
(257,310,l),
(467,527,l),
(418,527,l),
(115,216,l),
(115,707,l),
(73,707,l),
(73,0,l),
(115,0,l)
);
}
);
userData = {
assembly = "NPUSHB[ ]	/* 39 values pushed */
10 9 6 3 4 2 1 1 76 0 0 0 20 77 0 1 1 22 77 4 3 2 2 2 21 2 78 0 0 0 11 0 11 18 18 17 5 7 25 
CALL[ ]	/* CallFunction */";
};
width = 507;
}
);
note = k_alt;
},
{
glyphname = k;
layers = (
{
layerId = m01;
shapes = (
{
closed = 1;
nodes = (
(115,246,l),
(260,246,l),
(438,0,l),
(486,0,l),
(292,273,l),
(468,527,l),
(421,527,l),
(252,281,l),
(115,281,l),
(115,707,l),
(73,707,l),
(73,0,l),
(115,0,l)
);
}
);
userData = {
assembly = "NPUSHB[ ]	/* 46 values pushed */
7 1 4 1 1 76 0 1 0 4 3 1 4 103 0 0 0 38 77 0 2 2 41 77 6 5 2 3 3 39 3 78 0 0 0 12 0 12 17 18 17 17 17 7 8 27 
CALL[ ]	/* CallFunction */";
};
width = 499;
}
);
note = k;
unicode = 107;
},
{
glyphname = i_alt;
layers = (
{
layerId = m01;
shapes = (
{
closed = 1;
nodes = (
(153,527,l),
(18,527,l),
(18,492,l),
(111,492,l),
(111,0,l),
(153,0,l)
);
},
{
closed = 1;
nodes = (
(90,706,o),
(90,687,qs),
(90,669,o),
(113,648,o),
(130,648,qs),
(148,648,o),
(170,669,o),
(170,687,qs),
(170,704,o),
(148,726,o),
(130,726,qs),
(113,726,o)
);
}
);
userData = {
assembly = "MPPEM[ ]	/* MeasurePixelPerEm */
PUSHB[ ]	/* 1 value pushed */
44 
LT[ ]	/* LessThan */
IF[ ]	/* If */
NPUSHB[ ]	/* 28 values pushed */
0 4 4 3 97 6 1 3 3 27 77 0 0 0 1 95 0 1 1 22 77 5 1 2 2 21 2 78 
ELSE[ ]	/* Else */
NPUSHB[ ]	/* 26 values pushed */
6 1 3 0 4 1 3 4 105 0 0 0 1 95 0 1 1 22 77 5 1 2 2 21 2 78 
EIF[ ]	/* EndIf */
NPUSHB[ ]	/* 19 values pushed */
7 6 0 0 13 11 6 17 7 17 0 5 0 5 17 17 7 7 24 
CALL[ ]	/* CallFunction */";
};
width = 236;
}
);
note = i_alt;
},
{
glyphname = j_alt;
layers = (
{
layerId = m01;
shapes = (
{
closed = 1;
nodes = (
(25,527,l),
(25,492,l),
(129,492,l),
(129,-26,ls),
(129,-66,o),
(113,-119,o),
(79,-151,o),
(25,-163,o),
(-12,-161,q),
(-12,-196,l),
(12,-196,ls),
(97,-196,o),
(171,-117,o),
(171,-32,qs),
(171,527,l)
);
},
{
closed = 1;
nodes = (
(103,706,o),
(103,687,qs),
(103,669,o),
(127,648,o),
(144,648,qs),
(162,648,o),
(184,669,o),
(184,687,qs),
(184,704,o),
(162,726,o),
(144,726,qs),
(127,726,o)
);
}
);
userData = {
assembly = "MPPEM[ ]	/* MeasurePixelPerEm */
PUSHB[ ]	/* 1 value pushed */
20 
LT[ ]	/* LessThan */
IF[ ]	/* If */
NPUSHB[ ]	/* 32 values pushed */
0 5 5 4 97 6 1 4 4 27 77 0 2 2 3 95 0 3 3 22 77 0 1 1 0 97 0 0 0 24 0 78 
ELSE[ ]	/* Else */
MPPEM[ ]	/* MeasurePixelPerEm */
PUSHB[ ]	/* 1 value pushed */
44 
LT[ ]	/* LessThan */
IF[ ]	/* If */
NPUSHB[ ]	/* 29 values pushed */
0 1 0 0 1 0 101 0 5 5 4 97 6 1 4 4 27 77 0 2 2 3 95 0 3 3 22 2 78 
ELSE[ ]	/* Else */
NPUSHB[ ]	/* 27 values pushed */
6 1 4 0 5 3 4 5 105 0 1 0 0 1 0 101 0 2 2 3 95 0 3 3 22 2 78 
EIF[ ]	/* EndIf */
EIF[ ]	/* EndIf */
NPUSHB[ ]	/* 15 values pushed */
16 15 22 20 15 26 16 26 17 21 17 34 7 7 26 
CALL[ ]	/* CallFunction */";
};
width = 250;
}
);
note = j_alt;
},
{
glyphname = s_alt;
kernLeft = d;
layers = (
{
layerId = m01;
shapes = (
{
closed = 1;
nodes = (
(327,490,o),
(372,473,o),
(409,445,o),
(418,426,q),
(460,426,l),
(451,455,o),
(408,496,o),
(353,522,o),
(290,534,o),
(260,534,qs),
(225,534,o),
(152,520,o),
(92,488,o),
(54,433,o),
(54,393,qs),
(54,346,o),
(95,291,o),
(159,261,o),
(235,247,o),
(271,242,qs),
(289,239,o),
(324,234,o),
(338,231,qs),
(358,226,o),
(395,213,o),
(424,192,o),
(441,159,o),
(441,134,qs),
(441,99,o),
(405,58,o),
(353,36,o),
(293,29,o),
(268,29,qs),
(244,29,o),
(193,37,o),
(144,55,o),
(103,86,o),
(90,109,q),
(43,109,l),
(54,78,o),
(103,34,o),
(165,6,o),
(235,-7,o),
(268,-7,qs),
(305,-7,o),
(381,6,o),
(443,39,o),
(483,95,o),
(483,137,qs),
(483,193,o),
(419,252,o),
(366,263,qs),
(349,266,o),
(310,273,o),
(268,280,o),
(227,286,o),
(210,289,qs),
(190,293,o),
(149,307,o),
(116,331,o),
(95,368,o),
(96,395,qs),
(97,426,o),
(128,467,o),
(176,489,o),
(232,498,o),
(258,498,qs),
(279,498,o)
);
}
);
userData = {
assembly = "NPUSHB[ ]	/* 56 values pushed */
0 5 0 2 0 5 2 128 0 2 3 0 2 3 126 6 1 0 0 4 97 0 4 4 29 77 0 3 3 1 97 0 1 1 30 1 78 1 0 63 62 58 56 35 33 29 28 24 22 0 67 1 67 7 7 22 
CALL[ ]	/* CallFunction */";
};
width = 528;
}
);
note = s_alt;
},
{
glyphname = s;
kernLeft = d;
layers = (
{
layerId = m01;
shapes = (
{
closed = 1;
nodes = (
(314,490,o),
(354,472,o),
(386,444,o),
(395,425,q),
(437,425,l),
(428,454,o),
(390,495,o),
(339,522,o),
(280,534,o),
(251,534,qs),
(215,534,o),
(145,521,o),
(91,488,o),
(58,434,o),
(58,393,qs),
(58,350,o),
(94,297,o),
(150,264,o),
(219,248,o),
(248,243,qs),
(265,240,o),
(297,234,o),
(311,231,qs),
(328,227,o),
(367,214,o),
(399,192,o),
(418,159,o),
(418,134,qs),
(418,102,o),
(387,61,o),
(340,38,o),
(283,29,o),
(257,29,qs),
(234,29,o),
(186,37,o),
(141,55,o),
(102,86,o),
(90,109,q),
(43,109,l),
(53,78,o),
(99,34,o),
(157,6,o),
(224,-7,o),
(256,-7,qs),
(292,-7,o),
(365,7,o),
(423,40,o),
(459,96,o),
(459,139,qs),
(459,193,o),
(394,249,o),
(342,262,qs),
(310,270,o),
(243,281,o),
(212,288,qs),
(191,293,o),
(151,308,o),
(119,333,o),
(99,368,o),
(99,394,qs),
(99,429,o),
(130,471,o),
(177,492,o),
(229,498,o),
(250,498,qs),
(271,498,o)
);
}
);
userData = {
assembly = "NPUSHB[ ]	/* 56 values pushed */
0 5 0 2 0 5 2 128 0 2 3 0 2 3 126 6 1 0 0 4 97 0 4 4 49 77 0 3 3 1 97 0 1 1 50 1 78 1 0 61 60 56 54 33 31 27 26 22 20 0 65 1 65 7 8 22 
CALL[ ]	/* CallFunction */";
};
width = 504;
}
);
note = s;
unicode = 115;
},
{
glyphname = c_alt;
kernLeft = d;
layers = (
{
layerId = m01;
shapes = (
{
closed = 1;
nodes = (
(465,38,o),
(494,90,q),
(446,90,l),
(422,55,o),
(341,29,o),
(300,29,qs),
(247,29,o),
(168,66,o),
(116,130,o),
(91,215,o),
(91,263,qs),
(91,313,o),
(117,399,o),
(170,462,o),
(250,498,o),
(303,498,qs),
(345,498,o),
(421,464,o),
(441,429,q),
(487,429,l),
(473,459,o),
(434,499,o),
(385,523,o),
(329,534,o),
(299,534,qs),
(237,534,o),
(144,494,o),
(81,423,o),
(49,323,o),
(49,263,qs),
(49,204,o),
(80,105,o),
(142,33,o),
(235,-7,o),
(297,-7,qs),
(357,-7,o)
);
}
);
userData = {
assembly = "NPUSHB[ ]	/* 56 values pushed */
0 2 3 5 3 2 5 128 0 5 4 3 5 4 126 0 3 3 1 97 0 1 1 29 77 0 4 4 0 97 6 1 0 0 30 0 78 1 0 33 32 30 28 20 18 16 15 11 9 0 35 1 35 7 7 22 
CALL[ ]	/* CallFunction */";
};
width = 540;
}
);
note = c_alt;
},
{
glyphname = copyright;
layers = (
{
layerId = m01;
shapes = (
{
closed = 1;
nodes = (
(227,652,o),
(122,540,o),
(65,385,o),
(65,292,qs),
(65,199,o),
(120,45,o),
(225,-67,o),
(376,-129,o),
(471,-129,qs),
(566,-129,o),
(717,-67,o),
(822,45,o),
(877,199,o),
(877,292,qs),
(877,385,o),
(820,540,o),
(715,652,o),
(564,715,o),
(471,715,qs),
(378,715,o)
);
},
{
closed = 1;
nodes = (
(692,618,o),
(785,515,o),
(835,374,o),
(835,292,qs),
(835,210,o),
(786,70,o),
(693,-33,o),
(557,-92,o),
(471,-92,qs),
(385,-92,o),
(250,-34,o),
(156,69,o),
(107,209,o),
(107,292,qs),
(107,375,o),
(157,516,o),
(251,619,o),
(386,677,o),
(471,677,qs),
(556,677,o)
);
},
{
closed = 1;
nodes = (
(624,133,o),
(643,184,q),
(604,184,l),
(589,149,o),
(522,119,o),
(484,119,qs),
(445,119,o),
(389,147,o),
(353,195,o),
(336,258,o),
(336,293,qs),
(336,328,o),
(352,391,o),
(387,439,o),
(445,467,o),
(487,467,qs),
(525,467,o),
(581,436,o),
(595,401,q),
(634,401,l),
(616,454,o),
(538,499,o),
(484,499,qs),
(437,499,o),
(367,467,o),
(321,411,o),
(298,336,o),
(298,293,qs),
(298,249,o),
(321,173,o),
(367,118,o),
(436,87,o),
(483,87,qs),
(539,87,o)
);
}
);
userData = {
assembly = "PUSHB[ ]	/* 2 values pushed */
6 100 
WCVTP[ ]	/* WriteCVTInPixels */
NPUSHB[ ]	/* 93 values pushed */
0 6 7 9 7 6 9 128 0 9 8 7 9 8 126 10 1 0 11 1 2 5 0 2 105 0 5 0 7 6 5 7 105 0 8 12 1 4 3 8 4 105 0 3 1 1 3 89 0 3 3 1 97 0 1 3 1 81 41 40 21 20 1 0 71 70 68 66 58 56 54 53 51 49 40 73 41 73 31 29 20 39 21 39 11 9 0 19 1 19 13 8 22 
CALL[ ]	/* CallFunction */
PUSHB[ ]	/* 2 values pushed */
6 0 
WCVTP[ ]	/* WriteCVTInPixels */";
};
width = 942;
}
);
note = copyright;
unicode = 169;
},
{
glyphname = ampersand;
layers = (
{
layerId = m01;
shapes = (
{
closed = 1;
nodes = (
(620,0,l),
(523,109,l),
(550,143,o),
(594,238,o),
(602,285,q),
(561,285,l),
(554,247,o),
(522,175,o),
(494,137,q),
(294,370,l),
(331,388,o),
(395,430,o),
(442,480,o),
(469,537,o),
(469,572,qs),
(469,638,o),
(385,714,o),
(319,715,qs),
(241,716,o),
(146,632,o),
(146,554,qs),
(146,504,o),
(200,416,o),
(235,381,q),
(202,364,o),
(143,322,o),
(99,270,o),
(73,208,o),
(73,172,qs),
(73,127,o),
(105,60,o),
(161,15,o),
(236,-8,o),
(278,-8,qs),
(338,-8,o),
(444,28,o),
(495,76,q),
(564,0,l)
);
},
{
closed = 1;
nodes = (
(228,448,o),
(203,488,o),
(187,534,o),
(187,558,qs),
(187,616,o),
(256,680,o),
(315,679,qs),
(339,679,o),
(382,663,o),
(413,634,o),
(432,593,o),
(432,568,qs),
(432,536,o),
(400,485,o),
(352,444,o),
(295,410,o),
(271,397,q),
(257,412,o)
);
},
{
closed = 1;
nodes = (
(434,67,o),
(331,29,o),
(281,29,qs),
(248,29,o),
(190,47,o),
(145,83,o),
(119,138,o),
(119,174,qs),
(119,205,o),
(142,258,o),
(181,302,o),
(232,338,o),
(259,352,q),
(469,106,l)
);
}
);
userData = {
assembly = "NPUSHB[ ]	/* 54 values pushed */
27 13 2 2 4 69 35 28 3 5 2 2 76 0 4 4 1 97 0 1 1 46 77 0 2 2 3 95 0 3 3 39 77 0 5 5 0 97 0 0 0 47 0 78 67 65 42 20 27 46 34 6 8 27 
CALL[ ]	/* CallFunction */";
};
width = 650;
}
);
note = ampersand;
unicode = 38;
},
{
glyphname = dollar;
layers = (
{
layerId = m01;
shapes = (
{
closed = 1;
nodes = (
(268,716,o),
(185,695,o),
(122,649,o),
(85,578,o),
(85,530,qs),
(85,494,o),
(109,438,o),
(150,395,o),
(207,365,o),
(240,357,qs),
(282,346,o),
(355,328,o),
(397,317,qs),
(425,310,o),
(475,288,o),
(513,255,o),
(536,208,o),
(536,176,qs),
(536,135,o),
(500,80,o),
(443,47,o),
(372,32,o),
(338,32,qs),
(303,32,o),
(235,42,o),
(175,69,o),
(127,114,o),
(112,149,q),
(65,149,l),
(78,110,o),
(126,53,o),
(190,15,o),
(266,-5,o),
(308,-8,q),
(308,-146,l),
(350,-146,l),
(350,-8,l),
(396,-6,o),
(481,16,o),
(545,63,o),
(582,136,o),
(581,188,qs),
(580,221,o),
(556,273,o),
(516,313,o),
(464,341,o),
(434,350,qs),
(393,362,o),
(310,381,o),
(268,392,qs),
(239,400,o),
(189,422,o),
(152,455,o),
(131,502,o),
(131,536,qs),
(131,578,o),
(166,634,o),
(222,666,o),
(292,679,o),
(326,679,qs),
(358,679,o),
(419,667,o),
(470,640,o),
(507,595,o),
(515,562,q),
(558,562,l),
(544,635,o),
(433,712,o),
(356,714,q),
(356,852,l),
(313,852,l),
(313,715,l)
);
}
);
userData = {
assembly = "NPUSHB[ ]	/* 70 values pushed */
37 1 5 4 1 76 0 0 1 0 133 0 2 3 6 3 2 6 128 0 6 7 3 6 7 126 0 5 4 5 134 0 3 3 1 97 8 1 1 1 46 77 0 7 7 4 97 0 4 4 50 4 78 71 70 49 47 43 42 36 35 34 33 36 18 17 16 9 8 26 
CALL[ ]	/* CallFunction */";
};
width = 647;
}
);
note = dollar;
unicode = 36;
},
{
glyphname = parenleft;
layers = (
{
layerId = m01;
shapes = (
{
closed = 1;
nodes = (
(251,-165,o),
(184,-43,o),
(137,86,o),
(113,224,o),
(113,300,qs),
(113,377,o),
(137,516,o),
(183,644,o),
(249,765,o),
(292,824,q),
(247,824,l),
(163,715,o),
(71,442,o),
(71,300,qs),
(71,158,o),
(158,-104,o),
(243,-225,q),
(293,-225,l)
);
}
);
userData = {
assembly = "MPPEM[ ]	/* MeasurePixelPerEm */
PUSHB[ ]	/* 1 value pushed */
14 
LT[ ]	/* LessThan */
IF[ ]	/* If */
NPUSHB[ ]	/* 12 values pushed */
0 0 1 0 133 2 1 1 1 43 1 78 
ELSE[ ]	/* Else */
NPUSHB[ ]	/* 10 values pushed */
0 0 1 0 133 2 1 1 1 118 
EIF[ ]	/* EndIf */
NPUSHB[ ]	/* 10 values pushed */
0 0 0 17 0 17 22 3 8 23 
CALL[ ]	/* CallFunction */";
};
width = 267;
}
);
note = parenleft;
unicode = 40;
},
{
glyphname = parenright;
layers = (
{
layerId = m01;
shapes = (
{
closed = 1;
nodes = (
(60,704,o),
(154,450,o),
(154,299,qs),
(154,222,o),
(130,83,o),
(84,-45,o),
(17,-166,o),
(-26,-225,q),
(21,-225,l),
(105,-116,o),
(196,157,o),
(196,299,qs),
(196,441,o),
(109,703,o),
(24,824,q),
(-25,824,l)
);
}
);
userData = {
assembly = "MPPEM[ ]	/* MeasurePixelPerEm */
PUSHB[ ]	/* 1 value pushed */
14 
LT[ ]	/* LessThan */
IF[ ]	/* If */
NPUSHB[ ]	/* 12 values pushed */
2 1 1 0 1 133 0 0 0 43 0 78 
ELSE[ ]	/* Else */
NPUSHB[ ]	/* 10 values pushed */
2 1 1 0 1 133 0 0 0 118 
EIF[ ]	/* EndIf */
NPUSHB[ ]	/* 10 values pushed */
0 0 0 15 0 15 22 3 8 23 
CALL[ ]	/* CallFunction */";
};
width = 267;
}
);
note = parenright;
unicode = 41;
},
{
glyphname = cent;
layers = (
{
layerId = m01;
shapes = (
{
closed = 1;
nodes = (
(219,527,o),
(136,483,o),
(81,411,o),
(53,317,o),
(53,262,qs),
(53,207,o),
(81,113,o),
(136,43,o),
(218,-1,o),
(273,-5,q),
(273,-163,l),
(315,-163,l),
(315,-6,l),
(378,-3,o),
(482,58,o),
(506,118,q),
(461,118,l),
(441,71,o),
(355,29,o),
(302,29,qs),
(248,29,o),
(170,66,o),
(119,130,o),
(95,214,o),
(95,262,qs),
(95,311,o),
(120,397,o),
(171,461,o),
(248,498,o),
(300,498,qs),
(350,498,o),
(434,454,o),
(451,408,q),
(496,408,l),
(474,468,o),
(378,531,o),
(315,534,q),
(315,682,l),
(273,682,l),
(273,532,l)
);
}
);
userData = {
assembly = "NPUSHB[ ]	/* 65 values pushed */
39 1 1 29 1 6 2 75 0 0 1 0 133 0 2 3 5 3 2 5 128 0 5 4 3 5 4 126 0 7 6 7 134 0 3 3 1 97 0 1 1 49 77 0 4 4 6 97 0 6 6 50 6 78 17 18 18 40 34 18 17 16 8 8 30 
CALL[ ]	/* CallFunction */";
};
width = 576;
}
);
note = cent;
unicode = 162;
},
{
glyphname = section;
layers = (
{
layerId = m01;
shapes = (
{
closed = 1;
nodes = (
(331,676,o),
(370,659,o),
(402,631,o),
(410,611,q),
(447,611,l),
(439,639,o),
(403,679,o),
(355,704,o),
(298,715,o),
(270,715,qs),
(236,715,o),
(168,703,o),
(114,672,o),
(81,620,o),
(81,581,qs),
(81,554,o),
(112,501,o),
(144,485,q),
(110,464,o),
(71,400,o),
(71,363,qs),
(71,311,o),
(142,253,o),
(196,242,qs),
(226,236,o),
(300,222,o),
(333,216,qs),
(352,212,o),
(386,200,o),
(413,178,o),
(429,146,o),
(429,122,qs),
(429,96,o),
(406,60,o),
(365,38,o),
(310,27,o),
(277,27,qs),
(256,27,o),
(207,35,o),
(161,53,o),
(121,82,o),
(110,103,q),
(65,103,l),
(77,71,o),
(123,28,o),
(181,3,o),
(248,-8,o),
(281,-8,qs),
(315,-8,o),
(382,5,o),
(436,37,o),
(469,90,o),
(469,130,qs),
(469,165,o),
(432,219,o),
(396,233,q),
(467,275,o),
(467,343,qs),
(467,394,o),
(409,448,o),
(361,460,qs),
(322,471,o),
(240,486,o),
(200,497,qs),
(185,501,o),
(156,516,o),
(132,537,o),
(118,566,o),
(118,584,qs),
(118,615,o),
(146,655,o),
(189,676,o),
(242,684,o),
(267,684,qs),
(287,684,o)
);
},
{
closed = 1;
nodes = (
(247,452,o),
(292,443,o),
(337,434,o),
(360,427,qs),
(391,417,o),
(431,379,o),
(431,337,qs),
(431,320,o),
(417,291,o),
(395,267,o),
(370,250,o),
(358,246,q),
(326,253,o),
(270,262,o),
(239,269,qs),
(218,273,o),
(173,284,o),
(134,305,o),
(109,341,o),
(109,371,qs),
(109,398,o),
(146,451,o),
(175,470,q),
(200,462,o)
);
}
);
userData = {
assembly = "NPUSHB[ ]	/* 64 values pushed */
86 56 18 3 2 5 1 76 0 5 0 2 0 5 2 128 0 2 3 0 2 3 126 6 1 0 0 4 97 0 4 4 46 77 0 3 3 1 97 0 1 1 47 1 78 1 0 70 69 65 63 38 36 32 31 27 25 0 74 1 74 7 8 22 
CALL[ ]	/* CallFunction */";
};
width = 535;
}
);
note = section;
unicode = 167;
},
{
glyphname = uni04C1;
layers = (
{
layerId = m01;
shapes = (
{
closed = 1;
nodes = (
(445,328,l),
(604,328,l),
(780,0,l),
(829,0,l),
(636,357,l),
(827,707,l),
(782,707,l),
(597,365,l),
(445,365,l),
(445,707,l),
(403,707,l),
(403,365,l),
(255,365,l),
(68,707,l),
(21,707,l),
(213,357,l),
(20,0,l),
(70,0,l),
(246,328,l),
(403,328,l),
(403,0,l),
(445,0,l)
);
},
{
closed = 1;
nodes = (
(358,856,o),
(322,875,o),
(297,906,o),
(291,929,q),
(253,929,l),
(257,898,o),
(289,855,o),
(335,828,o),
(393,816,o),
(423,816,qs),
(453,816,o),
(510,829,o),
(557,856,o),
(588,899,o),
(593,929,q),
(555,929,l),
(549,906,o),
(524,875,o),
(489,856,o),
(447,848,o),
(424,848,qs),
(401,848,o)
);
}
);
userData = {
assembly = "NPUSHB[ ]	/* 78 values pushed */
16 5 2 0 3 1 76 13 1 11 10 11 133 15 1 10 0 12 2 10 12 105 5 1 3 8 1 0 1 3 0 103 6 4 2 2 2 20 77 14 9 7 3 1 1 21 1 78 23 22 0 0 39 38 34 32 28 27 22 43 23 43 0 21 0 21 17 18 17 17 17 17 18 17 17 16 7 31 
CALL[ ]	/* CallFunction */";
};
width = 849;
}
);
note = uni04C1;
unicode = 1217;
},
{
glyphname = uni04C2;
layers = (
{
layerId = m01;
shapes = (
{
closed = 1;
nodes = (
(391,247,l),
(521,247,l),
(673,0,l),
(721,0,l),
(551,277,l),
(705,527,l),
(657,527,l),
(508,282,l),
(391,282,l),
(391,527,l),
(349,527,l),
(349,282,l),
(232,282,l),
(84,527,l),
(36,527,l),
(189,277,l),
(20,0,l),
(68,0,l),
(220,247,l),
(349,247,l),
(349,0,l),
(391,0,l)
);
},
{
closed = 1;
nodes = (
(312,669,o),
(278,685,o),
(253,715,o),
(247,738,q),
(209,738,l),
(214,709,o),
(244,668,o),
(287,643,o),
(340,632,o),
(368,632,qs),
(396,632,o),
(450,643,o),
(494,668,o),
(525,709,o),
(531,738,q),
(492,738,l),
(486,715,o),
(460,685,o),
(426,669,o),
(387,663,o),
(369,663,qs),
(351,663,o)
);
}
);
userData = {
assembly = "NPUSHB[ ]	/* 78 values pushed */
16 5 2 0 3 1 76 13 1 11 10 11 133 15 1 10 0 12 2 10 12 105 5 1 3 8 1 0 1 3 0 103 6 4 2 2 2 22 77 14 9 7 3 1 1 21 1 78 23 22 0 0 39 38 34 32 28 27 22 43 23 43 0 21 0 21 17 18 17 17 17 17 18 17 17 16 7 31 
CALL[ ]	/* CallFunction */";
};
width = 741;
}
);
note = uni04C2;
unicode = 1218;
},
{
glyphname = w_alt;
kernLeft = w;
layers = (
{
layerId = m01;
shapes = (
{
closed = 1;
nodes = (
(337,396,l),
(212,36,l),
(64,527,l),
(19,527,l),
(178,0,l),
(240,0,l),
(368,361,l),
(495,0,l),
(554,0,l),
(715,527,l),
(669,527,l),
(523,36,l),
(398,396,l)
);
}
);
userData = {
assembly = "NPUSHB[ ]	/* 36 values pushed */
10 5 2 1 4 1 76 0 4 0 1 0 4 1 128 3 1 0 0 22 77 2 1 1 1 21 1 78 18 17 18 17 17 5 7 27 
CALL[ ]	/* CallFunction */";
};
width = 734;
}
);
note = w_alt;
},
{
glyphname = W_alt;
kernLeft = W;
kernRight = W;
layers = (
{
layerId = m01;
shapes = (
{
closed = 1;
nodes = (
(444,454,l),
(603,0,l),
(667,0,l),
(868,707,l),
(821,707,l),
(634,44,l),
(463,530,l),
(425,530,l),
(257,44,l),
(69,707,l),
(20,707,l),
(221,0,l),
(290,0,l)
);
}
);
userData = {
assembly = "NPUSHB[ ]	/* 40 values pushed */
11 6 3 3 3 1 1 76 2 1 0 0 20 77 0 1 1 22 77 5 4 2 3 3 21 3 78 0 0 0 12 0 12 17 18 18 17 6 7 26 
CALL[ ]	/* CallFunction */";
};
width = 888;
}
);
note = W_alt;
},
{
glyphname = zero;
layers = (
{
layerId = m01;
shapes = (
{
closed = 1;
nodes = (
(575,550,o),
(513,652,o),
(409,715,o),
(331,715,qs),
(253,715,o),
(150,652,o),
(89,550,o),
(63,420,o),
(63,353,qs),
(63,285,o),
(88,155,o),
(150,54,o),
(253,-8,o),
(331,-8,qs),
(409,-8,o),
(513,54,o),
(575,156,o),
(601,285,o),
(601,353,qs),
(601,420,o)
);
},
{
closed = 1;
nodes = (
(125,524,o),
(174,619,o),
(261,679,o),
(331,679,qs),
(401,679,o),
(489,619,o),
(538,524,o),
(556,408,o),
(556,353,qs),
(556,296,o),
(538,181,o),
(489,87,o),
(401,28,o),
(331,28,qs),
(261,28,o),
(174,87,o),
(125,181,o),
(107,296,o),
(107,353,qs),
(107,408,o)
);
}
);
userData = {
assembly = "NPUSHB[ ]	/* 28 values pushed */
0 3 3 1 97 0 1 1 46 77 0 2 2 0 97 0 0 0 47 0 78 40 40 40 36 4 8 26 
CALL[ ]	/* CallFunction */";
};
width = 663;
}
);
note = zero;
unicode = 48;
},
{
glyphname = one;
layers = (
{
layerId = m01;
shapes = (
{
closed = 1;
nodes = (
(183,707,l),
(179,679,o),
(158,649,o),
(118,635,o),
(65,631,o),
(29,631,q),
(29,602,l),
(172,602,l),
(172,0,l),
(215,0,l),
(215,707,l)
);
}
);
userData = {
assembly = "NPUSHB[ ]	/* 26 values pushed */
0 2 0 1 0 2 1 103 0 3 3 38 77 0 0 0 39 0 78 20 17 17 16 4 8 26 
CALL[ ]	/* CallFunction */";
};
width = 328;
}
);
note = one;
unicode = 49;
},
{
glyphname = two;
layers = (
{
layerId = m01;
shapes = (
{
closed = 1;
nodes = (
(417,399,o),
(363,331,o),
(297,270,o),
(267,243,qs),
(36,35,l),
(36,0,l),
(504,0,l),
(504,38,l),
(100,38,l),
(317,234,ls),
(351,265,o),
(416,327,o),
(466,395,o),
(496,473,o),
(496,520,qs),
(496,568,o),
(464,641,o),
(407,690,o),
(328,715,o),
(282,715,qs),
(201,715,o),
(87,655,o),
(62,591,q),
(111,591,l),
(121,615,o),
(157,649,o),
(202,670,o),
(252,679,o),
(278,679,qs),
(315,679,o),
(379,658,o),
(425,618,o),
(452,558,o),
(452,518,qs),
(452,475,o)
);
}
);
userData = {
assembly = "NPUSHB[ ]	/* 43 values pushed */
29 1 4 3 1 76 0 1 0 3 0 1 3 128 0 0 0 2 97 0 2 2 46 77 0 3 3 4 95 0 4 4 39 4 78 17 26 34 20 36 5 8 27 
CALL[ ]	/* CallFunction */";
};
width = 560;
}
);
note = two;
unicode = 50;
},
{
glyphname = three;
layers = (
{
layerId = m01;
shapes = (
{
closed = 1;
nodes = (
(49,84,o),
(98,34,o),
(164,4,o),
(240,-8,o),
(278,-8,qs),
(326,-8,o),
(415,13,o),
(484,59,o),
(526,134,o),
(526,188,qs),
(526,223,o),
(504,285,o),
(461,334,o),
(397,365,o),
(354,368,q),
(391,377,o),
(445,414,o),
(478,462,o),
(493,518,o),
(493,545,qs),
(493,592,o),
(456,657,o),
(397,697,o),
(320,715,o),
(279,715,qs),
(248,715,o),
(178,706,o),
(116,679,o),
(68,629,o),
(59,588,q),
(105,588,l),
(114,615,o),
(150,650,o),
(197,671,o),
(251,679,o),
(278,679,qs),
(312,679,o),
(375,664,o),
(423,630,o),
(452,576,o),
(452,537,qs),
(452,494,o),
(412,434,o),
(350,396,o),
(276,379,o),
(242,379,qs),
(191,379,l),
(191,342,l),
(262,342,ls),
(302,342,o),
(380,331,o),
(442,298,o),
(481,237,o),
(481,188,qs),
(481,143,o),
(445,82,o),
(388,45,o),
(316,28,o),
(279,28,qs),
(252,28,o),
(193,36,o),
(139,57,o),
(96,93,o),
(85,121,q),
(39,121,l)
);
}
);
userData = {
assembly = "NPUSHB[ ]	/* 71 values pushed */
0 4 3 2 3 4 2 128 0 6 2 1 2 6 1 128 9 1 8 1 0 1 8 0 128 0 2 0 1 8 2 1 103 0 3 3 5 97 0 5 5 46 77 0 0 0 7 97 0 7 7 47 7 78 0 0 0 64 0 64 40 25 36 20 40 33 40 36 10 8 30 
CALL[ ]	/* CallFunction */";
};
width = 589;
}
);
note = three;
unicode = 51;
},
{
glyphname = four;
layers = (
{
layerId = m01;
shapes = (
{
closed = 1;
nodes = (
(43,151,l),
(437,151,l),
(437,0,l),
(479,0,l),
(479,151,l),
(570,151,l),
(570,189,l),
(479,189,l),
(479,707,l),
(415,707,l),
(43,190,l)
);
},
{
closed = 1;
nodes = (
(437,671,l),
(437,189,l),
(90,189,l)
);
}
);
userData = {
assembly = "NPUSHB[ ]	/* 43 values pushed */
12 10 2 1 0 1 76 6 5 2 1 4 1 2 3 1 2 103 0 0 0 38 77 0 3 3 39 3 78 11 11 11 13 11 13 17 17 17 17 16 7 8 27 
CALL[ ]	/* CallFunction */";
};
width = 613;
}
);
note = four;
unicode = 52;
},
{
glyphname = seven;
layers = (
{
layerId = m01;
shapes = (
{
closed = 1;
nodes = (
(470,665,l),
(470,707,l),
(18,707,l),
(18,669,l),
(424,669,l),
(121,0,l),
(169,0,l)
);
}
);
userData = {
assembly = "NPUSHB[ ]	/* 34 values pushed */
5 1 2 0 1 76 0 0 0 1 95 0 1 1 38 77 3 1 2 2 39 2 78 0 0 0 6 0 6 17 17 4 8 24 
CALL[ ]	/* CallFunction */";
};
width = 498;
}
);
note = seven;
unicode = 55;
},
{
glyphname = eight;
layers = (
{
layerId = m01;
shapes = (
{
closed = 1;
nodes = (
(527,278,o),
(487,327,o),
(427,361,o),
(387,366,q),
(455,384,o),
(521,473,o),
(520,535,qs),
(519,581,o),
(483,648,o),
(423,693,o),
(346,715,o),
(305,715,qs),
(263,715,o),
(185,694,o),
(125,650,o),
(89,582,o),
(89,535,qs),
(88,473,o),
(153,380,o),
(216,364,q),
(179,360,o),
(122,327,o),
(82,278,o),
(61,218,o),
(61,187,qs),
(61,133,o),
(101,59,o),
(168,13,o),
(255,-8,o),
(303,-8,qs),
(351,-8,o),
(439,13,o),
(506,60,o),
(547,134,o),
(547,187,qs),
(547,218,o)
);
},
{
closed = 1;
nodes = (
(402,662,o),
(451,626,o),
(481,568,o),
(481,527,qs),
(481,490,o),
(448,435,o),
(397,399,o),
(335,381,o),
(306,381,qs),
(273,381,o),
(209,398,o),
(159,435,o),
(128,492,o),
(128,531,qs),
(128,571,o),
(159,627,o),
(208,663,o),
(272,679,o),
(305,679,qs),
(338,679,o)
);
},
{
closed = 1;
nodes = (
(412,328,o),
(469,290,o),
(505,228,o),
(505,185,qs),
(505,141,o),
(470,81,o),
(413,44,o),
(342,28,o),
(305,28,qs),
(267,28,o),
(195,44,o),
(137,81,o),
(102,141,o),
(102,185,qs),
(102,228,o),
(138,290,o),
(196,328,o),
(269,346,o),
(305,346,qs),
(341,346,o)
);
}
);
userData = {
assembly = "NPUSHB[ ]	/* 60 values pushed */
31 15 2 4 3 1 76 0 3 7 1 4 5 3 4 105 6 1 2 2 1 97 0 1 1 46 77 0 5 5 0 97 0 0 0 47 0 78 57 56 37 36 67 65 56 75 57 75 47 45 36 55 37 55 24 22 36 8 8 23 
CALL[ ]	/* CallFunction */";
};
width = 608;
}
);
note = eight;
unicode = 56;
},
{
glyphname = nine;
layers = (
{
layerId = m01;
shapes = (
{
closed = 1;
nodes = (
(394,291,o),
(453,328,o),
(496,386,o),
(507,426,q),
(510,400,o),
(512,367,o),
(512,354,qs),
(512,300,o),
(496,185,o),
(449,90,o),
(362,28,o),
(291,28,qs),
(267,28,o),
(220,37,o),
(176,57,o),
(140,87,o),
(128,108,q),
(76,108,l),
(89,77,o),
(135,33,o),
(193,5,o),
(258,-8,o),
(290,-8,qs),
(368,-8,o),
(471,50,o),
(531,146,o),
(555,271,o),
(555,339,qs),
(555,402,o),
(532,535,o),
(474,645,o),
(374,715,o),
(295,715,qs),
(244,715,o),
(158,683,o),
(95,625,o),
(60,541,o),
(60,489,qs),
(60,437,o),
(95,357,o),
(156,302,o),
(237,273,o),
(282,273,qs),
(322,273,o)
);
},
{
closed = 1;
nodes = (
(135,604,o),
(186,652,o),
(254,679,o),
(293,679,qs),
(335,679,o),
(404,650,o),
(453,598,o),
(481,528,o),
(481,487,qs),
(481,448,o),
(450,383,o),
(398,337,o),
(329,312,o),
(292,312,qs),
(205,312,o),
(105,411,o),
(105,498,qs),
(105,537,o)
);
}
);
userData = {
assembly = "NPUSHB[ ]	/* 65 values pushed */
39 1 5 6 1 76 0 3 0 4 0 3 4 128 0 5 7 1 0 3 5 0 105 0 6 6 1 97 0 1 1 46 77 0 4 4 2 97 0 2 2 47 2 78 1 0 58 56 48 46 32 30 26 25 21 19 11 9 0 43 1 43 8 8 22 
CALL[ ]	/* CallFunction */";
};
width = 617;
}
);
note = nine;
unicode = 57;
},
{
glyphname = uni0430;
kernLeft = a;
layers = (
{
layerId = m01;
shapes = (
{
closed = 1;
nodes = (
(482,0,l),
(482,287,ls),
(482,347,o),
(456,448,o),
(422,482,qs),
(398,506,o),
(324,534,o),
(276,534,qs),
(257,534,o),
(203,528,o),
(148,507,o),
(99,467,o),
(86,432,q),
(133,432,l),
(144,452,o),
(178,478,o),
(217,493,o),
(259,498,o),
(278,498,qs),
(323,497,o),
(385,464,o),
(423,408,o),
(440,333,o),
(440,291,q),
(248,291,ls),
(210,291,o),
(139,277,o),
(85,243,o),
(53,185,o),
(53,142,qs),
(53,98,o),
(90,41,o),
(145,6,o),
(208,-7,o),
(234,-7,qs),
(376,-5,o),
(440,81,q),
(440,0,l)
);
},
{
closed = 1;
nodes = (
(440,187,ls),
(440,146,o),
(404,87,o),
(346,48,o),
(274,29,o),
(237,29,qs),
(210,29,o),
(158,43,o),
(119,71,o),
(95,116,o),
(95,147,qs),
(95,185,o),
(129,229,o),
(181,251,o),
(244,256,o),
(273,256,qs),
(440,256,l)
);
}
);
userData = {
assembly = "PUSHB[ ]	/* 6 values pushed */
0 1 7 6 1 76 
MPPEM[ ]	/* MeasurePixelPerEm */
PUSHB[ ]	/* 1 value pushed */
12 
LT[ ]	/* LessThan */
IF[ ]	/* If */
NPUSHB[ ]	/* 39 values pushed */
0 3 2 1 2 3 1 128 0 1 8 1 6 7 1 6 103 0 2 2 4 97 0 4 4 29 77 0 7 7 0 97 5 1 0 0 28 0 78 
ELSE[ ]	/* Else */
MPPEM[ ]	/* MeasurePixelPerEm */
PUSHB[ ]	/* 1 value pushed */
39 
LT[ ]	/* LessThan */
IF[ ]	/* If */
NPUSHB[ ]	/* 39 values pushed */
0 3 2 1 2 3 1 128 0 1 8 1 6 7 1 6 103 0 2 2 4 97 0 4 4 29 77 0 7 7 0 97 5 1 0 0 30 0 78 
ELSE[ ]	/* Else */
NPUSHB[ ]	/* 43 values pushed */
0 3 2 1 2 3 1 128 0 1 8 1 6 7 1 6 103 0 2 2 4 97 0 4 4 29 77 0 5 5 21 77 0 7 7 0 97 0 0 0 30 0 78 
EIF[ ]	/* EndIf */
EIF[ ]	/* EndIf */
NPUSHB[ ]	/* 17 values pushed */
39 38 49 47 38 54 39 54 22 36 20 36 40 33 9 7 28 
CALL[ ]	/* CallFunction */";
};
width = 552;
}
);
note = uni0430;
unicode = 1072;
},
{
glyphname = uni0435;
kernLeft = uni0444;
layers = (
{
layerId = m01;
shapes = (
{
closed = 1;
nodes = (
(524,308,o),
(499,410,o),
(443,488,o),
(358,534,o),
(298,534,qs),
(238,534,o),
(146,491,o),
(84,418,o),
(53,319,o),
(53,263,qs),
(53,204,o),
(83,105,o),
(144,33,o),
(236,-7,o),
(299,-7,qs),
(330,-7,o),
(393,6,o),
(450,33,o),
(496,76,o),
(509,106,q),
(462,106,l),
(451,85,o),
(415,55,o),
(372,37,o),
(326,29,o),
(304,29,qs),
(250,29,o),
(173,62,o),
(123,121,o),
(97,203,o),
(95,252,q),
(524,252,l)
);
},
{
closed = 1;
nodes = (
(98,328,o),
(126,404,o),
(177,463,o),
(248,498,o),
(294,498,qs),
(340,498,o),
(409,464,o),
(456,406,o),
(480,329,o),
(482,287,q),
(96,287,l)
);
}
);
userData = {
assembly = "NPUSHB[ ]	/* 60 values pushed */
0 1 4 0 4 1 0 128 8 1 6 7 1 4 1 6 4 103 0 5 5 3 97 0 3 3 29 77 0 0 0 2 97 0 2 2 30 2 78 32 32 0 0 32 42 32 42 38 36 0 31 0 31 40 36 20 36 9 7 26 
CALL[ ]	/* CallFunction */";
};
width = 578;
}
);
note = uni0435;
unicode = 1077;
},
{
glyphname = uni043E;
kernLeft = uni0444;
layers = (
{
layerId = m01;
shapes = (
{
closed = 1;
nodes = (
(170,65,o),
(119,128,o),
(95,214,o),
(95,263,qs),
(95,312,o),
(119,397,o),
(170,461,o),
(248,498,o),
(302,498,qs),
(356,498,o),
(434,461,o),
(485,397,o),
(510,312,o),
(510,263,qs),
(510,214,o),
(485,128,o),
(434,65,o),
(356,29,o),
(302,29,qs),
(248,29,o)
);
},
{
closed = 1;
nodes = (
(147,494,o),
(84,422,o),
(53,322,o),
(53,263,qs),
(53,204,o),
(84,105,o),
(147,33,o),
(240,-7,o),
(302,-7,qs),
(363,-7,o),
(457,33,o),
(520,105,o),
(552,204,o),
(552,263,qs),
(552,322,o),
(520,422,o),
(457,494,o),
(363,534,o),
(302,534,qs),
(240,534,o)
);
}
);
userData = {
assembly = "NPUSHB[ ]	/* 42 values pushed */
0 1 1 2 97 5 1 2 2 29 77 4 1 0 0 3 97 0 3 3 30 3 78 21 20 1 0 31 29 20 39 21 39 11 9 0 19 1 19 6 7 22 
CALL[ ]	/* CallFunction */";
};
width = 605;
}
);
note = uni043E;
unicode = 1086;
},
{
glyphname = uni0441;
kernLeft = uni0444;
layers = (
{
layerId = m01;
shapes = (
{
closed = 1;
nodes = (
(480,54,o),
(506,118,q),
(460,118,l),
(440,71,o),
(356,29,o),
(303,29,qs),
(249,29,o),
(171,66,o),
(120,130,o),
(95,214,o),
(95,262,qs),
(95,311,o),
(120,397,o),
(171,461,o),
(248,498,o),
(300,498,qs),
(350,498,o),
(434,455,o),
(451,408,q),
(497,408,l),
(474,471,o),
(371,534,o),
(304,534,qs),
(242,534,o),
(148,493,o),
(85,420,o),
(53,320,o),
(53,262,qs),
(53,204,o),
(84,105,o),
(146,33,o),
(238,-7,o),
(300,-7,qs),
(367,-7,o)
);
}
);
userData = {
assembly = "NPUSHB[ ]	/* 56 values pushed */
0 2 3 5 3 2 5 128 0 5 4 3 5 4 126 0 3 3 1 97 0 1 1 29 77 0 4 4 0 97 6 1 0 0 30 0 78 1 0 31 30 28 26 18 16 14 13 11 9 0 33 1 33 7 7 22 
CALL[ ]	/* CallFunction */";
};
width = 551;
}
);
note = uni0441;
unicode = 1089;
},
{
glyphname = uni0218;
layers = (
{
layerId = m01;
shapes = (
{
closed = 1;
nodes = (
(412,667,o),
(463,639,o),
(502,594,o),
(511,562,q),
(556,562,l),
(547,604,o),
(503,662,o),
(441,699,o),
(364,715,o),
(324,715,qs),
(278,715,o),
(191,695,o),
(124,651,o),
(83,580,o),
(83,528,qs),
(83,480,o),
(119,418,o),
(178,377,o),
(251,353,o),
(288,344,qs),
(314,338,o),
(371,322,o),
(401,313,qs),
(429,305,o),
(478,284,o),
(514,253,o),
(534,208,o),
(534,176,qs),
(534,137,o),
(499,81,o),
(442,45,o),
(370,28,o),
(333,28,qs),
(260,28,o),
(142,83,o),
(110,149,q),
(63,149,l),
(78,105,o),
(133,46,o),
(206,8,o),
(291,-8,o),
(335,-8,qs),
(381,-8,o),
(468,13,o),
(537,59,o),
(579,133,o),
(579,187,qs),
(579,219,o),
(556,270,o),
(517,309,o),
(463,338,o),
(433,347,qs),
(395,359,o),
(313,381,o),
(271,392,qs),
(242,400,o),
(190,421,o),
(151,454,o),
(129,501,o),
(129,535,qs),
(129,577,o),
(166,632,o),
(222,665,o),
(290,679,o),
(323,679,qs),
(352,679,o)
);
},
{
closed = 1;
nodes = (
(288,-142,o),
(288,-159,qs),
(288,-173,o),
(299,-190,o),
(315,-198,o),
(333,-200,o),
(339,-198,q),
(335,-228,o),
(301,-270,o),
(284,-280,q),
(299,-300,l),
(333,-281,o),
(374,-215,o),
(374,-174,qs),
(374,-154,o),
(355,-119,o),
(330,-119,qs),
(311,-119,o)
);
}
);
userData = {
assembly = "PUSHB[ ]	/* 5 values pushed */
73 72 2 7 73 
MPPEM[ ]	/* MeasurePixelPerEm */
PUSHB[ ]	/* 1 value pushed */
14 
LT[ ]	/* LessThan */
IF[ ]	/* If */
NPUSHB[ ]	/* 48 values pushed */
0 5 0 2 0 5 2 128 0 2 3 0 2 3 126 8 1 0 0 4 97 0 4 4 46 77 0 3 3 1 97 0 1 1 47 77 9 1 6 6 7 97 0 7 7 43 7 78 
ELSE[ ]	/* Else */
NPUSHB[ ]	/* 45 values pushed */
0 5 0 2 0 5 2 128 0 2 3 0 2 3 126 9 1 6 0 7 6 7 101 8 1 0 0 4 97 0 4 4 46 77 0 3 3 1 97 0 1 1 47 1 78 
EIF[ ]	/* EndIf */
NPUSHB[ ]	/* 27 values pushed */
67 66 1 0 78 76 66 83 67 83 61 60 56 54 33 31 29 28 24 22 0 65 1 65 10 8 22 
CALL[ ]	/* CallFunction */";
};
width = 643;
}
);
note = uni0218;
unicode = 536;
},
{
glyphname = uni0219;
kernLeft = d;
layers = (
{
layerId = m01;
shapes = (
{
closed = 1;
nodes = (
(314,490,o),
(354,472,o),
(386,444,o),
(395,425,q),
(437,425,l),
(428,454,o),
(390,495,o),
(339,522,o),
(280,534,o),
(251,534,qs),
(215,534,o),
(145,521,o),
(91,488,o),
(58,434,o),
(58,393,qs),
(58,350,o),
(94,297,o),
(150,264,o),
(219,248,o),
(252,242,qs),
(266,240,o),
(295,234,o),
(309,231,qs),
(328,226,o),
(367,214,o),
(399,192,o),
(418,159,o),
(418,134,qs),
(418,102,o),
(387,61,o),
(340,38,o),
(284,29,o),
(258,29,qs),
(236,29,o),
(187,37,o),
(141,55,o),
(102,86,o),
(90,109,q),
(43,109,l),
(53,78,o),
(99,34,o),
(157,6,o),
(224,-7,o),
(256,-7,qs),
(292,-7,o),
(365,7,o),
(423,40,o),
(459,96,o),
(459,139,qs),
(459,193,o),
(394,249,o),
(342,262,qs),
(310,270,o),
(243,281,o),
(211,289,qs),
(191,293,o),
(151,308,o),
(119,333,o),
(99,368,o),
(99,394,qs),
(99,429,o),
(130,471,o),
(177,492,o),
(229,498,o),
(250,498,qs),
(271,498,o)
);
},
{
closed = 1;
nodes = (
(213,-142,o),
(213,-159,qs),
(213,-173,o),
(224,-190,o),
(240,-198,o),
(258,-200,o),
(264,-198,q),
(260,-228,o),
(226,-270,o),
(209,-280,q),
(224,-300,l),
(258,-281,o),
(299,-215,o),
(299,-174,qs),
(299,-154,o),
(280,-119,o),
(255,-119,qs),
(236,-119,o)
);
}
);
userData = {
assembly = "PUSHB[ ]	/* 5 values pushed */
73 72 2 7 73 
MPPEM[ ]	/* MeasurePixelPerEm */
PUSHB[ ]	/* 1 value pushed */
14 
LT[ ]	/* LessThan */
IF[ ]	/* If */
NPUSHB[ ]	/* 48 values pushed */
0 5 0 2 0 5 2 128 0 2 3 0 2 3 126 8 1 0 0 4 97 0 4 4 49 77 0 3 3 1 97 0 1 1 50 77 9 1 6 6 7 97 0 7 7 43 7 78 
ELSE[ ]	/* Else */
NPUSHB[ ]	/* 45 values pushed */
0 5 0 2 0 5 2 128 0 2 3 0 2 3 126 9 1 6 0 7 6 7 101 8 1 0 0 4 97 0 4 4 49 77 0 3 3 1 97 0 1 1 50 1 78 
EIF[ ]	/* EndIf */
NPUSHB[ ]	/* 27 values pushed */
67 66 1 0 78 76 66 83 67 83 61 60 56 54 33 31 27 26 22 20 0 65 1 65 10 8 22 
CALL[ ]	/* CallFunction */";
};
width = 513;
}
);
note = uni0219;
unicode = 537;
},
{
glyphname = uni021A;
kernLeft = uni0422;
kernRight = uni0422;
layers = (
{
layerId = m01;
shapes = (
{
closed = 1;
nodes = (
(20,707,l),
(20,669,l),
(262,669,l),
(262,0,l),
(304,0,l),
(304,669,l),
(546,669,l),
(546,707,l)
);
},
{
closed = 1;
nodes = (
(243,-142,o),
(243,-159,qs),
(243,-173,o),
(254,-190,o),
(270,-198,o),
(288,-200,o),
(294,-198,q),
(290,-228,o),
(256,-270,o),
(239,-280,q),
(254,-300,l),
(288,-281,o),
(329,-215,o),
(329,-174,qs),
(329,-154,o),
(310,-119,o),
(285,-119,qs),
(266,-119,o)
);
}
);
userData = {
assembly = "PUSHB[ ]	/* 5 values pushed */
15 14 2 5 73 
MPPEM[ ]	/* MeasurePixelPerEm */
PUSHB[ ]	/* 1 value pushed */
14 
LT[ ]	/* LessThan */
IF[ ]	/* If */
NPUSHB[ ]	/* 28 values pushed */
2 1 0 0 3 95 0 3 3 38 77 0 1 1 39 77 6 1 4 4 5 97 0 5 5 43 5 78 
ELSE[ ]	/* Else */
NPUSHB[ ]	/* 25 values pushed */
6 1 4 0 5 4 5 101 2 1 0 0 3 95 0 3 3 38 77 0 1 1 39 1 78 
EIF[ ]	/* EndIf */
NPUSHB[ ]	/* 15 values pushed */
9 8 20 18 8 25 9 25 17 17 17 16 7 8 26 
CALL[ ]	/* CallFunction */";
};
width = 566;
}
);
note = uni021A;
unicode = 538;
},
{
glyphname = uni021B;
kernLeft = t;
layers = (
{
layerId = m01;
shapes = (
{
closed = 1;
nodes = (
(124,685,l),
(124,527,l),
(31,527,l),
(31,492,l),
(124,492,l),
(124,167,ls),
(124,79,o),
(202,0,o),
(284,0,qs),
(319,0,l),
(319,36,l),
(292,36,ls),
(222,36,o),
(166,103,o),
(166,171,qs),
(166,492,l),
(322,492,l),
(322,527,l),
(166,527,l),
(166,685,l)
);
},
{
closed = 1;
nodes = (
(172,-142,o),
(172,-159,qs),
(172,-173,o),
(183,-190,o),
(199,-198,o),
(217,-200,o),
(223,-198,q),
(219,-228,o),
(185,-270,o),
(168,-280,q),
(183,-300,l),
(217,-281,o),
(258,-215,o),
(258,-174,qs),
(258,-154,o),
(239,-119,o),
(214,-119,qs),
(195,-119,o)
);
}
);
userData = {
assembly = "PUSHB[ ]	/* 5 values pushed */
27 26 2 8 73 
MPPEM[ ]	/* MeasurePixelPerEm */
PUSHB[ ]	/* 1 value pushed */
14 
LT[ ]	/* LessThan */
IF[ ]	/* If */
NPUSHB[ ]	/* 39 values pushed */
0 6 6 38 77 4 1 1 1 0 95 5 1 0 0 41 77 0 2 2 3 97 0 3 3 39 77 9 1 7 7 8 97 0 8 8 43 8 78 
ELSE[ ]	/* Else */
MPPEM[ ]	/* MeasurePixelPerEm */
PUSHB[ ]	/* 1 value pushed */
22 
LT[ ]	/* LessThan */
IF[ ]	/* If */
NPUSHB[ ]	/* 36 values pushed */
9 1 7 0 8 7 8 101 0 6 6 38 77 4 1 1 1 0 95 5 1 0 0 41 77 0 2 2 3 97 0 3 3 39 3 78 
ELSE[ ]	/* Else */
NPUSHB[ ]	/* 36 values pushed */
0 6 0 6 133 9 1 7 0 8 7 8 101 4 1 1 1 0 95 5 1 0 0 41 77 0 2 2 3 97 0 3 3 39 3 78 
EIF[ ]	/* EndIf */
EIF[ ]	/* EndIf */
NPUSHB[ ]	/* 18 values pushed */
21 20 32 30 20 37 21 37 17 17 19 33 35 17 16 10 8 29 
CALL[ ]	/* CallFunction */";
};
width = 359;
}
);
note = uni021B;
unicode = 539;
},
{
glyphname = question;
layers = (
{
layerId = m01;
shapes = (
{
closed = 1;
nodes = (
(247,243,o),
(261,281,o),
(283,314,o),
(313,344,o),
(330,360,qs),
(379,406,o),
(437,492,o),
(437,549,qs),
(437,591,o),
(407,653,o),
(354,694,o),
(285,715,o),
(246,715,qs),
(218,715,o),
(156,704,o),
(100,676,o),
(55,630,o),
(43,594,q),
(91,594,l),
(99,617,o),
(132,649,o),
(173,670,o),
(221,679,o),
(244,679,qs),
(274,679,o),
(329,662,o),
(370,629,o),
(395,579,o),
(395,546,qs),
(395,521,o),
(376,476,o),
(347,434,o),
(312,397,o),
(295,381,qs),
(277,364,o),
(243,329,o),
(216,289,o),
(199,244,o),
(199,219,qs),
(199,204,l),
(247,204,l),
(247,219,ls)
);
},
{
closed = 1;
nodes = (
(184,52,o),
(184,33,qs),
(184,15,o),
(206,-7,o),
(225,-7,qs),
(242,-7,o),
(264,14,o),
(264,32,qs),
(264,52,o),
(241,73,o),
(225,73,qs),
(206,73,o)
);
}
);
userData = {
assembly = "NPUSHB[ ]	/* 52 values pushed */
0 2 1 0 1 2 0 128 0 0 4 1 0 4 126 0 1 1 3 97 0 3 3 46 77 6 1 4 4 5 97 0 5 5 50 5 78 43 42 49 47 42 53 43 53 36 20 47 16 7 8 26 
CALL[ ]	/* CallFunction */";
};
width = 498;
}
);
note = question;
unicode = 63;
},
{
glyphname = uni2116;
layers = (
{
layerId = m01;
shapes = (
{
closed = 1;
nodes = (
(752,329,l),
(752,292,l),
(1001,292,l),
(1001,329,l)
);
},
{
closed = 1;
nodes = (
(953,451,o),
(986,489,o),
(1003,542,o),
(1003,572,qs),
(1003,599,o),
(987,650,o),
(955,691,o),
(907,715,o),
(875,715,qs),
(810,715,o),
(744,634,o),
(744,572,qs),
(744,510,o),
(810,429,o),
(873,429,qs),
(904,429,o)
);
},
{
closed = 1;
nodes = (
(936,659,o),
(957,627,o),
(966,589,o),
(966,573,qs),
(966,553,o),
(957,515,o),
(936,483,o),
(901,464,o),
(875,464,qs),
(849,464,o),
(814,482,o),
(792,512,o),
(782,551,o),
(782,572,qs),
(782,593,o),
(792,632,o),
(814,662,o),
(849,680,o),
(875,680,qs),
(901,680,o)
);
},
{
closed = 1;
nodes = (
(135,0,l),
(135,659,l),
(593,0,l),
(651,0,l),
(651,707,l),
(609,707,l),
(609,49,l),
(154,707,l),
(93,707,l),
(93,0,l)
);
}
);
userData = {
assembly = "NPUSHB[ ]	/* 88 values pushed */
47 1 5 4 42 1 8 0 2 76 7 1 6 3 4 3 6 4 128 9 1 8 0 8 134 0 3 11 1 4 5 3 4 105 0 5 10 1 2 1 5 2 105 0 1 0 0 1 87 0 1 1 0 95 0 0 1 0 79 21 20 5 4 49 48 46 45 44 43 41 40 31 29 20 39 21 39 11 9 4 19 5 19 17 16 12 6 24 
CALL[ ]	/* CallFunction */";
};
width = 1073;
}
);
note = uni2116;
unicode = 8470;
},
{
glyphname = uni0401;
layers = (
{
layerId = m01;
shapes = (
{
closed = 1;
nodes = (
(164,906,o),
(164,889,qs),
(164,851,o),
(202,851,qs),
(220,851,o),
(239,873,o),
(239,889,qs),
(239,906,o),
(218,924,o),
(202,924,qs),
(187,924,o)
);
},
{
closed = 1;
nodes = (
(412,906,o),
(412,889,qs),
(412,851,o),
(449,851,qs),
(467,851,o),
(486,873,o),
(486,889,qs),
(486,906,o),
(465,924,o),
(449,924,qs),
(434,924,o)
);
},
{
closed = 1;
nodes = (
(549,0,l),
(549,38,l),
(135,38,l),
(135,332,l),
(507,332,l),
(507,370,l),
(135,370,l),
(135,669,l),
(549,669,l),
(549,707,l),
(93,707,l),
(93,0,l)
);
}
);
userData = {
assembly = "NPUSHB[ ]	/* 72 values pushed */
11 2 10 3 0 3 1 1 4 0 1 105 0 6 0 7 8 6 7 103 0 5 5 4 95 0 4 4 20 77 0 8 8 9 95 0 9 9 21 9 78 12 11 1 0 33 32 31 30 29 28 27 26 25 24 23 22 18 16 11 21 12 21 7 5 0 10 1 10 12 7 22 
CALL[ ]	/* CallFunction */";
};
width = 603;
}
);
note = uni0401;
unicode = 1025;
},
{
glyphname = asciitilde;
layers = (
{
layerId = m01;
shapes = (
{
closed = 1;
nodes = (
(130,307,o),
(137,348,o),
(155,380,o),
(185,401,o),
(208,401,qs),
(235,401,o),
(285,364,o),
(305,345,qs),
(328,323,o),
(386,280,o),
(425,280,qs),
(459,280,o),
(503,303,o),
(529,342,o),
(540,394,o),
(542,422,q),
(505,422,l),
(505,402,o),
(499,361,o),
(482,329,o),
(452,309,o),
(428,309,qs),
(399,309,o),
(352,344,o),
(329,366,qs),
(305,390,o),
(246,431,o),
(211,431,qs),
(178,431,o),
(133,407,o),
(106,367,o),
(94,316,o),
(93,288,q),
(130,288,l)
);
}
);
userData = {
assembly = "PUSHB[ ]	/* 2 values pushed */
6 100 
WCVTP[ ]	/* WriteCVTInPixels */
NPUSHB[ ]	/* 55 values pushed */
0 2 0 4 0 2 4 128 6 1 5 1 3 1 5 3 128 0 0 0 4 1 0 4 105 0 1 5 3 1 89 0 1 1 3 97 0 3 1 3 81 0 0 0 33 0 33 36 36 20 36 36 7 8 27 
CALL[ ]	/* CallFunction */
PUSHB[ ]	/* 2 values pushed */
6 0 
WCVTP[ ]	/* WriteCVTInPixels */";
};
width = 635;
}
);
note = asciitilde;
unicode = 126;
},
{
glyphname = trademark;
layers = (
{
layerId = m01;
shapes = (
{
closed = 1;
nodes = (
(181,468,l),
(181,681,l),
(271,681,l),
(271,707,l),
(64,707,l),
(64,681,l),
(154,681,l),
(154,468,l)
);
},
{
closed = 1;
nodes = (
(512,665,l),
(512,468,l),
(540,468,l),
(540,707,l),
(507,707,l),
(429,577,l),
(353,707,l),
(317,707,l),
(317,468,l),
(344,468,l),
(344,670,l),
(419,540,l),
(439,540,l)
);
}
);
userData = {
assembly = "NPUSHB[ ]	/* 59 values pushed */
19 14 9 3 8 0 1 76 9 1 8 0 3 0 8 3 128 6 5 2 1 2 1 0 8 1 0 103 6 5 2 1 1 3 95 7 4 2 3 1 3 79 8 8 8 20 8 20 17 18 17 19 17 17 17 16 10 6 30 
CALL[ ]	/* CallFunction */";
};
width = 609;
}
);
note = trademark;
unicode = 8482;
},
{
glyphname = registered;
layers = (
{
layerId = m01;
shapes = (
{
closed = 1;
nodes = (
(54,645,o),
(54,562,qs),
(54,478,o),
(153,386,o),
(235,386,qs),
(319,386,o),
(415,479,o),
(415,562,qs),
(415,603,o),
(390,670,o),
(344,718,o),
(277,745,o),
(235,745,qs),
(152,745,o)
);
},
{
closed = 1;
nodes = (
(393,635,o),
(393,562,qs),
(393,489,o),
(309,406,o),
(235,406,qs),
(162,406,o),
(76,489,o),
(76,562,qs),
(76,635,o),
(162,725,o),
(235,725,qs),
(310,725,o)
);
},
{
closed = 1;
nodes = (
(297,497,o),
(270,535,o),
(259,552,q),
(285,554,o),
(306,584,o),
(306,603,qs),
(306,629,o),
(273,655,o),
(246,655,qs),
(174,655,l),
(174,480,l),
(192,480,l),
(192,551,l),
(239,551,l),
(286,480,l),
(307,480,l)
);
},
{
closed = 1;
nodes = (
(263,638,o),
(289,623,o),
(289,603,qs),
(289,583,o),
(265,568,o),
(248,568,qs),
(192,568,l),
(192,638,l),
(248,638,ls)
);
}
);
userData = {
assembly = "PUSHB[ ]	/* 2 values pushed */
6 100 
WCVTP[ ]	/* WriteCVTInPixels */
NPUSHB[ ]	/* 98 values pushed */
38 1 4 8 1 76 12 7 2 5 4 3 4 5 3 128 10 1 0 11 1 2 6 0 2 105 0 6 13 1 9 8 6 9 105 0 8 0 4 5 8 4 103 0 3 1 1 3 89 0 3 3 1 97 0 1 3 1 81 42 42 26 26 15 14 1 0 42 50 42 49 45 43 26 41 26 41 33 31 30 29 28 27 21 19 14 25 15 25 9 7 0 13 1 13 14 8 22 
CALL[ ]	/* CallFunction */
PUSHB[ ]	/* 2 values pushed */
6 0 
WCVTP[ ]	/* WriteCVTInPixels */";
};
width = 472;
}
);
note = registered;
unicode = 174;
},
{
glyphname = degree;
layers = (
{
layerId = m01;
shapes = (
{
closed = 1;
nodes = (
(90,664,o),
(90,703,qs),
(90,741,o),
(135,789,o),
(174,789,qs),
(213,789,o),
(257,741,o),
(257,703,qs),
(257,665,o),
(213,616,o),
(174,616,qs),
(135,616,o)
);
},
{
closed = 1;
nodes = (
(291,652,o),
(291,703,qs),
(291,727,o),
(276,769,o),
(246,801,o),
(203,820,o),
(175,820,qs),
(121,820,o),
(55,756,o),
(55,703,qs),
(55,652,o),
(117,585,o),
(174,585,qs),
(230,585,o)
);
}
);
userData = {
assembly = "PUSHB[ ]	/* 2 values pushed */
6 100 
WCVTP[ ]	/* WriteCVTInPixels */
NPUSHB[ ]	/* 46 values pushed */
0 3 0 1 0 3 1 105 4 1 0 2 2 0 89 4 1 0 0 2 97 5 1 2 0 2 81 13 12 1 0 19 17 12 25 13 25 7 5 0 11 1 11 6 8 22 
CALL[ ]	/* CallFunction */
PUSHB[ ]	/* 2 values pushed */
6 0 
WCVTP[ ]	/* WriteCVTInPixels */";
};
width = 352;
}
);
note = degree;
unicode = 176;
},
{
glyphname = bullet;
layers = (
{
layerId = m01;
shapes = (
{
closed = 1;
nodes = (
(64,403,o),
(64,365,qs),
(64,327,o),
(111,275,o),
(153,275,qs),
(195,275,o),
(242,327,o),
(242,365,qs),
(242,403,o),
(194,455,o),
(153,455,qs),
(112,455,o)
);
}
);
userData = {
assembly = "NPUSHB[ ]	/* 29 values pushed */
2 1 0 1 1 0 89 2 1 0 0 1 97 0 1 0 1 81 1 0 7 5 0 11 1 11 3 8 22 
CALL[ ]	/* CallFunction */";
};
width = 306;
}
);
note = bullet;
unicode = 8226;
},
{
glyphname = uni27F5;
layers = (
{
layerId = m01;
shapes = (
{
closed = 1;
nodes = (
(137,281,l),
(395,538,l),
(367,568,l),
(65,262,l),
(367,-43,l),
(395,-13,l),
(137,243,l),
(1321,243,l),
(1321,281,l)
);
}
);
userData = {
assembly = "NPUSHB[ ]	/* 37 values pushed */
4 1 0 1 1 76 6 5 2 1 74 3 2 2 0 73 0 1 0 0 1 87 0 1 1 0 95 0 0 1 0 79 22 16 2 6 24 
CALL[ ]	/* CallFunction */";
};
width = 1386;
}
);
note = uni27F5;
unicode = 10229;
},
{
glyphname = uni27F6;
layers = (
{
layerId = m01;
shapes = (
{
closed = 1;
nodes = (
(1249,243,l),
(991,-13,l),
(1019,-43,l),
(1321,262,l),
(1019,568,l),
(991,538,l),
(1249,281,l),
(65,281,l),
(65,243,l)
);
}
);
userData = {
assembly = "NPUSHB[ ]	/* 37 values pushed */
4 1 1 0 1 76 3 2 2 0 74 6 5 2 1 73 0 0 1 1 0 87 0 0 0 1 95 0 1 0 1 79 22 16 2 6 24 
CALL[ ]	/* CallFunction */";
};
width = 1386;
}
);
note = uni27F6;
unicode = 10230;
},
{
glyphname = arrowup;
layers = (
{
layerId = m01;
shapes = (
{
closed = 1;
nodes = (
(605,312,l),
(632,335,l),
(348,663,l),
(65,335,l),
(92,313,l),
(331,590,l),
(331,0,l),
(366,0,l),
(366,590,l)
);
}
);
userData = {
assembly = "NPUSHB[ ]	/* 18 values pushed */
8 7 6 5 4 3 2 7 0 74 0 0 0 118 16 1 6 23 
CALL[ ]	/* CallFunction */";
};
width = 697;
}
);
note = arrowup;
unicode = 8593;
},
{
glyphname = arrowdown;
layers = (
{
layerId = m01;
shapes = (
{
closed = 1;
nodes = (
(92,351,l),
(65,328,l),
(349,0,l),
(632,328,l),
(605,350,l),
(366,73,l),
(366,663,l),
(331,663,l),
(331,73,l)
);
}
);
userData = {
assembly = "NPUSHB[ ]	/* 18 values pushed */
8 7 6 5 4 3 2 7 0 73 0 0 0 118 16 1 6 23 
CALL[ ]	/* CallFunction */";
};
width = 697;
}
);
note = arrowdown;
unicode = 8595;
},
{
glyphname = uni21BA;
layers = (
{
layerId = m01;
shapes = (
{
closed = 1;
nodes = (
(865,764,l),
(528,775,l),
(519,439,l),
(561,439,l),
(567,700,l),
(616,666,o),
(693,580,o),
(746,483,o),
(773,380,o),
(773,330,qs),
(773,257,o),
(725,132,o),
(638,41,o),
(515,-11,o),
(440,-11,qs),
(365,-11,o),
(243,43,o),
(156,136,o),
(109,262,o),
(109,334,qs),
(109,413,o),
(164,556,o),
(216,616,q),
(186,645,l),
(124,580,o),
(65,422,o),
(65,334,qs),
(65,249,o),
(118,107,o),
(216,5,o),
(354,-52,o),
(440,-52,qs),
(526,-52,o),
(666,6,o),
(764,108,o),
(817,246,o),
(817,327,qs),
(817,452,o),
(703,659,o),
(586,733,q),
(864,723,l)
);
}
);
userData = {
assembly = "NPUSHB[ ]	/* 54 values pushed */
35 17 16 3 2 4 1 76 0 2 4 1 4 2 1 128 0 3 5 1 4 2 3 4 103 0 1 0 0 1 89 0 1 1 0 97 0 0 1 0 81 0 0 0 40 0 40 17 26 47 39 6 6 26 
CALL[ ]	/* CallFunction */";
};
width = 930;
}
);
note = uni21BA;
unicode = 8634;
},
{
glyphname = uni21BB;
layers = (
{
layerId = m01;
shapes = (
{
closed = 1;
nodes = (
(227,659,o),
(113,452,o),
(113,327,qs),
(113,246,o),
(166,108,o),
(264,6,o),
(404,-52,o),
(490,-52,qs),
(575,-52,o),
(714,5,o),
(812,107,o),
(865,249,o),
(865,334,qs),
(865,422,o),
(806,580,o),
(744,645,q),
(714,616,l),
(766,556,o),
(821,413,o),
(821,334,qs),
(821,262,o),
(774,136,o),
(687,43,o),
(565,-11,o),
(490,-11,qs),
(415,-11,o),
(292,41,o),
(205,132,o),
(157,257,o),
(157,330,qs),
(157,380,o),
(184,483,o),
(237,580,o),
(313,666,o),
(363,700,q),
(369,439,l),
(411,439,l),
(402,775,l),
(65,764,l),
(66,723,l),
(344,733,l)
);
}
);
userData = {
assembly = "NPUSHB[ ]	/* 54 values pushed */
24 23 5 3 1 4 1 76 0 1 4 2 4 1 2 128 0 0 5 1 4 1 0 4 103 0 2 3 3 2 89 0 2 2 3 97 0 3 2 3 81 0 0 0 40 0 40 47 42 17 17 6 6 26 
CALL[ ]	/* CallFunction */";
};
width = 930;
}
);
note = uni21BB;
unicode = 8635;
},
{
glyphname = uni21B7;
layers = (
{
layerId = m01;
shapes = (
{
closed = 1;
nodes = (
(723,61,o),
(770,144,o),
(798,229,o),
(808,314,o),
(808,351,qs),
(807,435,o),
(756,576,o),
(661,680,o),
(524,738,o),
(437,738,qs),
(359,738,o),
(231,688,o),
(136,598,o),
(75,475,o),
(65,402,q),
(111,402,l),
(121,465,o),
(176,572,o),
(260,651,o),
(371,696,o),
(437,696,qs),
(513,696,o),
(635,643,o),
(720,550,o),
(765,424,o),
(765,351,qs),
(765,321,o),
(757,250,o),
(734,173,o),
(692,90,o),
(659,48,q),
(582,308,l),
(543,298,l),
(642,-25,l),
(960,83,l),
(945,124,l),
(687,27,l)
);
}
);
userData = {
assembly = "NPUSHB[ ]	/* 35 values pushed */
36 5 3 2 1 5 1 73 0 1 0 1 134 0 2 0 0 2 89 0 2 2 0 97 0 0 2 0 81 36 20 46 3 6 25 
CALL[ ]	/* CallFunction */";
};
width = 1025;
}
);
note = uni21B7;
unicode = 8631;
},
{
glyphname = uni21B6;
layers = (
{
layerId = m01;
shapes = (
{
closed = 1;
nodes = (
(65,83,l),
(383,-25,l),
(482,298,l),
(443,308,l),
(366,48,l),
(333,90,o),
(291,173,o),
(268,250,o),
(260,321,o),
(260,351,qs),
(260,424,o),
(305,550,o),
(390,643,o),
(511,696,o),
(588,696,qs),
(654,696,o),
(765,651,o),
(849,572,o),
(904,465,o),
(914,402,q),
(960,402,l),
(950,475,o),
(889,598,o),
(794,688,o),
(666,738,o),
(588,738,qs),
(501,738,o),
(364,680,o),
(269,576,o),
(218,435,o),
(217,351,qs),
(217,314,o),
(227,229,o),
(255,144,o),
(302,61,o),
(338,27,q),
(80,124,l)
);
}
);
userData = {
assembly = "NPUSHB[ ]	/* 35 values pushed */
36 35 34 33 31 5 1 73 0 1 2 1 134 0 0 2 2 0 89 0 0 0 2 97 0 2 0 2 81 36 20 41 3 6 25 
CALL[ ]	/* CallFunction */";
};
width = 1025;
}
);
note = uni21B6;
unicode = 8630;
},
{
glyphname = five;
layers = (
{
layerId = m01;
shapes = (
{
closed = 1;
nodes = (
(151,332,o),
(188,362,o),
(234,386,o),
(286,400,o),
(314,400,qs),
(402,400,o),
(500,305,o),
(500,214,qs),
(500,167,o),
(469,97,o),
(414,51,o),
(339,28,o),
(296,28,qs),
(271,28,o),
(217,38,o),
(168,60,o),
(127,97,o),
(115,123,q),
(68,123,l),
(81,82,o),
(137,31,o),
(203,2,o),
(272,-8,o),
(299,-8,qs),
(349,-8,o),
(439,20,o),
(506,77,o),
(545,162,o),
(545,220,qs),
(545,269,o),
(512,349,o),
(452,406,o),
(370,437,o),
(321,437,qs),
(269,437,o),
(168,402,o),
(126,357,q),
(154,669,l),
(518,669,l),
(518,707,l),
(116,707,l),
(82,316,l),
(138,316,l)
);
}
);
userData = {
assembly = "NPUSHB[ ]	/* 67 values pushed */
5 1 7 6 1 76 8 1 7 6 4 6 7 4 128 0 4 5 6 4 5 126 0 2 0 6 7 2 6 105 0 1 1 0 95 0 0 0 38 77 0 5 5 3 97 0 3 3 47 3 78 0 0 0 42 0 42 38 36 20 40 35 17 17 9 8 29 
CALL[ ]	/* CallFunction */";
};
width = 605;
}
);
note = five;
unicode = 53;
},
{
glyphname = six;
layers = (
{
layerId = m01;
shapes = (
{
closed = 1;
nodes = (
(238,423,o),
(178,391,o),
(127,336,o),
(109,295,q),
(108,332,o),
(112,418,o),
(129,504,o),
(161,582,o),
(213,643,o),
(289,679,o),
(341,679,qs),
(386,679,o),
(471,639,o),
(496,599,q),
(542,599,l),
(513,656,o),
(408,715,o),
(343,715,qs),
(264,715,o),
(157,649,o),
(93,541,o),
(66,404,o),
(66,334,qs),
(66,271,o),
(92,148,o),
(153,52,o),
(253,-8,o),
(328,-8,qs),
(376,-8,o),
(461,21,o),
(524,78,o),
(560,163,o),
(560,219,qs),
(560,267,o),
(525,347,o),
(464,404,o),
(382,436,o),
(335,436,qs),
(303,436,o)
);
},
{
closed = 1;
nodes = (
(491,105,o),
(442,56,o),
(371,28,o),
(327,28,qs),
(289,28,o),
(219,55,o),
(165,103,o),
(134,171,o),
(133,212,qs),
(133,257,o),
(168,326,o),
(224,374,o),
(294,398,o),
(331,398,qs),
(373,398,o),
(441,371,o),
(491,321,o),
(518,252,o),
(518,210,qs),
(518,172,o)
);
}
);
userData = {
assembly = "NPUSHB[ ]	/* 65 values pushed */
34 1 6 5 1 76 0 3 4 0 4 3 0 128 7 1 0 0 5 6 0 5 105 0 4 4 2 97 0 2 2 46 77 0 6 6 1 97 0 1 1 47 1 78 1 0 55 53 45 43 28 26 24 23 21 19 11 9 0 38 1 38 8 8 22 
CALL[ ]	/* CallFunction */";
};
width = 620;
}
);
note = six;
unicode = 54;
},
{
glyphname = dieresis;
layers = (
{
layerId = m01;
shapes = (
{
closed = 1;
nodes = (
(310,691,o),
(310,675,qs),
(310,659,o),
(331,636,o),
(349,636,qs),
(368,636,o),
(390,658,o),
(390,675,qs),
(390,692,o),
(368,714,o),
(349,714,qs),
(331,714,o)
);
},
{
closed = 1;
nodes = (
(99,691,o),
(99,675,qs),
(99,659,o),
(120,636,o),
(138,636,qs),
(157,636,o),
(179,658,o),
(179,675,qs),
(179,692,o),
(157,714,o),
(138,714,qs),
(120,714,o)
);
}
);
userData = {
assembly = "PUSHB[ ]	/* 2 values pushed */
6 100 
WCVTP[ ]	/* WriteCVTInPixels */
NPUSHB[ ]	/* 42 values pushed */
5 2 4 3 0 1 1 0 89 5 2 4 3 0 0 1 97 3 1 1 0 1 81 13 12 1 0 19 17 12 23 13 23 7 5 0 11 1 11 6 8 22 
CALL[ ]	/* CallFunction */
PUSHB[ ]	/* 2 values pushed */
6 0 
WCVTP[ ]	/* WriteCVTInPixels */";
};
width = 489;
}
);
note = dieresis;
unicode = 168;
},
{
glyphname = cedilla;
layers = (
{
layerId = m01;
shapes = (
{
closed = 1;
nodes = (
(284,18,l),
(244,-109,l),
(255,-106,o),
(288,-100,o),
(300,-100,qs),
(327,-100,o),
(359,-126,o),
(359,-151,qs),
(359,-177,o),
(333,-206,o),
(296,-221,o),
(256,-223,o),
(241,-221,q),
(241,-248,l),
(266,-251,o),
(318,-245,o),
(361,-222,o),
(389,-183,o),
(389,-153,qs),
(389,-115,o),
(347,-76,o),
(315,-75,qs),
(306,-75,o),
(291,-76,o),
(280,-78,q),
(310,18,l)
);
}
);
userData = {
assembly = "PUSHB[ ]	/* 2 values pushed */
6 100 
WCVTP[ ]	/* WriteCVTInPixels */
NPUSHB[ ]	/* 11 values pushed */
23 12 2 1 2 1 76 11 1 1 73 
MPPEM[ ]	/* MeasurePixelPerEm */
PUSHB[ ]	/* 1 value pushed */
14 
LT[ ]	/* LessThan */
IF[ ]	/* If */
NPUSHB[ ]	/* 27 values pushed */
0 3 0 0 3 112 0 1 2 1 134 0 0 2 2 0 89 0 0 0 2 98 0 2 0 2 82 
ELSE[ ]	/* Else */
NPUSHB[ ]	/* 26 values pushed */
0 3 0 3 133 0 1 2 1 134 0 0 2 2 0 89 0 0 0 2 98 0 2 0 2 82 
EIF[ ]	/* EndIf */
PUSHB[ ]	/* 7 values pushed */
19 37 25 49 4 8 26 
CALL[ ]	/* CallFunction */
PUSHB[ ]	/* 2 values pushed */
6 0 
WCVTP[ ]	/* WriteCVTInPixels */";
};
width = 576;
}
);
note = cedilla;
unicode = 184;
},
{
glyphname = dotlessi;
layers = (
{
layerId = m01;
shapes = (
{
closed = 1;
nodes = (
(115,0,l),
(115,527,l),
(73,527,l),
(73,0,l)
);
}
);
userData = {
assembly = "NPUSHB[ ]	/* 16 values pushed */
0 0 0 41 77 0 1 1 39 1 78 17 16 2 8 24 
CALL[ ]	/* CallFunction */";
};
width = 188;
}
);
note = dotlessi;
unicode = 305;
},
{
glyphname = ccedilla;
kernLeft = d;
layers = (
{
layerId = m01;
shapes = (
{
closed = 1;
nodes = (
(335,-7,o),
(397,9,o),
(451,40,o),
(493,86,o),
(506,118,q),
(460,118,l),
(440,71,o),
(356,29,o),
(303,29,qs),
(249,29,o),
(171,66,o),
(120,130,o),
(95,214,o),
(95,262,qs),
(95,311,o),
(120,397,o),
(171,461,o),
(248,498,o),
(300,498,qs),
(350,498,o),
(434,455,o),
(451,408,q),
(497,408,l),
(474,471,o),
(371,534,o),
(304,534,qs),
(242,534,o),
(148,493,o),
(85,420,o),
(53,320,o),
(53,262,qs),
(53,206,o),
(81,112,o),
(137,41,o),
(220,-2,o),
(276,-6,q),
(245,-108,l),
(256,-104,o),
(288,-100,o),
(299,-100,qs),
(326,-100,o),
(359,-122,o),
(359,-151,qs),
(359,-177,o),
(333,-206,o),
(296,-221,o),
(256,-223,o),
(241,-222,q),
(241,-248,l),
(266,-251,o),
(319,-244,o),
(362,-222,o),
(389,-183,o),
(389,-153,qs),
(389,-114,o),
(345,-77,o),
(315,-76,qs),
(304,-76,o),
(291,-77,o),
(280,-79,q),
(302,-7,l)
);
}
);
userData = {
assembly = "NPUSHB[ ]	/* 75 values pushed */
24 1 8 6 23 1 1 2 2 76 11 1 1 73 0 4 5 7 5 4 7 128 0 7 6 5 7 6 126 0 1 2 1 134 0 0 0 2 1 0 2 105 0 5 5 3 97 0 3 3 49 77 0 6 6 8 97 0 8 8 50 8 78 20 18 40 34 18 44 37 40 34 9 8 31 
CALL[ ]	/* CallFunction */";
};
width = 551;
}
);
note = ccedilla;
unicode = 231;
},
{
glyphname = uni0162;
kernLeft = uni0422;
kernRight = uni0422;
layers = (
{
layerId = m01;
shapes = (
{
closed = 1;
nodes = (
(304,0,l),
(304,669,l),
(546,669,l),
(546,707,l),
(20,707,l),
(20,669,l),
(262,669,l),
(262,0,l),
(269,0,l),
(234,-108,l),
(245,-104,o),
(279,-100,o),
(290,-100,qs),
(317,-100,o),
(350,-122,o),
(350,-151,qs),
(350,-177,o),
(324,-206,o),
(287,-221,o),
(247,-223,o),
(232,-222,q),
(232,-248,l),
(257,-251,o),
(310,-244,o),
(353,-222,o),
(380,-183,o),
(380,-153,qs),
(380,-114,o),
(336,-77,o),
(306,-76,qs),
(295,-76,o),
(282,-77,o),
(271,-79,q),
(295,0,l)
);
}
);
userData = {
assembly = "NPUSHB[ ]	/* 55 values pushed */
23 1 1 2 1 76 24 1 6 1 75 11 1 1 73 0 1 2 1 134 0 0 0 2 1 0 2 105 5 1 3 3 4 95 0 4 4 38 77 0 6 6 39 6 78 17 17 17 21 37 40 34 7 8 29 
CALL[ ]	/* CallFunction */";
};
width = 566;
}
);
note = uni0162;
unicode = 354;
},
{
glyphname = uni0163;
kernLeft = t;
layers = (
{
layerId = m01;
shapes = (
{
closed = 1;
nodes = (
(248,0,o),
(284,0,qs),
(319,0,l),
(319,36,l),
(292,36,ls),
(222,36,o),
(166,103,o),
(166,171,qs),
(166,492,l),
(322,492,l),
(322,527,l),
(166,527,l),
(166,685,l),
(124,685,l),
(124,527,l),
(31,527,l),
(31,492,l),
(124,492,l),
(124,167,ls),
(124,47,o),
(199,15,q),
(159,-108,l),
(170,-104,o),
(204,-100,o),
(215,-100,qs),
(242,-100,o),
(275,-122,o),
(275,-151,qs),
(275,-177,o),
(249,-206,o),
(212,-221,o),
(172,-223,o),
(157,-222,q),
(157,-248,l),
(182,-251,o),
(235,-244,o),
(278,-222,o),
(305,-183,o),
(305,-153,qs),
(305,-114,o),
(261,-77,o),
(231,-76,qs),
(220,-76,o),
(207,-77,o),
(196,-79,q),
(223,7,l)
);
}
);
userData = {
assembly = "NPUSHB[ ]	/* 15 values pushed */
45 24 2 9 8 23 1 1 2 2 76 11 1 1 73 
MPPEM[ ]	/* MeasurePixelPerEm */
PUSHB[ ]	/* 1 value pushed */
22 
LT[ ]	/* LessThan */
IF[ ]	/* If */
NPUSHB[ ]	/* 41 values pushed */
0 1 2 1 134 0 0 0 2 1 0 2 105 0 5 5 38 77 7 1 3 3 4 95 6 1 4 4 41 77 0 8 8 9 97 0 9 9 39 9 78 
ELSE[ ]	/* Else */
NPUSHB[ ]	/* 41 values pushed */
0 5 4 5 133 0 1 2 1 134 0 0 0 2 1 0 2 105 7 1 3 3 4 95 6 1 4 4 41 77 0 8 8 9 97 0 9 9 39 9 78 
EIF[ ]	/* EndIf */
NPUSHB[ ]	/* 14 values pushed */
44 42 35 17 17 17 17 22 37 40 34 10 8 31 
CALL[ ]	/* CallFunction */";
};
width = 359;
}
);
note = uni0163;
unicode = 355;
},
{
glyphname = Ccedilla;
kernLeft = O;
kernRight = D;
layers = (
{
layerId = m01;
shapes = (
{
closed = 1;
nodes = (
(565,620,o),
(594,558,q),
(638,558,l),
(623,600,o),
(571,660,o),
(503,697,o),
(422,715,o),
(379,715,qs),
(297,715,o),
(175,659,o),
(94,562,o),
(54,429,o),
(54,353,qs),
(54,278,o),
(89,150,o),
(163,55,o),
(274,-3,o),
(351,-7,q),
(319,-108,l),
(330,-104,o),
(363,-100,o),
(374,-100,qs),
(401,-100,o),
(434,-122,o),
(434,-151,qs),
(434,-177,o),
(408,-206,o),
(371,-221,o),
(331,-223,o),
(316,-222,q),
(316,-248,l),
(341,-251,o),
(394,-244,o),
(437,-222,o),
(465,-183,o),
(465,-153,qs),
(465,-114,o),
(421,-77,o),
(391,-76,qs),
(380,-76,o),
(366,-77,o),
(355,-79,q),
(377,-8,l),
(419,-8,o),
(503,11,o),
(577,49,o),
(634,108,o),
(651,149,q),
(602,149,l),
(588,117,o),
(539,71,o),
(478,42,o),
(411,28,o),
(378,28,qs),
(305,28,o),
(199,80,o),
(130,170,o),
(96,289,o),
(96,355,qs),
(96,421,o),
(131,538,o),
(201,627,o),
(309,679,o),
(383,679,qs),
(452,679,o)
);
}
);
userData = {
assembly = "NPUSHB[ ]	/* 92 values pushed */
22 1 6 4 45 1 5 6 2 76 33 1 5 73 0 9 0 2 0 9 2 128 0 2 1 0 2 1 126 0 5 6 5 134 0 4 0 6 5 4 6 105 10 1 0 0 8 97 0 8 8 46 77 0 1 1 3 97 7 1 3 3 47 3 78 1 0 62 61 57 55 47 46 43 41 36 34 26 24 21 20 16 15 11 9 0 64 1 64 11 8 22 
CALL[ ]	/* CallFunction */";
};
width = 699;
}
);
note = Ccedilla;
unicode = 199;
},
{
glyphname = scedilla;
kernLeft = d;
layers = (
{
layerId = m01;
shapes = (
{
closed = 1;
nodes = (
(300,-6,o),
(369,8,o),
(425,42,o),
(459,97,o),
(459,139,qs),
(459,193,o),
(394,249,o),
(342,262,qs),
(310,270,o),
(243,281,o),
(211,289,qs),
(191,293,o),
(151,308,o),
(119,333,o),
(99,368,o),
(99,394,qs),
(99,429,o),
(130,471,o),
(177,492,o),
(229,498,o),
(250,498,qs),
(271,498,o),
(314,490,o),
(354,472,o),
(386,444,o),
(395,425,q),
(437,425,l),
(428,454,o),
(390,495,o),
(339,522,o),
(280,534,o),
(251,534,qs),
(215,534,o),
(145,521,o),
(91,488,o),
(58,434,o),
(58,393,qs),
(58,350,o),
(94,297,o),
(150,264,o),
(219,248,o),
(252,242,qs),
(309,231,ls),
(328,226,o),
(367,214,o),
(399,192,o),
(418,159,o),
(418,134,qs),
(418,102,o),
(387,61,o),
(340,38,o),
(283,29,o),
(257,29,qs),
(234,29,o),
(186,37,o),
(141,55,o),
(102,86,o),
(90,109,q),
(43,109,l),
(53,80,o),
(93,38,o),
(146,10,o),
(208,-5,o),
(238,-6,q),
(206,-108,l),
(217,-104,o),
(250,-100,o),
(261,-100,qs),
(288,-100,o),
(321,-122,o),
(321,-151,qs),
(321,-177,o),
(295,-206,o),
(258,-221,o),
(218,-223,o),
(203,-222,q),
(203,-248,l),
(228,-251,o),
(281,-244,o),
(324,-222,o),
(351,-183,o),
(351,-153,qs),
(351,-114,o),
(307,-77,o),
(275,-76,qs),
(268,-76,o),
(250,-77,o),
(242,-79,q),
(264,-7,l)
);
}
);
userData = {
assembly = "NPUSHB[ ]	/* 10 values pushed */
23 1 1 2 1 76 11 1 1 73 
MPPEM[ ]	/* MeasurePixelPerEm */
PUSHB[ ]	/* 1 value pushed */
12 
LT[ ]	/* LessThan */
IF[ ]	/* If */
NPUSHB[ ]	/* 50 values pushed */
0 7 8 4 8 7 4 128 0 4 5 8 4 5 126 0 1 2 1 134 0 0 0 2 1 0 2 105 0 8 8 6 97 0 6 6 49 77 0 5 5 3 97 9 1 3 3 47 3 78 
ELSE[ ]	/* Else */
NPUSHB[ ]	/* 50 values pushed */
0 7 8 4 8 7 4 128 0 4 5 8 4 5 126 0 1 2 1 134 0 0 0 2 1 0 2 105 0 8 8 6 97 0 6 6 49 77 0 5 5 3 97 9 1 3 3 50 3 78 
EIF[ ]	/* EndIf */
NPUSHB[ ]	/* 17 values pushed */
88 87 68 66 62 61 57 55 36 20 19 37 40 49 10 8 28 
CALL[ ]	/* CallFunction */";
};
width = 504;
}
);
note = scedilla;
unicode = 351;
},
{
glyphname = uni21A9;
layers = (
{
layerId = m01;
shapes = (
{
closed = 1;
nodes = (
(395,294,l),
(367,324,l),
(65,19,l),
(367,-287,l),
(395,-256,l),
(137,0,l),
(772,0,ls),
(848,0,o),
(968,51,o),
(1050,141,o),
(1094,266,o),
(1094,340,qs),
(1094,413,o),
(1050,536,o),
(966,626,o),
(845,677,o),
(769,677,qs),
(202,677,l),
(202,639,l),
(766,639,ls),
(833,639,o),
(939,593,o),
(1013,513,o),
(1052,404,o),
(1052,340,qs),
(1052,275,o),
(1013,165,o),
(940,84,o),
(833,38,o),
(766,38,qs),
(137,38,l)
);
}
);
userData = {
assembly = "NPUSHB[ ]	/* 57 values pushed */
29 28 2 0 1 27 1 3 0 2 76 26 25 2 3 73 0 2 0 1 0 2 1 103 4 1 0 3 3 0 87 4 1 0 0 3 95 0 3 0 3 79 1 0 24 22 14 12 11 9 0 30 1 30 5 6 22 
CALL[ ]	/* CallFunction */";
};
width = 1159;
}
);
note = uni21A9;
unicode = 8617;
},
{
glyphname = uni2713;
layers = (
{
layerId = m01;
shapes = (
{
closed = 1;
nodes = (
(105,389,l),
(65,355,l),
(373,2,l),
(994,774,l),
(953,807,l),
(371,77,l)
);
}
);
userData = {
assembly = "PUSHB[ ]	/* 4 values pushed */
2 0 1 50 
CALL[ ]	/* CallFunction */";
};
width = 1059;
}
);
note = uni2713;
unicode = 10003;
},
{
glyphname = divide;
layers = (
{
layerId = m01;
shapes = (
{
closed = 1;
nodes = (
(189,193,o),
(189,175,qs),
(189,157,o),
(210,134,o),
(229,134,qs),
(249,134,o),
(269,157,o),
(269,175,qs),
(269,193,o),
(248,215,o),
(229,215,qs),
(210,215,o)
);
},
{
closed = 1;
nodes = (
(189,561,o),
(189,543,qs),
(189,525,o),
(210,502,o),
(229,502,qs),
(249,502,o),
(269,525,o),
(269,543,qs),
(269,561,o),
(248,583,o),
(229,583,qs),
(210,583,o)
);
},
{
closed = 1;
nodes = (
(65,377,l),
(65,340,l),
(394,340,l),
(394,377,l)
);
}
);
userData = {
assembly = "NPUSHB[ ]	/* 58 values pushed */
7 1 2 0 3 5 2 3 105 0 5 0 4 0 5 4 103 6 1 0 1 1 0 89 6 1 0 0 1 97 0 1 0 1 81 13 12 1 0 27 26 25 24 19 17 12 23 13 23 7 5 0 11 1 11 8 8 22 
CALL[ ]	/* CallFunction */";
};
width = 459;
}
);
note = divide;
unicode = 247;
},
{
glyphname = multiply;
layers = (
{
layerId = m01;
shapes = (
{
closed = 1;
nodes = (
(392,205,l),
(244,353,l),
(392,502,l),
(369,525,l),
(222,374,l),
(74,525,l),
(50,502,l),
(200,353,l),
(50,205,l),
(73,182,l),
(221,331,l),
(369,182,l)
);
}
);
userData = {
assembly = "PUSHB[ ]	/* 4 values pushed */
5 1 1 50 
CALL[ ]	/* CallFunction */";
};
width = 442;
}
);
note = multiply;
unicode = 215;
},
{
glyphname = yen;
layers = (
{
layerId = m01;
shapes = (
{
closed = 1;
nodes = (
(96,707,l),
(45,707,l),
(277,298,l),
(141,298,l),
(141,262,l),
(295,262,l),
(295,138,l),
(141,138,l),
(141,103,l),
(295,103,l),
(295,0,l),
(338,0,l),
(338,103,l),
(491,103,l),
(491,138,l),
(338,138,l),
(338,262,l),
(491,262,l),
(491,298,l),
(357,298,l),
(589,707,l),
(538,707,l),
(318,305,l)
);
}
);
userData = {
assembly = "NPUSHB[ ]	/* 54 values pushed */
22 1 1 0 1 76 9 1 1 8 1 2 3 1 2 103 7 1 3 6 1 4 5 3 4 103 10 1 0 0 38 77 0 5 5 39 5 78 21 20 19 18 17 17 17 17 17 17 17 17 16 11 8 31 
CALL[ ]	/* CallFunction */";
};
width = 634;
}
);
note = yen;
unicode = 165;
},
{
glyphname = uni20BD;
layers = (
{
layerId = m01;
shapes = (
{
closed = 1;
nodes = (
(65,303,l),
(65,266,l),
(169,266,l),
(169,135,l),
(65,135,l),
(65,98,l),
(169,98,l),
(169,0,l),
(211,0,l),
(211,98,l),
(521,98,l),
(521,135,l),
(211,135,l),
(211,266,l),
(384,266,ls),
(439,266,o),
(535,291,o),
(606,345,o),
(646,429,o),
(646,488,qs),
(646,547,o),
(612,630,o),
(548,683,o),
(458,707,o),
(401,707,qs),
(169,707,l),
(169,303,l)
);
},
{
closed = 1;
nodes = (
(211,669,l),
(397,669,ls),
(444,669,o),
(521,650,o),
(575,608,o),
(604,541,o),
(604,492,qs),
(604,440,o),
(571,368,o),
(513,323,o),
(430,303,o),
(381,303,qs),
(211,303,l)
);
}
);
userData = {
assembly = "NPUSHB[ ]	/* 57 values pushed */
11 9 2 8 7 1 1 2 8 1 103 6 1 2 5 1 3 4 2 3 103 0 10 10 0 95 0 0 0 38 77 0 4 4 39 4 78 28 27 38 36 27 39 28 39 17 17 17 17 17 17 17 40 32 12 8 31 
CALL[ ]	/* CallFunction */";
};
width = 701;
}
);
note = uni20BD;
unicode = 8381;
},
{
glyphname = uni20B4;
layers = (
{
layerId = m01;
shapes = (
{
closed = 1;
nodes = (
(223,704,o),
(168,677,o),
(125,633,o),
(114,600,q),
(164,600,l),
(173,624,o),
(209,655,o),
(253,673,o),
(298,679,o),
(315,679,qs),
(343,679,o),
(396,665,o),
(435,638,o),
(458,597,o),
(457,568,qs),
(456,530,o),
(411,460,o),
(379,437,q),
(53,437,l),
(53,401,l),
(339,401,l),
(167,264,l),
(53,264,l),
(53,228,l),
(134,228,l),
(114,203,o),
(101,148,o),
(102,131,qs),
(104,83,o),
(150,28,o),
(210,0,o),
(272,-8,o),
(292,-8,qs),
(323,-8,o),
(386,3,o),
(442,28,o),
(485,69,o),
(496,99,q),
(449,99,l),
(438,76,o),
(400,48,o),
(355,33,o),
(306,28,o),
(285,28,qs),
(261,28,o),
(211,40,o),
(171,67,o),
(145,109,o),
(145,140,qs),
(145,162,o),
(164,213,o),
(181,228,q),
(531,228,l),
(531,264,l),
(221,264,l),
(397,401,l),
(531,401,l),
(532,437,l),
(429,437,l),
(435,443,o),
(459,467,o),
(482,501,o),
(499,544,o),
(499,570,qs),
(499,610,o),
(466,666,o),
(414,700,o),
(349,715,o),
(316,715,qs),
(285,715,o)
);
}
);
userData = {
assembly = "NPUSHB[ ]	/* 93 values pushed */
0 13 12 1 12 13 1 128 0 6 4 5 4 6 5 128 11 1 1 10 1 2 3 1 2 103 9 1 3 8 1 4 6 3 4 103 0 12 12 0 97 14 1 0 0 46 77 0 5 5 7 97 0 7 7 47 7 78 1 0 65 64 60 58 51 50 49 48 47 46 45 44 37 35 31 30 26 24 17 16 15 14 13 12 11 10 0 69 1 69 15 8 22 
CALL[ ]	/* CallFunction */";
};
width = 585;
}
);
note = uni20B4;
unicode = 8372;
},
{
glyphname = sterling;
layers = (
{
layerId = m01;
shapes = (
{
closed = 1;
nodes = (
(193,355,l),
(193,524,ls),
(193,602,o),
(266,679,o),
(344,679,qs),
(382,679,o),
(449,644,o),
(463,605,q),
(505,605,l),
(498,633,o),
(467,674,o),
(424,701,o),
(371,715,o),
(342,715,qs),
(252,715,o),
(153,623,o),
(153,531,qs),
(153,355,l),
(65,355,l),
(65,318,l),
(153,318,l),
(153,38,l),
(65,38,l),
(65,0,l),
(511,0,l),
(511,38,l),
(193,38,l),
(193,318,l),
(414,318,l),
(414,355,l)
);
}
);
userData = {
assembly = "NPUSHB[ ]	/* 54 values pushed */
0 7 8 5 8 7 5 128 9 1 5 4 1 0 1 5 0 103 0 8 8 6 97 0 6 6 46 77 3 1 1 1 2 95 0 2 2 39 2 78 29 28 34 20 35 17 17 17 17 17 16 10 8 31 
CALL[ ]	/* CallFunction */";
};
width = 576;
}
);
note = sterling;
unicode = 163;
},
{
glyphname = Scedilla;
kernLeft = O;
kernRight = D;
layers = (
{
layerId = m01;
shapes = (
{
closed = 1;
nodes = (
(387,-7,o),
(472,14,o),
(538,61,o),
(579,134,o),
(579,187,qs),
(579,219,o),
(556,270,o),
(517,309,o),
(463,338,o),
(433,347,qs),
(395,359,o),
(313,381,o),
(271,392,qs),
(242,400,o),
(190,421,o),
(151,454,o),
(129,501,o),
(129,535,qs),
(129,577,o),
(166,632,o),
(222,665,o),
(290,679,o),
(323,679,qs),
(352,679,o),
(412,667,o),
(463,639,o),
(502,594,o),
(511,562,q),
(556,562,l),
(547,604,o),
(503,662,o),
(441,699,o),
(364,715,o),
(324,715,qs),
(278,715,o),
(191,695,o),
(124,651,o),
(83,580,o),
(83,528,qs),
(83,480,o),
(119,418,o),
(178,377,o),
(251,353,o),
(288,344,qs),
(314,337,o),
(371,322,o),
(401,313,qs),
(429,305,o),
(478,284,o),
(514,253,o),
(534,208,o),
(534,176,qs),
(534,137,o),
(499,81,o),
(442,45,o),
(369,28,o),
(332,28,qs),
(299,28,o),
(234,41,o),
(175,70,o),
(126,116,o),
(110,149,q),
(63,149,l),
(77,108,o),
(128,50,o),
(195,13,o),
(274,-6,o),
(316,-7,q),
(285,-108,l),
(296,-104,o),
(328,-100,o),
(339,-100,qs),
(366,-100,o),
(399,-122,o),
(399,-151,qs),
(399,-177,o),
(373,-206,o),
(336,-221,o),
(296,-223,o),
(281,-222,q),
(281,-248,l),
(306,-251,o),
(359,-244,o),
(402,-222,o),
(429,-183,o),
(429,-153,qs),
(429,-114,o),
(386,-77,o),
(352,-76,qs),
(345,-76,o),
(329,-77,o),
(320,-79,q),
(342,-8,l)
);
}
);
userData = {
assembly = "NPUSHB[ ]	/* 77 values pushed */
23 1 1 2 1 76 11 1 1 73 0 7 8 4 8 7 4 128 0 4 5 8 4 5 126 0 1 2 1 134 0 0 0 2 1 0 2 105 0 8 8 6 97 0 6 6 46 77 0 5 5 3 97 9 1 3 3 50 3 78 92 91 70 68 64 63 59 57 36 20 19 37 40 49 10 8 28 
CALL[ ]	/* CallFunction */";
};
width = 643;
}
);
note = Scedilla;
unicode = 350;
},
{
glyphname = t_alt;
kernLeft = t;
layers = (
{
layerId = m01;
shapes = (
{
closed = 1;
nodes = (
(129,685,l),
(129,527,l),
(35,527,l),
(35,492,l),
(128,492,l),
(128,167,ls),
(128,126,o),
(144,64,o),
(181,22,o),
(242,0,o),
(286,0,qs),
(323,0,l),
(323,36,l),
(293,36,ls),
(223,36,o),
(170,103,o),
(170,171,qs),
(170,492,l),
(328,492,l),
(328,527,l),
(170,527,l),
(170,685,l)
);
}
);
userData = {
assembly = "MPPEM[ ]	/* MeasurePixelPerEm */
PUSHB[ ]	/* 1 value pushed */
22 
LT[ ]	/* LessThan */
IF[ ]	/* If */
NPUSHB[ ]	/* 28 values pushed */
0 6 6 20 77 4 1 1 1 0 95 5 1 0 0 22 77 0 2 2 3 97 0 3 3 21 3 78 
ELSE[ ]	/* Else */
NPUSHB[ ]	/* 28 values pushed */
0 6 0 6 133 4 1 1 1 0 95 5 1 0 0 22 77 0 2 2 3 97 0 3 3 21 3 78 
EIF[ ]	/* EndIf */
NPUSHB[ ]	/* 10 values pushed */
17 17 21 33 35 17 16 7 7 29 
CALL[ ]	/* CallFunction */";
};
width = 373;
}
);
note = t_alt;
},
{
glyphname = alt_1;
layers = (
{
layerId = m01;
shapes = (
{
closed = 1;
nodes = (
(298,39,l),
(298,707,l),
(269,707,l),
(265,679,o),
(239,648,o),
(198,633,o),
(141,631,o),
(106,631,q),
(106,602,l),
(255,602,l),
(255,39,l),
(53,39,l),
(53,0,l),
(466,0,l),
(466,39,l)
);
}
);
userData = {
assembly = "NPUSHB[ ]	/* 34 values pushed */
0 3 0 2 1 3 2 103 0 4 4 20 77 5 1 1 1 0 95 0 0 0 21 0 78 17 19 33 17 17 16 6 7 28 
CALL[ ]	/* CallFunction */";
};
width = 491;
}
);
note = alt_1;
},
{
glyphname = uni2117;
layers = (
{
layerId = m01;
shapes = (
{
closed = 1;
nodes = (
(227,652,o),
(122,540,o),
(65,385,o),
(65,292,qs),
(65,199,o),
(120,45,o),
(225,-67,o),
(376,-129,o),
(471,-129,qs),
(566,-129,o),
(717,-67,o),
(822,45,o),
(877,199,o),
(877,292,qs),
(877,385,o),
(820,540,o),
(715,652,o),
(564,715,o),
(471,715,qs),
(378,715,o)
);
},
{
closed = 1;
nodes = (
(692,618,o),
(786,515,o),
(836,374,o),
(836,292,qs),
(836,210,o),
(787,70,o),
(693,-33,o),
(557,-92,o),
(471,-92,qs),
(385,-92,o),
(250,-34,o),
(156,69,o),
(106,209,o),
(106,292,qs),
(106,375,o),
(156,516,o),
(251,619,o),
(386,677,o),
(471,677,qs),
(556,677,o)
);
},
{
closed = 1;
nodes = (
(482,221,ls),
(518,221,o),
(580,238,o),
(625,272,o),
(650,324,o),
(650,359,qs),
(649,428,o),
(562,493,o),
(496,493,qs),
(356,493,l),
(356,78,l),
(396,78,l),
(396,221,l)
);
},
{
closed = 1;
nodes = (
(396,457,l),
(491,457,ls),
(516,457,o),
(560,447,o),
(592,424,o),
(610,387,o),
(610,359,qs),
(610,329,o),
(590,290,o),
(555,266,o),
(507,257,o),
(480,257,qs),
(396,257,l)
);
}
);
userData = {
assembly = "NPUSHB[ ]	/* 84 values pushed */
0 4 6 3 6 4 3 128 9 1 0 10 1 2 5 0 2 105 0 5 0 8 7 5 8 103 11 1 7 0 6 4 7 6 103 0 3 1 1 3 89 0 3 3 1 97 0 1 3 1 81 54 53 21 20 1 0 64 62 53 65 54 65 52 50 44 42 41 40 31 29 20 39 21 39 11 9 0 19 1 19 12 6 22 
CALL[ ]	/* CallFunction */";
};
width = 942;
}
);
note = uni2117;
unicode = 8471;
},
{
glyphname = colon.uc;
layers = (
{
layerId = m01;
shapes = (
{
closed = 1;
nodes = (
(73,550,o),
(73,532,qs),
(73,514,o),
(94,490,o),
(113,490,qs),
(132,490,o),
(153,514,o),
(153,532,qs),
(153,550,o),
(132,572,o),
(113,572,qs),
(94,572,o)
);
},
{
closed = 1;
nodes = (
(73,173,o),
(73,155,qs),
(73,138,o),
(94,114,o),
(113,114,qs),
(132,114,o),
(153,138,o),
(153,155,qs),
(153,173,o),
(132,195,o),
(113,195,qs),
(94,195,o)
);
}
);
userData = {
assembly = "NPUSHB[ ]	/* 46 values pushed */
4 1 0 0 1 2 0 1 105 5 1 2 3 3 2 89 5 1 2 2 3 97 0 3 2 3 81 13 12 1 0 19 17 12 23 13 23 7 5 0 11 1 11 6 7 22 
CALL[ ]	/* CallFunction */";
};
width = 226;
}
);
note = colon.uc;
},
{
glyphname = y_alt;
layers = (
{
layerId = m01;
shapes = (
{
closed = 1;
nodes = (
(482,272,ls),
(482,228,o),
(462,141,o),
(415,71,o),
(338,28,o),
(281,28,qs),
(226,28,o),
(160,70,o),
(124,138,o),
(112,223,o),
(112,266,qs),
(112,527,l),
(70,527,l),
(70,243,ls),
(70,190,o),
(90,99,o),
(138,31,o),
(215,-8,o),
(272,-8,qs),
(296,-8,o),
(353,-1,o),
(410,22,o),
(462,68,o),
(482,107,q),
(482,-12,ls),
(482,-33,o),
(474,-104,o),
(436,-172,o),
(360,-221,o),
(292,-221,qs),
(268,-221,o),
(219,-212,o),
(174,-191,o),
(138,-157,o),
(127,-133,q),
(79,-133,l),
(91,-165,o),
(133,-212,o),
(188,-242,o),
(254,-257,o),
(289,-257,qs),
(404,-257,o),
(524,-132,o),
(524,-17,qs),
(524,527,l),
(482,527,l)
);
}
);
userData = {
assembly = "PUSHB[ ]	/* 6 values pushed */
21 1 5 4 1 76 
MPPEM[ ]	/* MeasurePixelPerEm */
PUSHB[ ]	/* 1 value pushed */
20 
LT[ ]	/* LessThan */
IF[ ]	/* If */
NPUSHB[ ]	/* 36 values pushed */
0 1 3 2 3 1 2 128 7 6 2 4 4 22 77 0 5 5 3 97 0 3 3 28 77 0 2 2 0 97 0 0 0 31 0 78 
ELSE[ ]	/* Else */
NPUSHB[ ]	/* 33 values pushed */
0 1 3 2 3 1 2 128 0 2 0 0 2 0 101 7 6 2 4 4 22 77 0 5 5 3 97 0 3 3 28 3 78 
EIF[ ]	/* EndIf */
NPUSHB[ ]	/* 15 values pushed */
0 0 0 45 0 45 37 21 41 36 20 35 8 7 28 
CALL[ ]	/* CallFunction */";
};
width = 597;
}
);
note = y_alt;
},
{
glyphname = u_alt;
layers = (
{
layerId = m01;
shapes = (
{
closed = 1;
nodes = (
(482,280,ls),
(482,232,o),
(461,143,o),
(414,73,o),
(338,30,o),
(282,29,qs),
(226,29,o),
(159,70,o),
(123,136,o),
(112,222,o),
(112,267,qs),
(112,527,l),
(70,527,l),
(70,241,ls),
(70,191,o),
(89,100,o),
(136,32,o),
(215,-8,o),
(274,-8,qs),
(301,-8,o),
(358,0,o),
(413,25,o),
(463,70,o),
(482,107,q),
(482,0,l),
(524,0,l),
(524,527,l),
(482,527,l)
);
}
);
userData = {
assembly = "NPUSHB[ ]	/* 42 values pushed */
3 1 3 2 1 76 5 4 2 2 2 22 77 0 0 0 21 77 0 3 3 1 97 0 1 1 28 1 78 0 0 0 27 0 27 37 21 37 17 6 7 26 
CALL[ ]	/* CallFunction */";
};
width = 597;
}
);
note = u_alt;
},
{
glyphname = be_alt;
layers = (
{
layerId = m01;
shapes = (
{
closed = 1;
nodes = (
(71,132,o),
(125,45,o),
(217,-7,o),
(288,-7,qs),
(345,-7,o),
(433,31,o),
(494,98,o),
(526,191,o),
(526,246,qs),
(526,296,o),
(498,382,o),
(443,446,o),
(363,483,o),
(311,484,qs),
(285,484,o),
(224,475,o),
(163,445,o),
(109,392,o),
(90,349,q),
(91,417,o),
(108,512,o),
(141,578,o),
(192,620,o),
(227,636,qs),
(253,648,o),
(315,668,o),
(352,679,qs),
(374,685,o),
(420,699,o),
(465,716,o),
(504,737,o),
(519,751,q),
(494,783,l),
(482,772,o),
(447,752,o),
(406,735,o),
(365,722,o),
(349,718,qs),
(326,712,o),
(277,697,o),
(232,681,o),
(194,665,o),
(182,658,qs),
(141,635,o),
(90,576,o),
(61,494,o),
(50,384,o),
(50,311,qs),
(50,248,o)
);
},
{
closed = 1;
nodes = (
(174,62,o),
(126,118,o),
(101,192,o),
(101,234,qs),
(101,276,o),
(128,353,o),
(179,411,o),
(253,446,o),
(300,446,qs),
(345,446,o),
(414,413,o),
(461,358,o),
(485,284,o),
(485,243,qs),
(485,200,o),
(459,123,o),
(410,64,o),
(336,29,o),
(288,29,qs),
(244,29,o)
);
}
);
userData = {
assembly = "NPUSHB[ ]	/* 46 values pushed */
29 1 2 3 1 76 16 15 2 0 74 0 0 0 3 2 0 3 105 4 1 2 2 1 97 0 1 1 30 1 78 50 49 60 58 49 68 50 68 45 43 35 33 5 7 22 
CALL[ ]	/* CallFunction */";
};
width = 575;
}
);
note = be_alt;
},
{
glyphname = g_alt;
layers = (
{
layerId = m01;
shapes = (
{
closed = 1;
nodes = (
(474,455,o),
(426,499,o),
(374,525,o),
(320,534,o),
(294,534,qs),
(234,534,o),
(144,491,o),
(84,417,o),
(54,320,o),
(53,266,qs),
(53,214,o),
(78,116,o),
(133,39,o),
(222,-7,o),
(287,-7,qs),
(313,-7,o),
(373,5,o),
(430,35,o),
(479,86,o),
(495,125,q),
(495,7,ls),
(495,-42,o),
(477,-126,o),
(434,-187,o),
(360,-221,o),
(304,-221,qs),
(257,-221,o),
(163,-193,o),
(118,-160,q),
(99,-195,l),
(134,-219,o),
(231,-257,o),
(300,-257,qs),
(364,-257,o),
(454,-221,o),
(511,-153,o),
(537,-56,o),
(537,6,qs),
(537,527,l),
(495,527,l),
(494,421,l)
);
},
{
closed = 1;
nodes = (
(418,462,o),
(468,399,o),
(493,314,o),
(493,265,qs),
(493,220,o),
(466,135,o),
(415,69,o),
(341,29,o),
(293,29,qs),
(239,29,o),
(164,66,o),
(116,131,o),
(95,217,o),
(95,265,qs),
(95,308,o),
(118,392,o),
(166,458,o),
(239,498,o),
(290,498,qs),
(341,498,o)
);
}
);
userData = {
assembly = "NPUSHB[ ]	/* 12 values pushed */
40 20 2 6 5 11 10 2 2 3 2 76 
MPPEM[ ]	/* MeasurePixelPerEm */
PUSHB[ ]	/* 1 value pushed */
20 
LT[ ]	/* LessThan */
IF[ ]	/* If */
NPUSHB[ ]	/* 37 values pushed */
0 0 0 22 77 7 1 5 5 4 97 0 4 4 29 77 0 6 6 3 97 0 3 3 30 77 0 2 2 1 97 0 1 1 31 1 78 
ELSE[ ]	/* Else */
NPUSHB[ ]	/* 34 values pushed */
0 2 0 1 2 1 101 0 0 0 22 77 7 1 5 5 4 97 0 4 4 29 77 0 6 6 3 97 0 3 3 30 3 78 
EIF[ ]	/* EndIf */
NPUSHB[ ]	/* 16 values pushed */
42 41 52 50 41 60 42 60 40 41 37 37 16 8 7 27 
CALL[ ]	/* CallFunction */";
};
width = 610;
}
);
note = g_alt;
},
{
glyphname = y;
layers = (
{
layerId = m01;
shapes = (
{
closed = 1;
nodes = (
(482,274,ls),
(482,226,o),
(461,138,o),
(414,71,o),
(338,30,o),
(282,29,qs),
(226,29,o),
(159,70,o),
(123,136,o),
(112,222,o),
(112,267,qs),
(112,527,l),
(70,527,l),
(70,241,ls),
(70,191,o),
(89,100,o),
(136,32,o),
(215,-8,o),
(274,-8,qs),
(301,-8,o),
(358,0,o),
(413,25,o),
(463,70,o),
(482,107,q),
(482,-11,ls),
(482,-60,o),
(462,-137,o),
(417,-191,o),
(345,-220,o),
(293,-220,qs),
(244,-220,o),
(152,-189,o),
(111,-160,q),
(92,-196,l),
(134,-228,o),
(241,-258,o),
(294,-258,qs),
(416,-258,o),
(524,-125,o),
(524,-6,qs),
(524,527,l),
(482,527,l)
);
}
);
userData = {
assembly = "NPUSHB[ ]	/* 11 values pushed */
17 1 4 3 8 7 2 1 2 2 76 
MPPEM[ ]	/* MeasurePixelPerEm */
PUSHB[ ]	/* 1 value pushed */
14 
LT[ ]	/* LessThan */
IF[ ]	/* If */
NPUSHB[ ]	/* 28 values pushed */
6 5 2 3 3 41 77 0 4 4 2 97 0 2 2 47 77 0 1 1 0 97 0 0 0 51 0 78 
ELSE[ ]	/* Else */
NPUSHB[ ]	/* 25 values pushed */
0 1 0 0 1 0 101 6 5 2 3 3 41 77 0 4 4 2 97 0 2 2 47 2 78 
EIF[ ]	/* EndIf */
NPUSHB[ ]	/* 14 values pushed */
0 0 0 41 0 41 37 21 41 37 35 7 8 27 
CALL[ ]	/* CallFunction */";
};
width = 597;
}
);
note = y;
unicode = 121;
},
{
glyphname = t2.alt;
layers = (
{
layerId = m01;
shapes = (
{
closed = 1;
nodes = (
(124,685,l),
(124,527,l),
(31,527,l),
(31,492,l),
(124,492,l),
(124,158,ls),
(124,120,o),
(138,59,o),
(171,16,o),
(224,-7,o),
(264,-7,qs),
(292,-7,o),
(338,3,o),
(358,16,q),
(343,49,l),
(329,39,o),
(288,29,o),
(270,29,qs),
(235,29,o),
(193,54,o),
(172,94,o),
(166,144,o),
(166,170,qs),
(166,492,l),
(347,492,l),
(347,527,l),
(166,527,l),
(166,685,l)
);
}
);
userData = {
assembly = "NPUSHB[ ]	/* 10 values pushed */
12 1 2 1 13 1 3 2 2 76 
MPPEM[ ]	/* MeasurePixelPerEm */
PUSHB[ ]	/* 1 value pushed */
22 
LT[ ]	/* LessThan */
IF[ ]	/* If */
NPUSHB[ ]	/* 28 values pushed */
0 6 6 20 77 4 1 1 1 0 95 5 1 0 0 22 77 0 2 2 3 97 0 3 3 30 3 78 
ELSE[ ]	/* Else */
NPUSHB[ ]	/* 28 values pushed */
0 6 0 6 133 4 1 1 1 0 95 5 1 0 0 22 77 0 2 2 3 97 0 3 3 30 3 78 
EIF[ ]	/* EndIf */
NPUSHB[ ]	/* 10 values pushed */
17 17 21 37 37 17 16 7 7 29 
CALL[ ]	/* CallFunction */";
};
width = 379;
}
);
note = t2.alt;
},
{
glyphname = f_alt;
layers = (
{
layerId = m01;
shapes = (
{
closed = 1;
nodes = (
(170,492,l),
(348,492,l),
(348,527,l),
(170,527,l),
(170,601,ls),
(170,626,o),
(177,675,o),
(199,713,o),
(240,738,o),
(274,739,qs),
(294,739,o),
(329,730,o),
(343,723,q),
(358,756,l),
(342,764,o),
(304,774,o),
(278,774,qs),
(234,774,o),
(176,747,o),
(142,700,o),
(128,635,o),
(128,597,qs),
(128,527,l),
(35,527,l),
(35,492,l),
(128,492,l),
(128,0,l),
(170,0,l)
);
}
);
userData = {
assembly = "NPUSHB[ ]	/* 52 values pushed */
13 1 3 2 14 1 1 3 2 76 0 2 0 3 1 2 3 105 5 1 0 0 1 95 4 1 1 1 22 77 7 1 6 6 21 6 78 0 0 0 27 0 27 17 21 37 37 17 17 8 7 28 
CALL[ ]	/* CallFunction */";
};
width = 366;
}
);
note = f_alt;
},
{
glyphname = hyphen.uc;
layers = (
{
layerId = m01;
shapes = (
{
closed = 1;
nodes = (
(360,318,l),
(360,355,l),
(80,355,l),
(80,318,l)
);
}
);
userData = {
assembly = "NPUSHB[ ]	/* 21 values pushed */
0 0 1 1 0 87 0 0 0 1 95 0 1 0 1 79 17 16 2 7 24 
CALL[ ]	/* CallFunction */";
};
width = 440;
}
);
note = hyphen.uc;
},
{
glyphname = uni00AD.uc;
layers = (
{
layerId = m01;
shapes = (
{
closed = 1;
nodes = (
(360,318,l),
(360,355,l),
(80,355,l),
(80,318,l)
);
}
);
userData = {
assembly = "NPUSHB[ ]	/* 21 values pushed */
0 0 1 1 0 87 0 0 0 1 95 0 1 0 1 79 17 16 2 7 24 
CALL[ ]	/* CallFunction */";
};
width = 440;
}
);
note = uni00AD.uc;
},
{
glyphname = endash.uc;
layers = (
{
layerId = m01;
shapes = (
{
closed = 1;
nodes = (
(488,318,l),
(488,355,l),
(80,355,l),
(80,318,l)
);
}
);
userData = {
assembly = "NPUSHB[ ]	/* 21 values pushed */
0 0 1 1 0 87 0 0 0 1 95 0 1 0 1 79 17 16 2 7 24 
CALL[ ]	/* CallFunction */";
};
width = 568;
}
);
note = endash.uc;
},
{
glyphname = emdash.uc;
layers = (
{
layerId = m01;
shapes = (
{
closed = 1;
nodes = (
(681,318,l),
(681,355,l),
(80,355,l),
(80,318,l)
);
}
);
userData = {
assembly = "NPUSHB[ ]	/* 21 values pushed */
0 0 1 1 0 87 0 0 0 1 95 0 1 0 1 79 17 16 2 7 24 
CALL[ ]	/* CallFunction */";
};
width = 761;
}
);
note = emdash.uc;
},
{
glyphname = a_alt;
kernLeft = a;
layers = (
{
layerId = m01;
shapes = (
{
closed = 1;
nodes = (
(136,220,o),
(170,233,qs),
(196,243,o),
(264,254,o),
(337,261,o),
(409,264,o),
(440,265,q),
(440,215,ls),
(440,168,o),
(405,97,o),
(347,51,o),
(271,28,o),
(230,28,qs),
(207,28,o),
(159,39,o),
(120,64,o),
(95,105,o),
(95,135,qs),
(95,169,o)
);
},
{
closed = 1;
nodes = (
(482,0,l),
(482,287,ls),
(482,338,o),
(461,427,o),
(413,495,o),
(335,534,o),
(278,534,qs),
(248,534,o),
(188,523,o),
(135,499,o),
(95,460,o),
(84,432,q),
(131,432,l),
(154,472,o),
(234,498,o),
(276,498,qs),
(321,498,o),
(383,468,o),
(421,416,o),
(438,344,o),
(438,301,q),
(376,299,o),
(280,293,o),
(246,288,qs),
(214,283,o),
(145,265,o),
(89,230,o),
(53,175,o),
(53,134,qs),
(53,96,o),
(81,43,o),
(128,9,o),
(191,-7,o),
(226,-7,qs),
(251,-7,o),
(309,1,o),
(365,22,o),
(417,58,o),
(438,87,q),
(438,0,l)
);
}
);
userData = {
assembly = "NPUSHB[ ]	/* 59 values pushed */
19 1 0 1 1 76 0 5 4 3 4 5 3 128 0 3 0 1 0 3 1 105 0 4 4 6 97 0 6 6 29 77 0 7 7 21 77 0 0 0 2 97 0 2 2 30 2 78 21 36 18 36 42 42 37 36 8 7 30 
CALL[ ]	/* CallFunction */";
};
width = 552;
}
);
note = a_alt;
},
{
glyphname = uni0490;
kernRight = uni0413;
layers = (
{
layerId = m01;
shapes = (
{
closed = 1;
nodes = (
(135,669,l),
(528,669,l),
(528,861,l),
(485,861,l),
(485,707,l),
(93,707,l),
(93,0,l),
(135,0,l)
);
}
);
userData = {
assembly = "NPUSHB[ ]	/* 34 values pushed */
0 1 0 1 133 0 2 2 0 95 0 0 0 20 77 4 1 3 3 21 3 78 0 0 0 7 0 7 17 17 17 5 7 25 
CALL[ ]	/* CallFunction */";
};
width = 561;
}
);
note = uni0490;
unicode = 1168;
},
{
glyphname = uni0491;
kernLeft = uni0433;
kernRight = uni0433;
layers = (
{
layerId = m01;
shapes = (
{
closed = 1;
nodes = (
(115,492,l),
(420,492,l),
(420,672,l),
(380,672,l),
(380,527,l),
(73,527,l),
(73,0,l),
(115,0,l)
);
}
);
userData = {
assembly = "NPUSHB[ ]	/* 34 values pushed */
0 1 0 1 133 0 2 2 0 95 0 0 0 22 77 4 1 3 3 21 3 78 0 0 0 7 0 7 17 17 17 5 7 25 
CALL[ ]	/* CallFunction */";
};
width = 449;
}
);
note = uni0491;
unicode = 1169;
},
{
glyphname = uni0406;
layers = (
{
layerId = m01;
shapes = (
{
closed = 1;
nodes = (
(93,707,l),
(93,0,l),
(135,0,l),
(135,707,l)
);
}
);
userData = {
assembly = "NPUSHB[ ]	/* 16 values pushed */
0 1 1 20 77 0 0 0 21 0 78 17 16 2 7 24 
CALL[ ]	/* CallFunction */";
};
width = 228;
}
);
note = uni0406;
unicode = 1030;
},
{
glyphname = uni0456;
layers = (
{
layerId = m01;
shapes = (
{
closed = 1;
nodes = (
(65,706,o),
(65,687,qs),
(65,669,o),
(88,648,o),
(105,648,qs),
(123,648,o),
(145,669,o),
(145,687,qs),
(145,704,o),
(123,726,o),
(105,726,qs),
(88,726,o)
);
},
{
closed = 1;
nodes = (
(125,0,l),
(125,527,l),
(83,527,l),
(83,0,l)
);
}
);
userData = {
assembly = "MPPEM[ ]	/* MeasurePixelPerEm */
PUSHB[ ]	/* 1 value pushed */
44 
LT[ ]	/* LessThan */
IF[ ]	/* If */
NPUSHB[ ]	/* 22 values pushed */
0 1 1 0 97 4 1 0 0 27 77 0 2 2 22 77 0 3 3 21 3 78 
ELSE[ ]	/* Else */
NPUSHB[ ]	/* 20 values pushed */
4 1 0 0 1 2 0 1 105 0 2 2 22 77 0 3 3 21 3 78 
EIF[ ]	/* EndIf */
NPUSHB[ ]	/* 15 values pushed */
1 0 15 14 13 12 7 5 0 11 1 11 5 7 22 
CALL[ ]	/* CallFunction */";
};
width = 210;
}
);
note = uni0456;
unicode = 1110;
},
{
glyphname = uni0404;
layers = (
{
layerId = m01;
shapes = (
{
closed = 1;
nodes = (
(565,620,o),
(594,558,q),
(638,558,l),
(623,600,o),
(570,660,o),
(502,697,o),
(421,715,o),
(379,715,qs),
(298,715,o),
(177,660,o),
(95,563,o),
(54,431,o),
(54,353,qs),
(54,275,o),
(93,143,o),
(173,47,o),
(295,-8,o),
(378,-8,qs),
(421,-8,o),
(504,10,o),
(577,49,o),
(634,108,o),
(651,149,q),
(602,149,l),
(588,117,o),
(539,71,o),
(479,42,o),
(412,28,o),
(379,28,qs),
(309,28,o),
(205,77,o),
(135,160,o),
(99,272,o),
(96,335,q),
(473,335,l),
(473,373,l),
(96,373,l),
(98,436,o),
(135,547,o),
(206,630,o),
(312,679,o),
(383,679,qs),
(452,679,o)
);
}
);
userData = {
assembly = "NPUSHB[ ]	/* 69 values pushed */
0 7 0 1 0 7 1 128 0 4 2 3 2 4 3 128 0 1 0 2 4 1 2 103 8 1 0 0 6 97 0 6 6 27 77 0 3 3 5 97 0 5 5 28 5 78 1 0 40 39 35 33 25 23 19 18 14 12 8 7 6 5 0 42 1 42 9 7 22 
CALL[ ]	/* CallFunction */";
};
width = 699;
}
);
note = uni0404;
unicode = 1028;
},
{
glyphname = uni0454;
layers = (
{
layerId = m01;
shapes = (
{
closed = 1;
nodes = (
(480,54,o),
(506,118,q),
(460,118,l),
(440,71,o),
(356,29,o),
(303,29,qs),
(252,29,o),
(176,63,o),
(125,121,o),
(97,199,o),
(95,244,q),
(368,244,l),
(368,279,l),
(95,279,l),
(97,325,o),
(124,405,o),
(175,464,o),
(250,498,o),
(300,498,qs),
(350,498,o),
(434,455,o),
(451,408,q),
(497,408,l),
(474,471,o),
(371,534,o),
(304,534,qs),
(242,534,o),
(148,493,o),
(85,420,o),
(53,320,o),
(53,262,qs),
(53,204,o),
(84,105,o),
(146,33,o),
(238,-7,o),
(300,-7,qs),
(367,-7,o)
);
}
);
userData = {
assembly = "NPUSHB[ ]	/* 69 values pushed */
0 2 3 4 3 2 4 128 0 7 5 6 5 7 6 128 0 4 0 5 7 4 5 103 0 3 3 1 97 0 1 1 29 77 0 6 6 0 97 8 1 0 0 30 0 78 1 0 34 33 31 29 25 24 23 22 18 16 14 13 11 9 0 36 1 36 9 7 22 
CALL[ ]	/* CallFunction */";
};
width = 551;
}
);
note = uni0454;
unicode = 1108;
},
